FiraSansMM-2.ufo
<glyph name="numbersign" format="1">
  <advance width="580"/>
  <unicode hex="0023"/>
  <outline>
    <contour>
      <point x="565" y="562" type="line"/>
      <point x="516" y="562" type="line"/>
      <point x="532" y="680" type="line"/>
      <point x="369" y="680" type="line"/>
      <point x="353" y="562" type="line"/>
      <point x="285" y="562" type="line"/>
      <point x="301" y="680" type="line"/>
      <point x="138" y="680" type="line"/>
      <point x="122" y="562" type="line"/>
      <point x="52" y="562" type="line"/>
      <point x="52" y="436" type="line"/>
      <point x="106" y="436" type="line"/>
      <point x="82" y="257" type="line"/>
      <point x="15" y="257" type="line"/>
      <point x="15" y="131" type="line"/>
      <point x="65" y="131" type="line"/>
      <point x="48" y="0" type="line"/>
      <point x="211" y="0" type="line"/>
      <point x="228" y="131" type="line"/>
      <point x="296" y="131" type="line"/>
      <point x="279" y="0" type="line"/>
      <point x="442" y="0" type="line"/>
      <point x="459" y="131" type="line"/>
      <point x="528" y="131" type="line"/>
      <point x="528" y="257" type="line"/>
      <point x="476" y="257" type="line"/>
      <point x="500" y="436" type="line"/>
      <point x="565" y="436" type="line"/>
    </contour>
    <contour>
      <point x="245" y="257" type="line"/>
      <point x="269" y="436" type="line"/>
      <point x="337" y="436" type="line"/>
      <point x="313" y="257" type="line"/>
    </contour>
  </outline>
</glyph>
<glyph name="A" format="1">
  <advance width="601"/>
  <unicode hex="0041"/>
  <outline>
    <contour>
      <point x="190" y="0" type="line"/>
      <point x="216" y="135" type="line"/>
      <point x="381" y="135" type="line"/>
      <point x="408" y="0" type="line"/>
      <point x="626" y="0" type="line"/>
      <point x="424" y="696" type="line"/>
      <point x="178" y="696" type="line"/>
      <point x="-25" y="0" type="line"/>
    </contour>
    <contour>
      <point x="298" y="552" type="line"/>
      <point x="352" y="279" type="line"/>
      <point x="245" y="279" type="line"/>
    </contour>
    <contour>
      <point x="531" y="0" type="move" name="ogonek"/>
    </contour>
    <contour>
      <point x="278" y="680" type="move" name="top"/>
    </contour>
    <contour>
      <point x="170" y="680" type="move" name="topleft"/>
    </contour>
    <contour>
      <point x="278" y="0" type="move" name="bottom"/>
    </contour>
  </outline>
</glyph>
<glyph name="D" format="1">
  <advance width="656"/>
  <unicode hex="0044"/>
  <outline>
    <contour>
      <point x="43" y="696" type="line"/>
      <point x="43" y="0" type="line"/>
      <point x="278" y="0" type="line" smooth="yes"/>
      <point x="472" y="0"/>
      <point x="636" y="73"/>
      <point x="636" y="351" type="curve" smooth="yes"/>
      <point x="636" y="637"/>
      <point x="457" y="696"/>
      <point x="266" y="696" type="curve" smooth="yes"/>
    </contour>
    <contour>
      <point x="291" y="551" type="line" smooth="yes"/>
      <point x="379" y="551"/>
      <point x="424" y="509"/>
      <point x="424" y="351" type="curve" smooth="yes"/>
      <point x="424" y="193"/>
      <point x="383" y="145"/>
      <point x="290" y="145" type="curve" smooth="yes"/>
      <point x="249" y="145" type="line"/>
      <point x="249" y="551" type="line"/>
    </contour>
    <contour>
      <point x="309" y="340" type="move" name="center"/>
    </contour>
    <contour>
      <point x="310" y="0" type="move" name="bottom"/>
    </contour>
    <contour>
      <point x="289" y="680" type="move" name="top"/>
    </contour>
  </outline>
</glyph>
<glyph name="E" format="1">
  <advance width="520"/>
  <unicode hex="0045"/>
  <outline>
    <contour>
      <point x="43" y="696" type="line"/>
      <point x="43" y="0" type="line"/>
      <point x="495" y="0" type="line"/>
      <point x="495" y="144" type="line"/>
      <point x="249" y="144" type="line"/>
      <point x="249" y="284" type="line"/>
      <point x="451" y="284" type="line"/>
      <point x="451" y="423" type="line"/>
      <point x="249" y="423" type="line"/>
      <point x="249" y="553" type="line"/>
      <point x="479" y="553" type="line"/>
      <point x="500" y="696" type="line"/>
    </contour>
    <contour>
      <point x="425" y="0" type="move" name="ogonek"/>
    </contour>
    <contour>
      <point x="284" y="680" type="move" name="top"/>
    </contour>
    <contour>
      <point x="80" y="680" type="move" name="topleft"/>
    </contour>
    <contour>
      <point x="284" y="0" type="move" name="bottom"/>
    </contour>
  </outline>
</glyph>
<glyph name="F" format="1">
  <advance width="485"/>
  <unicode hex="0046"/>
  <outline>
    <contour>
      <point x="43" y="696" type="line"/>
      <point x="43" y="0" type="line"/>
      <point x="249" y="0" type="line"/>
      <point x="249" y="258" type="line"/>
      <point x="438" y="258" type="line"/>
      <point x="438" y="401" type="line"/>
      <point x="249" y="401" type="line"/>
      <point x="249" y="553" type="line"/>
      <point x="464" y="553" type="line"/>
      <point x="485" y="696" type="line"/>
    </contour>
    <contour>
      <point x="290" y="680" type="move" name="top"/>
    </contour>
    <contour>
      <point x="235" y="0" type="move" name="bottom"/>
    </contour>
  </outline>
</glyph>
<glyph name="L" format="1">
  <advance width="522"/>
  <unicode hex="004C"/>
  <outline>
    <contour>
      <point x="43" y="696" type="line"/>
      <point x="43" y="0" type="line"/>
      <point x="491" y="0" type="line"/>
      <point x="512" y="158" type="line"/>
      <point x="249" y="158" type="line"/>
      <point x="249" y="696" type="line"/>
    </contour>
    <contour>
      <point x="275" y="0" type="move" name="bottom"/>
    </contour>
    <contour>
      <point x="131" y="680" type="move" name="top"/>
    </contour>
    <contour>
      <point x="182" y="680" type="move" name="topright"/>
    </contour>
    <contour>
      <point x="350" y="355" type="move" name="center"/>
    </contour>
  </outline>
</glyph>
<glyph name="R" format="1">
  <advance width="624"/>
  <unicode hex="0052"/>
  <outline>
    <contour>
      <point x="249" y="0" type="line"/>
      <point x="249" y="248" type="line"/>
      <point x="287" y="248" type="line"/>
      <point x="416" y="0" type="line"/>
      <point x="644" y="0" type="line"/>
      <point x="474" y="286" type="line"/>
      <point x="559" y="335"/>
      <point x="597" y="387"/>
      <point x="597" y="475" type="curve" smooth="yes"/>
      <point x="597" y="628"/>
      <point x="497" y="696"/>
      <point x="298" y="696" type="curve" smooth="yes"/>
      <point x="43" y="696" type="line"/>
      <point x="43" y="0" type="line"/>
    </contour>
    <contour>
      <point x="249" y="555" type="line"/>
      <point x="293" y="555" type="line" smooth="yes"/>
      <point x="354" y="555"/>
      <point x="387" y="530"/>
      <point x="387" y="475" type="curve" smooth="yes"/>
      <point x="387" y="414"/>
      <point x="359" y="386"/>
      <point x="303" y="386" type="curve" smooth="yes"/>
      <point x="249" y="386" type="line"/>
    </contour>
    <contour>
      <point x="281" y="680" type="move" name="top"/>
    </contour>
    <contour>
      <point x="301" y="0" type="move" name="bottom"/>
    </contour>
  </outline>
</glyph>
<glyph name="d" format="1">
  <advance width="601"/>
  <unicode hex="0064"/>
  <outline>
    <contour>
      <point x="225" y="-20" type="curve" smooth="yes"/>
      <point x="302" y="-20"/>
      <point x="348" y="18"/>
      <point x="376" y="55" type="curve"/>
      <point x="383" y="0" type="line"/>
      <point x="559" y="0" type="line"/>
      <point x="559" y="744" type="line"/>
      <point x="361" y="764" type="line"/>
      <point x="361" y="512" type="line"/>
      <point x="331" y="539"/>
      <point x="290" y="554"/>
      <point x="250" y="554" type="curve" smooth="yes"/>
      <point x="108" y="554"/>
      <point x="22" y="436"/>
      <point x="22" y="270" type="curve" smooth="yes"/>
      <point x="22" y="94"/>
      <point x="86" y="-20"/>
    </contour>
    <contour>
      <point x="294" y="122" type="curve" smooth="yes"/>
      <point x="256" y="122"/>
      <point x="225" y="140"/>
      <point x="225" y="268" type="curve" smooth="yes"/>
      <point x="225" y="376"/>
      <point x="259" y="413"/>
      <point x="303" y="413" type="curve" smooth="yes"/>
      <point x="327" y="413"/>
      <point x="343" y="402"/>
      <point x="361" y="383" type="curve"/>
      <point x="361" y="169" type="line"/>
      <point x="342" y="136"/>
      <point x="319" y="122"/>
    </contour>
    <contour>
      <point x="288" y="0" type="move" name="bottom"/>
    </contour>
    <contour>
      <point x="280" y="727" type="move" name="top"/>
    </contour>
    <contour>
      <point x="497" y="727" type="move" name="topright"/>
    </contour>
    <contour>
      <point x="289" y="259" type="move" name="center"/>
    </contour>
  </outline>
</glyph>
<glyph name="h" format="1">
  <advance width="572"/>
  <unicode hex="0068"/>
  <outline>
    <contour>
      <point x="240" y="0" type="line"/>
      <point x="240" y="357" type="line"/>
      <point x="263" y="393"/>
      <point x="286" y="410"/>
      <point x="307" y="410" type="curve" smooth="yes"/>
      <point x="325" y="410"/>
      <point x="337" y="400"/>
      <point x="337" y="358" type="curve" smooth="yes"/>
      <point x="337" y="0" type="line"/>
      <point x="535" y="0" type="line"/>
      <point x="535" y="394" type="line" smooth="yes"/>
      <point x="535" y="496"/>
      <point x="480" y="554"/>
      <point x="391" y="554" type="curve" smooth="yes"/>
      <point x="331" y="554"/>
      <point x="286" y="534"/>
      <point x="240" y="486" type="curve"/>
      <point x="240" y="764" type="line"/>
      <point x="42" y="744" type="line"/>
      <point x="42" y="0" type="line"/>
    </contour>
    <contour>
      <point x="293" y="260" type="move" name="center"/>
    </contour>
    <contour>
      <point x="293" y="0" type="move" name="bottom"/>
    </contour>
    <contour>
      <point x="293" y="727" type="move" name="top"/>
    </contour>
  </outline>
</glyph>
<glyph name="m" format="1">
  <advance width="837"/>
  <unicode hex="006D"/>
  <outline>
    <contour>
      <point x="240" y="0" type="line"/>
      <point x="240" y="357" type="line"/>
      <point x="256" y="393"/>
      <point x="276" y="410"/>
      <point x="295" y="410" type="curve" smooth="yes"/>
      <point x="310" y="410"/>
      <point x="322" y="400"/>
      <point x="322" y="358" type="curve" smooth="yes"/>
      <point x="322" y="0" type="line"/>
      <point x="520" y="0" type="line"/>
      <point x="520" y="357" type="line"/>
      <point x="536" y="393"/>
      <point x="556" y="410"/>
      <point x="575" y="410" type="curve" smooth="yes"/>
      <point x="590" y="410"/>
      <point x="602" y="400"/>
      <point x="602" y="358" type="curve" smooth="yes"/>
      <point x="602" y="0" type="line"/>
      <point x="800" y="0" type="line"/>
      <point x="800" y="394" type="line" smooth="yes"/>
      <point x="800" y="496"/>
      <point x="744" y="554"/>
      <point x="664" y="554" type="curve" smooth="yes"/>
      <point x="598" y="554"/>
      <point x="549" y="531"/>
      <point x="504" y="477" type="curve"/>
      <point x="483" y="527"/>
      <point x="439" y="554"/>
      <point x="384" y="554" type="curve" smooth="yes"/>
      <point x="320" y="554"/>
      <point x="272" y="532"/>
      <point x="229" y="480" type="curve"/>
      <point x="215" y="534" type="line"/>
      <point x="42" y="534" type="line"/>
      <point x="42" y="0" type="line"/>
    </contour>
    <contour>
      <point x="423" y="517" type="move" name="top"/>
    </contour>
    <contour>
      <point x="423" y="0" type="move" name="bottom"/>
    </contour>
  </outline>
</glyph>
<glyph name="o" format="1">
  <advance width="584"/>
  <unicode hex="006F"/>
  <outline>
    <contour>
      <point x="292" y="-20" type="curve" smooth="yes"/>
      <point x="462" y="-20"/>
      <point x="567" y="92"/>
      <point x="567" y="266" type="curve" smooth="yes"/>
      <point x="567" y="452"/>
      <point x="460" y="554"/>
      <point x="292" y="554" type="curve" smooth="yes"/>
      <point x="122" y="554"/>
      <point x="17" y="442"/>
      <point x="17" y="268" type="curve" smooth="yes"/>
      <point x="17" y="82"/>
      <point x="124" y="-20"/>
    </contour>
    <contour>
      <point x="292" y="122" type="curve" smooth="yes"/>
      <point x="242" y="122"/>
      <point x="220" y="162"/>
      <point x="220" y="268" type="curve" smooth="yes"/>
      <point x="220" y="369"/>
      <point x="242" y="412"/>
      <point x="292" y="412" type="curve" smooth="yes"/>
      <point x="342" y="412"/>
      <point x="364" y="372"/>
      <point x="364" y="266" type="curve" smooth="yes"/>
      <point x="364" y="165"/>
      <point x="342" y="122"/>
    </contour>
    <contour>
      <point x="348" y="0" type="move" name="ogonek"/>
    </contour>
    <contour>
      <point x="280" y="517" type="move" name="top"/>
    </contour>
    <contour>
      <point x="431" y="517" type="move" name="topright"/>
    </contour>
    <contour>
      <point x="280" y="0" type="move" name="bottom"/>
    </contour>
  </outline>
</glyph>
<glyph name="p" format="1">
  <advance width="599"/>
  <unicode hex="0070"/>
  <outline>
    <contour>
      <point x="240" y="-207" type="line"/>
      <point x="240" y="33" type="line"/>
      <point x="272" y="-2"/>
      <point x="314" y="-20"/>
      <point x="364" y="-20" type="curve" smooth="yes"/>
      <point x="492" y="-20"/>
      <point x="577" y="103"/>
      <point x="577" y="269" type="curve" smooth="yes"/>
      <point x="577" y="445"/>
      <point x="513" y="554"/>
      <point x="373" y="554" type="curve" smooth="yes"/>
      <point x="330" y="554"/>
      <point x="272" y="537"/>
      <point x="226" y="482" type="curve"/>
      <point x="218" y="534" type="line"/>
      <point x="42" y="534" type="line"/>
      <point x="42" y="-227" type="line"/>
    </contour>
    <contour>
      <point x="299" y="121" type="curve" smooth="yes"/>
      <point x="275" y="121"/>
      <point x="258" y="131"/>
      <point x="240" y="158" type="curve"/>
      <point x="240" y="362" type="line"/>
      <point x="260" y="398"/>
      <point x="284" y="412"/>
      <point x="306" y="412" type="curve" smooth="yes"/>
      <point x="346" y="412"/>
      <point x="374" y="395"/>
      <point x="374" y="266" type="curve" smooth="yes"/>
      <point x="374" y="158"/>
      <point x="343" y="121"/>
    </contour>
    <contour>
      <point x="284" y="517" type="move" name="top"/>
    </contour>
    <contour>
      <point x="284" y="-188" type="move" name="bottom"/>
    </contour>
  </outline>
</glyph>
<glyph name="q" format="1">
  <advance width="596"/>
  <unicode hex="0071"/>
  <outline>
    <contour>
      <point x="372" y="497" type="line"/>
      <point x="333" y="538"/>
      <point x="287" y="554"/>
      <point x="245" y="554" type="curve" smooth="yes"/>
      <point x="103" y="554"/>
      <point x="17" y="436"/>
      <point x="17" y="270" type="curve" smooth="yes"/>
      <point x="17" y="94"/>
      <point x="81" y="-20"/>
      <point x="220" y="-20" type="curve" smooth="yes"/>
      <point x="285" y="-20"/>
      <point x="327" y="7"/>
      <point x="356" y="40" type="curve"/>
      <point x="356" y="-207" type="line"/>
      <point x="554" y="-227" type="line"/>
      <point x="554" y="534" type="line"/>
      <point x="381" y="534" type="line"/>
    </contour>
    <contour>
      <point x="289" y="122" type="curve" smooth="yes"/>
      <point x="251" y="122"/>
      <point x="220" y="140"/>
      <point x="220" y="268" type="curve" smooth="yes"/>
      <point x="220" y="376"/>
      <point x="254" y="413"/>
      <point x="298" y="413" type="curve" smooth="yes"/>
      <point x="322" y="413"/>
      <point x="338" y="402"/>
      <point x="356" y="383" type="curve"/>
      <point x="356" y="169" type="line"/>
      <point x="337" y="136"/>
      <point x="314" y="122"/>
    </contour>
    <contour>
      <point x="284" y="517" type="move" name="top"/>
    </contour>
    <contour>
      <point x="284" y="-188" type="move" name="bottom"/>
    </contour>
  </outline>
</glyph>
<glyph name="cent" format="1">
  <advance width="479"/>
  <unicode hex="00A2"/>
  <outline>
    <contour>
      <point x="356" y="-165" type="line"/>
      <point x="356" y="-15" type="line"/>
      <point x="409" y="-6"/>
      <point x="452" y="16"/>
      <point x="489" y="46" type="curve"/>
      <point x="404" y="167" type="line"/>
      <point x="367" y="144"/>
      <point x="344" y="133"/>
      <point x="311" y="133" type="curve" smooth="yes"/>
      <point x="260" y="133"/>
      <point x="223" y="156"/>
      <point x="223" y="263" type="curve" smooth="yes"/>
      <point x="223" y="371"/>
      <point x="255" y="405"/>
      <point x="313" y="405" type="curve" smooth="yes"/>
      <point x="345" y="405"/>
      <point x="375" y="394"/>
      <point x="407" y="368" type="curve"/>
      <point x="489" y="483" type="line"/>
      <point x="452" y="516"/>
      <point x="409" y="539"/>
      <point x="356" y="549" type="curve"/>
      <point x="356" y="696" type="line"/>
      <point x="222" y="696" type="line"/>
      <point x="222" y="546" type="line"/>
      <point x="95" y="516"/>
      <point x="17" y="406"/>
      <point x="17" y="263" type="curve" smooth="yes"/>
      <point x="17" y="123"/>
      <point x="93" y="18"/>
      <point x="221" y="-11" type="curve"/>
      <point x="221" y="-165" type="line"/>
    </contour>
    <contour>
      <point x="269" y="517" type="move" name="top"/>
    </contour>
    <contour>
      <point x="285" y="-1" type="move" name="bottom"/>
    </contour>
  </outline>
</glyph>
<glyph name="currency" format="1">
  <advance width="560"/>
  <unicode hex="00A4"/>
  <outline>
    <contour>
      <point x="168" y="148" type="line"/>
      <point x="201" y="130"/>
      <point x="239" y="120"/>
      <point x="281" y="120" type="curve" smooth="yes"/>
      <point x="323" y="120"/>
      <point x="361" y="130"/>
      <point x="394" y="148" type="curve"/>
      <point x="472" y="72" type="line"/>
      <point x="551" y="151" type="line"/>
      <point x="476" y="226" type="line"/>
      <point x="496" y="259"/>
      <point x="507" y="299"/>
      <point x="507" y="342" type="curve" smooth="yes"/>
      <point x="507" y="385"/>
      <point x="496" y="424"/>
      <point x="476" y="458" type="curve"/>
      <point x="551" y="534" type="line"/>
      <point x="472" y="613" type="line"/>
      <point x="395" y="535" type="line"/>
      <point x="362" y="554"/>
      <point x="323" y="564"/>
      <point x="281" y="564" type="curve" smooth="yes"/>
      <point x="239" y="564"/>
      <point x="200" y="554"/>
      <point x="167" y="536" type="curve"/>
      <point x="89" y="613" type="line"/>
      <point x="10" y="534" type="line"/>
      <point x="86" y="457" type="line"/>
      <point x="66" y="423"/>
      <point x="55" y="384"/>
      <point x="55" y="342" type="curve" smooth="yes"/>
      <point x="55" y="299"/>
      <point x="66" y="260"/>
      <point x="86" y="226" type="curve"/>
      <point x="10" y="151" type="line"/>
      <point x="89" y="72" type="line"/>
    </contour>
    <contour>
      <point x="281" y="247" type="curve" smooth="yes"/>
      <point x="226" y="247"/>
      <point x="198" y="282"/>
      <point x="198" y="342" type="curve" smooth="yes"/>
      <point x="198" y="401"/>
      <point x="226" y="435"/>
      <point x="281" y="435" type="curve" smooth="yes"/>
      <point x="335" y="435"/>
      <point x="362" y="401"/>
      <point x="362" y="342" type="curve" smooth="yes"/>
      <point x="362" y="282"/>
      <point x="335" y="247"/>
    </contour>
  </outline>
</glyph>
<glyph name="ordfeminine" format="1">
  <advance width="500"/>
  <unicode hex="00AA"/>
  <outline>
    <contour>
      <point x="178" y="260" type="curve" smooth="yes"/>
      <point x="227" y="260"/>
      <point x="277" y="275"/>
      <point x="308" y="317" type="curve"/>
      <point x="337" y="281"/>
      <point x="375" y="267"/>
      <point x="428" y="264" type="curve"/>
      <point x="463" y="374" type="line"/>
      <point x="444" y="380"/>
      <point x="439" y="392"/>
      <point x="439" y="418" type="curve" smooth="yes"/>
      <point x="439" y="543" type="line" smooth="yes"/>
      <point x="439" y="647"/>
      <point x="381" y="696"/>
      <point x="239" y="696" type="curve" smooth="yes"/>
      <point x="190" y="696"/>
      <point x="120" y="684"/>
      <point x="66" y="663" type="curve"/>
      <point x="104" y="555" type="line"/>
      <point x="146" y="568"/>
      <point x="190" y="576"/>
      <point x="213" y="576" type="curve" smooth="yes"/>
      <point x="259" y="576"/>
      <point x="270" y="569"/>
      <point x="270" y="533" type="curve" smooth="yes"/>
      <point x="270" y="530" type="line"/>
      <point x="246" y="530" type="line" smooth="yes"/>
      <point x="109" y="530"/>
      <point x="36" y="480"/>
      <point x="36" y="390" type="curve" smooth="yes"/>
      <point x="36" y="315"/>
      <point x="92" y="260"/>
    </contour>
    <contour>
      <point x="468" y="0" type="line"/>
      <point x="468" y="150" type="line"/>
      <point x="40" y="150" type="line"/>
      <point x="40" y="0" type="line"/>
    </contour>
    <contour>
      <point x="237" y="381" type="curve" smooth="yes"/>
      <point x="218" y="381"/>
      <point x="210" y="391"/>
      <point x="210" y="405" type="curve" smooth="yes"/>
      <point x="210" y="430"/>
      <point x="226" y="442"/>
      <point x="262" y="442" type="curve" smooth="yes"/>
      <point x="270" y="442" type="line"/>
      <point x="270" y="393" type="line"/>
      <point x="262" y="386"/>
      <point x="250" y="381"/>
    </contour>
  </outline>
</glyph>
<glyph name="paragraph" format="1">
  <advance width="820"/>
  <unicode hex="00B6"/>
  <outline>
    <contour>
      <point x="333" y="696" type="line" smooth="yes"/>
      <point x="148" y="703"/>
      <point x="50" y="610"/>
      <point x="50" y="473" type="curve" smooth="yes"/>
      <point x="50" y="344"/>
      <point x="136" y="254"/>
      <point x="298" y="252" type="curve"/>
      <point x="298" y="-228" type="line"/>
      <point x="470" y="-207" type="line"/>
      <point x="470" y="563" type="line"/>
      <point x="548" y="563" type="line"/>
      <point x="548" y="-228" type="line"/>
      <point x="720" y="-207" type="line"/>
      <point x="720" y="696" type="line"/>
    </contour>
  </outline>
</glyph>
<glyph name="Eth" format="1">
  <advance width="671"/>
  <unicode hex="00D0"/>
  <outline>
    <contour>
      <point x="58" y="696" type="line"/>
      <point x="58" y="411" type="line"/>
      <point x="10" y="411" type="line"/>
      <point x="10" y="295" type="line"/>
      <point x="58" y="295" type="line"/>
      <point x="58" y="0" type="line"/>
      <point x="293" y="0" type="line" smooth="yes"/>
      <point x="487" y="0"/>
      <point x="651" y="73"/>
      <point x="651" y="351" type="curve" smooth="yes"/>
      <point x="651" y="637"/>
      <point x="472" y="696"/>
      <point x="281" y="696" type="curve" smooth="yes"/>
    </contour>
    <contour>
      <point x="264" y="145" type="line"/>
      <point x="264" y="295" type="line"/>
      <point x="385" y="295" type="line"/>
      <point x="385" y="411" type="line"/>
      <point x="264" y="411" type="line"/>
      <point x="264" y="551" type="line"/>
      <point x="306" y="551" type="line" smooth="yes"/>
      <point x="394" y="551"/>
      <point x="439" y="509"/>
      <point x="439" y="351" type="curve" smooth="yes"/>
      <point x="439" y="193"/>
      <point x="398" y="145"/>
      <point x="305" y="145" type="curve" smooth="yes"/>
    </contour>
    <contour>
      <point x="303" y="340" type="move" name="center"/>
    </contour>
    <contour>
      <point x="304" y="0" type="move" name="bottom"/>
    </contour>
    <contour>
      <point x="283" y="680" type="move" name="top"/>
    </contour>
  </outline>
</glyph>
<glyph name="eth" format="1">
  <advance width="584"/>
  <unicode hex="00F0"/>
  <outline>
    <contour>
      <point x="286" y="-20" type="curve" smooth="yes"/>
      <point x="469" y="-20"/>
      <point x="562" y="122"/>
      <point x="562" y="284" type="curve" smooth="yes"/>
      <point x="562" y="445"/>
      <point x="512" y="574"/>
      <point x="366" y="674" type="curve"/>
      <point x="417" y="726" type="line"/>
      <point x="320" y="811" type="line"/>
      <point x="244" y="731" type="line"/>
      <point x="184" y="750"/>
      <point x="145" y="757"/>
      <point x="101" y="763" type="curve"/>
      <point x="63" y="639" type="line"/>
      <point x="83" y="636"/>
      <point x="109" y="631"/>
      <point x="139" y="624" type="curve"/>
      <point x="94" y="576" type="line"/>
      <point x="216" y="521" type="line"/>
      <point x="261" y="567" type="line"/>
      <point x="310" y="530"/>
      <point x="334" y="494"/>
      <point x="352" y="447" type="curve"/>
      <point x="317" y="469"/>
      <point x="280" y="482"/>
      <point x="229" y="482" type="curve" smooth="yes"/>
      <point x="118" y="482"/>
      <point x="17" y="381"/>
      <point x="17" y="233" type="curve" smooth="yes"/>
      <point x="17" y="74"/>
      <point x="133" y="-20"/>
    </contour>
    <contour>
      <point x="290" y="121" type="curve" smooth="yes"/>
      <point x="245" y="121"/>
      <point x="218" y="149"/>
      <point x="218" y="235" type="curve" smooth="yes"/>
      <point x="218" y="310"/>
      <point x="241" y="348"/>
      <point x="289" y="348" type="curve" smooth="yes"/>
      <point x="316" y="348"/>
      <point x="340" y="340"/>
      <point x="360" y="326" type="curve"/>
      <point x="360" y="301"/>
      <point x="360" y="275"/>
      <point x="360" y="250" type="curve" smooth="yes"/>
      <point x="360" y="161"/>
      <point x="345" y="121"/>
    </contour>
    <contour>
      <point x="286" y="727" type="move" name="top"/>
    </contour>
    <contour>
      <point x="268" y="0" type="move" name="bottom"/>
    </contour>
  </outline>
</glyph>
<glyph name="thorn" format="1">
  <advance width="599"/>
  <unicode hex="00FE"/>
  <outline>
    <contour>
      <point x="373" y="554" type="curve" smooth="yes"/>
      <point x="334" y="554"/>
      <point x="284" y="540"/>
      <point x="240" y="492" type="curve"/>
      <point x="240" y="764" type="line"/>
      <point x="42" y="744" type="line"/>
      <point x="42" y="-227" type="line"/>
      <point x="240" y="-207" type="line"/>
      <point x="240" y="33" type="line"/>
      <point x="272" y="-2"/>
      <point x="314" y="-20"/>
      <point x="364" y="-20" type="curve" smooth="yes"/>
      <point x="492" y="-20"/>
      <point x="577" y="103"/>
      <point x="577" y="269" type="curve" smooth="yes"/>
      <point x="577" y="445"/>
      <point x="513" y="554"/>
    </contour>
    <contour>
      <point x="299" y="121" type="curve" smooth="yes"/>
      <point x="275" y="121"/>
      <point x="258" y="131"/>
      <point x="240" y="158" type="curve"/>
      <point x="240" y="362" type="line"/>
      <point x="260" y="398"/>
      <point x="284" y="412"/>
      <point x="306" y="412" type="curve" smooth="yes"/>
      <point x="346" y="412"/>
      <point x="374" y="395"/>
      <point x="374" y="266" type="curve" smooth="yes"/>
      <point x="374" y="158"/>
      <point x="343" y="121"/>
    </contour>
    <contour>
      <point x="284" y="727" type="move" name="top"/>
    </contour>
    <contour>
      <point x="284" y="-188" type="move" name="bottom"/>
    </contour>
  </outline>
</glyph>
<glyph name="hbar" format="1">
  <advance width="582"/>
  <unicode hex="0127"/>
  <outline>
    <contour>
      <point x="250" y="0" type="line"/>
      <point x="250" y="357" type="line"/>
      <point x="273" y="393"/>
      <point x="296" y="410"/>
      <point x="317" y="410" type="curve" smooth="yes"/>
      <point x="335" y="410"/>
      <point x="347" y="400"/>
      <point x="347" y="358" type="curve" smooth="yes"/>
      <point x="347" y="0" type="line"/>
      <point x="545" y="0" type="line"/>
      <point x="545" y="394" type="line" smooth="yes"/>
      <point x="545" y="496"/>
      <point x="490" y="554"/>
      <point x="401" y="554" type="curve" smooth="yes"/>
      <point x="341" y="554"/>
      <point x="296" y="534"/>
      <point x="250" y="486" type="curve"/>
      <point x="250" y="590" type="line"/>
      <point x="372" y="590" type="line"/>
      <point x="372" y="696" type="line"/>
      <point x="250" y="696" type="line"/>
      <point x="250" y="764" type="line"/>
      <point x="52" y="744" type="line"/>
      <point x="52" y="696" type="line"/>
      <point x="0" y="696" type="line"/>
      <point x="0" y="590" type="line"/>
      <point x="52" y="590" type="line"/>
      <point x="52" y="0" type="line"/>
    </contour>
    <contour>
      <point x="298" y="260" type="move" name="center"/>
    </contour>
    <contour>
      <point x="298" y="0" type="move" name="bottom"/>
    </contour>
    <contour>
      <point x="298" y="727" type="move" name="top"/>
    </contour>
  </outline>
</glyph>
<glyph name="Lslash" format="1">
  <advance width="576"/>
  <unicode hex="0141"/>
  <outline>
    <contour>
      <point x="303" y="333" type="line"/>
      <point x="475" y="439" type="line"/>
      <point x="411" y="541" type="line"/>
      <point x="303" y="474" type="line"/>
      <point x="303" y="696" type="line"/>
      <point x="97" y="696" type="line"/>
      <point x="97" y="347" type="line"/>
      <point x="0" y="287" type="line"/>
      <point x="63" y="184" type="line"/>
      <point x="97" y="205" type="line"/>
      <point x="97" y="0" type="line"/>
      <point x="545" y="0" type="line"/>
      <point x="566" y="158" type="line"/>
      <point x="303" y="158" type="line"/>
    </contour>
    <contour>
      <point x="277" y="0" type="move" name="bottom"/>
    </contour>
    <contour>
      <point x="133" y="680" type="move" name="top"/>
    </contour>
    <contour>
      <point x="184" y="680" type="move" name="topright"/>
    </contour>
    <contour>
      <point x="352" y="355" type="move" name="center"/>
    </contour>
  </outline>
</glyph>
<glyph name="lslash" format="1">
  <advance width="386"/>
  <unicode hex="0142"/>
  <outline>
    <contour>
      <point x="247" y="-20" type="curve" smooth="yes"/>
      <point x="292" y="-20"/>
      <point x="331" y="-12"/>
      <point x="357" y="-2" type="curve"/>
      <point x="322" y="139" type="line"/>
      <point x="317" y="137"/>
      <point x="310" y="135"/>
      <point x="301" y="135" type="curve" smooth="yes"/>
      <point x="285" y="135"/>
      <point x="277" y="144"/>
      <point x="277" y="162" type="curve" smooth="yes"/>
      <point x="277" y="370" type="line"/>
      <point x="392" y="440" type="line"/>
      <point x="329" y="542" type="line"/>
      <point x="277" y="511" type="line"/>
      <point x="277" y="764" type="line"/>
      <point x="79" y="744" type="line"/>
      <point x="79" y="391" type="line"/>
      <point x="-20" y="329" type="line"/>
      <point x="43" y="227" type="line"/>
      <point x="79" y="249" type="line"/>
      <point x="79" y="154" type="line" smooth="yes"/>
      <point x="79" y="43"/>
      <point x="139" y="-20"/>
    </contour>
    <contour>
      <point x="180" y="0" type="move" name="bottom"/>
    </contour>
    <contour>
      <point x="127" y="730" type="move" name="top"/>
    </contour>
    <contour>
      <point x="188" y="727" type="move" name="topright"/>
    </contour>
    <contour>
      <point x="262" y="375" type="move" name="center"/>
    </contour>
  </outline>
</glyph>
<glyph name="OE" format="1">
  <advance width="910"/>
  <unicode hex="0152"/>
  <outline>
    <contour>
      <point x="327" y="-20" type="curve" smooth="yes"/>
      <point x="367" y="-20"/>
      <point x="403" y="-13"/>
      <point x="434" y="0" type="curve"/>
      <point x="885" y="0" type="line"/>
      <point x="885" y="144" type="line"/>
      <point x="593" y="144" type="line"/>
      <point x="620" y="185"/>
      <point x="637" y="233"/>
      <point x="645" y="284" type="curve"/>
      <point x="841" y="284" type="line"/>
      <point x="841" y="423" type="line"/>
      <point x="644" y="423" type="line"/>
      <point x="636" y="470"/>
      <point x="620" y="514"/>
      <point x="594" y="553" type="curve"/>
      <point x="869" y="553" type="line"/>
      <point x="890" y="696" type="line"/>
      <point x="438" y="696" type="line"/>
      <point x="406" y="709"/>
      <point x="368" y="716"/>
      <point x="327" y="716" type="curve" smooth="yes"/>
      <point x="136" y="716"/>
      <point x="20" y="575"/>
      <point x="20" y="349" type="curve" smooth="yes"/>
      <point x="20" y="118"/>
      <point x="136" y="-20"/>
    </contour>
    <contour>
      <point x="335" y="126" type="curve" smooth="yes"/>
      <point x="267" y="126"/>
      <point x="234" y="188"/>
      <point x="234" y="349" type="curve" smooth="yes"/>
      <point x="234" y="510"/>
      <point x="267" y="570"/>
      <point x="335" y="570" type="curve" smooth="yes"/>
      <point x="403" y="570"/>
      <point x="436" y="510"/>
      <point x="436" y="349" type="curve" smooth="yes"/>
      <point x="436" y="188"/>
      <point x="405" y="126"/>
    </contour>
    <contour>
      <point x="419" y="680" type="move" name="top"/>
    </contour>
    <contour>
      <point x="419" y="0" type="move" name="bottom"/>
    </contour>
  </outline>
</glyph>
<glyph name="Tbar" format="1">
  <advance width="554"/>
  <unicode hex="0166"/>
  <outline>
    <contour>
      <point x="380" y="0" type="line"/>
      <point x="380" y="285" type="line"/>
      <point x="489" y="285" type="line"/>
      <point x="489" y="391" type="line"/>
      <point x="380" y="391" type="line"/>
      <point x="380" y="542" type="line"/>
      <point x="538" y="542" type="line"/>
      <point x="559" y="696" type="line"/>
      <point x="5" y="696" type="line"/>
      <point x="5" y="542" type="line"/>
      <point x="174" y="542" type="line"/>
      <point x="174" y="391" type="line"/>
      <point x="64" y="391" type="line"/>
      <point x="64" y="285" type="line"/>
      <point x="174" y="285" type="line"/>
      <point x="174" y="0" type="line"/>
    </contour>
    <contour>
      <point x="236" y="0" type="move" name="bottom"/>
    </contour>
    <contour>
      <point x="236" y="680" type="move" name="top"/>
    </contour>
    <contour>
      <point x="247" y="0" type="move" name="bottomright"/>
    </contour>
    <contour>
      <point x="236" y="340" type="move" name="center"/>
    </contour>
  </outline>
</glyph>
<glyph name="tbar" format="1">
  <advance width="401"/>
  <unicode hex="0167"/>
  <outline>
    <contour>
      <point x="352" y="149" type="line"/>
      <point x="334" y="139"/>
      <point x="317" y="135"/>
      <point x="302" y="135" type="curve" smooth="yes"/>
      <point x="277" y="135"/>
      <point x="260" y="149"/>
      <point x="260" y="199" type="curve" smooth="yes"/>
      <point x="260" y="240" type="line"/>
      <point x="360" y="240" type="line"/>
      <point x="360" y="364" type="line"/>
      <point x="260" y="364" type="line"/>
      <point x="260" y="400" type="line"/>
      <point x="360" y="400" type="line"/>
      <point x="380" y="534" type="line"/>
      <point x="260" y="534" type="line"/>
      <point x="260" y="669" type="line"/>
      <point x="62" y="646" type="line"/>
      <point x="62" y="534" type="line"/>
      <point x="-2" y="534" type="line"/>
      <point x="-2" y="400" type="line"/>
      <point x="62" y="400" type="line"/>
      <point x="62" y="364" type="line"/>
      <point x="5" y="364" type="line"/>
      <point x="5" y="240" type="line"/>
      <point x="62" y="240" type="line"/>
      <point x="62" y="197" type="line" smooth="yes"/>
      <point x="62" y="56"/>
      <point x="122" y="-19"/>
      <point x="256" y="-20" type="curve" smooth="yes"/>
      <point x="306" y="-20"/>
      <point x="372" y="-5"/>
      <point x="416" y="26" type="curve"/>
    </contour>
    <contour>
      <point x="225" y="0" type="move" name="bottom"/>
    </contour>
    <contour>
      <point x="118" y="651" type="move" name="top"/>
    </contour>
    <contour>
      <point x="157" y="730" type="move" name="topright"/>
    </contour>
    <contour>
      <point x="145" y="259" type="move" name="center"/>
    </contour>
  </outline>
</glyph>
<glyph name="uni0180" format="1">
  <advance width="609"/>
  <unicode hex="0180"/>
  <outline>
    <contour>
      <point x="373" y="-20" type="curve" smooth="yes"/>
      <point x="508" y="-20"/>
      <point x="587" y="103"/>
      <point x="587" y="266" type="curve" smooth="yes"/>
      <point x="587" y="445"/>
      <point x="523" y="554"/>
      <point x="385" y="554" type="curve" smooth="yes"/>
      <point x="335" y="554"/>
      <point x="279" y="527"/>
      <point x="250" y="487" type="curve"/>
      <point x="250" y="590" type="line"/>
      <point x="372" y="590" type="line"/>
      <point x="372" y="696" type="line"/>
      <point x="250" y="696" type="line"/>
      <point x="250" y="764" type="line"/>
      <point x="52" y="744" type="line"/>
      <point x="52" y="696" type="line"/>
      <point x="0" y="696" type="line"/>
      <point x="0" y="590" type="line"/>
      <point x="52" y="590" type="line"/>
      <point x="52" y="0" type="line"/>
      <point x="228" y="0" type="line"/>
      <point x="235" y="46" type="line"/>
      <point x="266" y="5"/>
      <point x="314" y="-20"/>
    </contour>
    <contour>
      <point x="315" y="121" type="curve" smooth="yes"/>
      <point x="288" y="121"/>
      <point x="266" y="133"/>
      <point x="250" y="160" type="curve"/>
      <point x="250" y="362" type="line"/>
      <point x="270" y="398"/>
      <point x="295" y="412"/>
      <point x="321" y="412" type="curve" smooth="yes"/>
      <point x="356" y="412"/>
      <point x="384" y="391"/>
      <point x="384" y="266" type="curve" smooth="yes"/>
      <point x="384" y="154"/>
      <point x="355" y="121"/>
    </contour>
    <contour>
      <point x="294" y="727" type="move" name="top"/>
    </contour>
    <contour>
      <point x="289" y="0" type="move" name="bottom"/>
    </contour>
  </outline>
</glyph>
<glyph name="uni0183" format="1">
  <advance width="599"/>
  <unicode hex="0183"/>
  <outline>
    <contour>
      <point x="363" y="-20" type="curve" smooth="yes"/>
      <point x="498" y="-20"/>
      <point x="577" y="103"/>
      <point x="577" y="256" type="curve" smooth="yes"/>
      <point x="577" y="425"/>
      <point x="513" y="534"/>
      <point x="375" y="534" type="curve" smooth="yes"/>
      <point x="325" y="534"/>
      <point x="269" y="507"/>
      <point x="240" y="467" type="curve"/>
      <point x="240" y="605" type="line"/>
      <point x="434" y="605" type="line"/>
      <point x="454" y="744" type="line"/>
      <point x="42" y="744" type="line"/>
      <point x="42" y="0" type="line"/>
      <point x="218" y="0" type="line"/>
      <point x="225" y="46" type="line"/>
      <point x="256" y="5"/>
      <point x="304" y="-20"/>
    </contour>
    <contour>
      <point x="305" y="121" type="curve" smooth="yes"/>
      <point x="278" y="121"/>
      <point x="256" y="133"/>
      <point x="240" y="160" type="curve"/>
      <point x="240" y="342" type="line"/>
      <point x="260" y="378"/>
      <point x="285" y="392"/>
      <point x="311" y="392" type="curve" smooth="yes"/>
      <point x="346" y="392"/>
      <point x="374" y="371"/>
      <point x="374" y="256" type="curve" smooth="yes"/>
      <point x="374" y="154"/>
      <point x="345" y="121"/>
    </contour>
    <contour>
      <point x="284" y="727" type="move" name="top"/>
    </contour>
    <contour>
      <point x="284" y="0" type="move" name="bottom"/>
    </contour>
  </outline>
</glyph>
<glyph name="uni018C" format="1">
  <advance width="601"/>
  <unicode hex="018C"/>
  <outline>
    <contour>
      <point x="225" y="-20" type="curve" smooth="yes"/>
      <point x="302" y="-20"/>
      <point x="348" y="18"/>
      <point x="376" y="55" type="curve"/>
      <point x="383" y="0" type="line"/>
      <point x="559" y="0" type="line"/>
      <point x="559" y="744" type="line"/>
      <point x="157" y="744" type="line"/>
      <point x="157" y="605" type="line"/>
      <point x="361" y="605" type="line"/>
      <point x="361" y="492" type="line"/>
      <point x="331" y="519"/>
      <point x="290" y="534"/>
      <point x="250" y="534" type="curve" smooth="yes"/>
      <point x="108" y="534"/>
      <point x="22" y="416"/>
      <point x="22" y="260" type="curve" smooth="yes"/>
      <point x="22" y="94"/>
      <point x="86" y="-20"/>
    </contour>
    <contour>
      <point x="294" y="122" type="curve" smooth="yes"/>
      <point x="256" y="122"/>
      <point x="225" y="140"/>
      <point x="225" y="258" type="curve" smooth="yes"/>
      <point x="225" y="356"/>
      <point x="259" y="393"/>
      <point x="303" y="393" type="curve" smooth="yes"/>
      <point x="327" y="393"/>
      <point x="343" y="382"/>
      <point x="361" y="363" type="curve"/>
      <point x="361" y="169" type="line"/>
      <point x="342" y="136"/>
      <point x="319" y="122"/>
    </contour>
    <contour>
      <point x="286" y="727" type="move" name="top"/>
    </contour>
    <contour>
      <point x="286" y="0" type="move" name="bottom"/>
    </contour>
  </outline>
</glyph>
<glyph name="uni0195" format="1">
  <advance width="861"/>
  <unicode hex="0195"/>
  <outline>
    <contour>
      <point x="611" y="534" type="line"/>
      <point x="626" y="444"/>
      <point x="638" y="346"/>
      <point x="638" y="259" type="curve" smooth="yes"/>
      <point x="638" y="158"/>
      <point x="610" y="122"/>
      <point x="576" y="122" type="curve" smooth="yes"/>
      <point x="551" y="122"/>
      <point x="535" y="137"/>
      <point x="535" y="190" type="curve" smooth="yes"/>
      <point x="535" y="394" type="line" smooth="yes"/>
      <point x="535" y="496"/>
      <point x="480" y="554"/>
      <point x="391" y="554" type="curve" smooth="yes"/>
      <point x="331" y="554"/>
      <point x="286" y="534"/>
      <point x="240" y="486" type="curve"/>
      <point x="240" y="764" type="line"/>
      <point x="42" y="744" type="line"/>
      <point x="42" y="0" type="line"/>
      <point x="240" y="0" type="line"/>
      <point x="240" y="357" type="line"/>
      <point x="263" y="393"/>
      <point x="286" y="410"/>
      <point x="307" y="410" type="curve" smooth="yes"/>
      <point x="325" y="410"/>
      <point x="337" y="400"/>
      <point x="337" y="358" type="curve" smooth="yes"/>
      <point x="337" y="191" type="line" smooth="yes"/>
      <point x="337" y="39"/>
      <point x="441" y="-20"/>
      <point x="560" y="-20" type="curve" smooth="yes"/>
      <point x="697" y="-20"/>
      <point x="836" y="54"/>
      <point x="836" y="244" type="curve" smooth="yes"/>
      <point x="836" y="359"/>
      <point x="820" y="456"/>
      <point x="805" y="534" type="curve"/>
    </contour>
    <contour>
      <point x="446" y="727" type="move" name="top"/>
    </contour>
    <contour>
      <point x="446" y="0" type="move" name="bottom"/>
    </contour>
  </outline>
</glyph>
<glyph name="uni0196" format="1">
  <advance width="406"/>
  <unicode hex="0196"/>
  <outline>
    <contour>
      <point x="357" y="145" type="line"/>
      <point x="333" y="133"/>
      <point x="317" y="125"/>
      <point x="289" y="125" type="curve" smooth="yes"/>
      <point x="258" y="125"/>
      <point x="239" y="143"/>
      <point x="239" y="178" type="curve" smooth="yes"/>
      <point x="239" y="696" type="line"/>
      <point x="33" y="696" type="line"/>
      <point x="33" y="191" type="line" smooth="yes"/>
      <point x="33" y="50"/>
      <point x="126" y="-20"/>
      <point x="264" y="-20" type="curve" smooth="yes"/>
      <point x="336" y="-20"/>
      <point x="385" y="-1"/>
      <point x="421" y="25" type="curve"/>
    </contour>
    <contour>
      <point x="121" y="680" type="move" name="top"/>
    </contour>
    <contour>
      <point x="192" y="0" type="move" name="bottom"/>
    </contour>
  </outline>
</glyph>
<glyph name="uni0199" format="1">
  <advance width="576"/>
  <unicode hex="0199"/>
  <outline>
    <contour>
      <point x="240" y="0" type="line"/>
      <point x="240" y="555" type="line" smooth="yes"/>
      <point x="240" y="605"/>
      <point x="257" y="622"/>
      <point x="295" y="622" type="curve" smooth="yes"/>
      <point x="317" y="622"/>
      <point x="345" y="617"/>
      <point x="373" y="602" type="curve"/>
      <point x="425" y="727" type="line"/>
      <point x="388" y="747"/>
      <point x="326" y="764"/>
      <point x="268" y="764" type="curve" smooth="yes"/>
      <point x="115" y="764"/>
      <point x="42" y="675"/>
      <point x="42" y="565" type="curve" smooth="yes"/>
      <point x="42" y="0" type="line"/>
    </contour>
    <contour>
      <point x="591" y="0" type="line"/>
      <point x="442" y="300" type="line"/>
      <point x="583" y="534" type="line"/>
      <point x="387" y="534" type="line"/>
      <point x="244" y="292" type="line"/>
      <point x="372" y="0" type="line"/>
    </contour>
  </outline>
</glyph>
<glyph name="uni019C" format="1">
  <advance width="904"/>
  <unicode hex="019C"/>
  <outline>
    <contour>
      <point x="200" y="-20" type="curve" smooth="yes"/>
      <point x="267" y="-20"/>
      <point x="313" y="6"/>
      <point x="366" y="68" type="curve"/>
      <point x="393" y="11"/>
      <point x="443" y="-20"/>
      <point x="511" y="-20" type="curve" smooth="yes"/>
      <point x="573" y="-20"/>
      <point x="617" y="3"/>
      <point x="666" y="55" type="curve"/>
      <point x="680" y="0" type="line"/>
      <point x="861" y="0" type="line"/>
      <point x="861" y="696" type="line"/>
      <point x="655" y="696" type="line"/>
      <point x="655" y="182" type="line"/>
      <point x="632" y="146"/>
      <point x="613" y="129"/>
      <point x="588" y="129" type="curve" smooth="yes"/>
      <point x="564" y="129"/>
      <point x="550" y="149"/>
      <point x="550" y="181" type="curve" smooth="yes"/>
      <point x="550" y="696" type="line"/>
      <point x="344" y="696" type="line"/>
      <point x="344" y="185" type="line" smooth="yes"/>
      <point x="344" y="184"/>
      <point x="344" y="183"/>
      <point x="344" y="182" type="curve"/>
      <point x="321" y="156"/>
      <point x="301" y="129"/>
      <point x="278" y="129" type="curve" smooth="yes"/>
      <point x="253" y="129"/>
      <point x="239" y="149"/>
      <point x="239" y="181" type="curve" smooth="yes"/>
      <point x="239" y="696" type="line"/>
      <point x="33" y="696" type="line"/>
      <point x="33" y="170" type="line" smooth="yes"/>
      <point x="33" y="58"/>
      <point x="95" y="-20"/>
    </contour>
    <contour>
      <point x="459" y="680" type="move" name="top"/>
    </contour>
    <contour>
      <point x="459" y="0" type="move" name="bottom"/>
    </contour>
  </outline>
</glyph>
<glyph name="uni019D" format="1">
  <advance width="651"/>
  <unicode hex="019D"/>
  <outline>
    <contour>
      <point x="16" y="-227" type="curve" smooth="yes"/>
      <point x="140" y="-227"/>
      <point x="225" y="-157"/>
      <point x="225" y="-16" type="curve" smooth="yes"/>
      <point x="225" y="216" type="line"/>
      <point x="225" y="345"/>
      <point x="208" y="441"/>
      <point x="198" y="508" type="curve"/>
      <point x="350" y="0" type="line"/>
      <point x="608" y="0" type="line"/>
      <point x="608" y="696" type="line"/>
      <point x="426" y="696" type="line"/>
      <point x="426" y="473" type="line"/>
      <point x="426" y="347"/>
      <point x="441" y="267"/>
      <point x="454" y="186" type="curve"/>
      <point x="296" y="696" type="line"/>
      <point x="43" y="696" type="line"/>
      <point x="43" y="-34" type="line" smooth="yes"/>
      <point x="43" y="-69"/>
      <point x="24" y="-87"/>
      <point x="-9" y="-87" type="curve" smooth="yes"/>
      <point x="-37" y="-87"/>
      <point x="-53" y="-79"/>
      <point x="-77" y="-67" type="curve"/>
      <point x="-141" y="-182" type="line"/>
      <point x="-105" y="-208"/>
      <point x="-56" y="-227"/>
    </contour>
    <contour>
      <point x="331" y="680" type="move" name="top"/>
    </contour>
    <contour>
      <point x="321" y="0" type="move" name="bottom"/>
    </contour>
  </outline>
</glyph>
<glyph name="uni019E" format="1">
  <advance width="572"/>
  <unicode hex="019E"/>
  <outline>
    <contour>
      <point x="391" y="554" type="curve" smooth="yes"/>
      <point x="327" y="554"/>
      <point x="278" y="531"/>
      <point x="229" y="479" type="curve"/>
      <point x="215" y="534" type="line"/>
      <point x="42" y="534" type="line"/>
      <point x="42" y="0" type="line"/>
      <point x="240" y="0" type="line"/>
      <point x="240" y="357" type="line"/>
      <point x="263" y="393"/>
      <point x="286" y="410"/>
      <point x="307" y="410" type="curve" smooth="yes"/>
      <point x="325" y="410"/>
      <point x="337" y="400"/>
      <point x="337" y="358" type="curve" smooth="yes"/>
      <point x="337" y="-207" type="line"/>
      <point x="535" y="-227" type="line"/>
      <point x="535" y="394" type="line" smooth="yes"/>
      <point x="535" y="496"/>
      <point x="480" y="554"/>
    </contour>
    <contour>
      <point x="295" y="517" type="move" name="top"/>
    </contour>
    <contour>
      <point x="287" y="0" type="move" name="bottom"/>
    </contour>
    <contour>
      <point x="115" y="517" type="move" name="topleft"/>
    </contour>
  </outline>
</glyph>
<glyph name="uni01A2" format="1">
  <advance width="981"/>
  <unicode hex="01A2"/>
  <outline>
    <contour>
      <point x="938" y="-215" type="line"/>
      <point x="938" y="505" type="line" smooth="yes"/>
      <point x="938" y="646"/>
      <point x="845" y="716"/>
      <point x="710" y="716" type="curve" smooth="yes"/>
      <point x="640" y="716"/>
      <point x="582" y="695"/>
      <point x="533" y="662" type="curve"/>
      <point x="482" y="697"/>
      <point x="418" y="716"/>
      <point x="345" y="716" type="curve" smooth="yes"/>
      <point x="136" y="716"/>
      <point x="20" y="575"/>
      <point x="20" y="349" type="curve" smooth="yes"/>
      <point x="20" y="118"/>
      <point x="136" y="-20"/>
      <point x="345" y="-20" type="curve" smooth="yes"/>
      <point x="554" y="-20"/>
      <point x="670" y="123"/>
      <point x="670" y="349" type="curve" smooth="yes"/>
      <point x="670" y="434"/>
      <point x="653" y="506"/>
      <point x="621" y="563" type="curve"/>
      <point x="640" y="572"/>
      <point x="656" y="576"/>
      <point x="680" y="576" type="curve" smooth="yes"/>
      <point x="713" y="576"/>
      <point x="732" y="558"/>
      <point x="732" y="513" type="curve" smooth="yes"/>
      <point x="732" y="-215" type="line"/>
    </contour>
    <contour>
      <point x="345" y="126" type="curve" smooth="yes"/>
      <point x="267" y="126"/>
      <point x="234" y="188"/>
      <point x="234" y="349" type="curve" smooth="yes"/>
      <point x="234" y="510"/>
      <point x="267" y="570"/>
      <point x="345" y="570" type="curve" smooth="yes"/>
      <point x="423" y="570"/>
      <point x="456" y="510"/>
      <point x="456" y="349" type="curve" smooth="yes"/>
      <point x="456" y="188"/>
      <point x="425" y="126"/>
    </contour>
    <contour>
      <point x="437" y="680" type="move" name="top"/>
    </contour>
    <contour>
      <point x="437" y="-188" type="move" name="bottom"/>
    </contour>
  </outline>
</glyph>
<glyph name="uni01A5" format="1">
  <advance width="599"/>
  <unicode hex="01A5"/>
  <outline>
    <contour>
      <point x="373" y="554" type="curve" smooth="yes"/>
      <point x="334" y="554"/>
      <point x="284" y="540"/>
      <point x="240" y="492" type="curve"/>
      <point x="240" y="555" type="line" smooth="yes"/>
      <point x="240" y="605"/>
      <point x="257" y="622"/>
      <point x="295" y="622" type="curve" smooth="yes"/>
      <point x="317" y="622"/>
      <point x="345" y="617"/>
      <point x="373" y="602" type="curve"/>
      <point x="425" y="727" type="line"/>
      <point x="388" y="747"/>
      <point x="326" y="764"/>
      <point x="268" y="764" type="curve" smooth="yes"/>
      <point x="115" y="764"/>
      <point x="42" y="675"/>
      <point x="42" y="565" type="curve" smooth="yes"/>
      <point x="42" y="-227" type="line"/>
      <point x="240" y="-207" type="line"/>
      <point x="240" y="33" type="line"/>
      <point x="272" y="-2"/>
      <point x="314" y="-20"/>
      <point x="364" y="-20" type="curve" smooth="yes"/>
      <point x="492" y="-20"/>
      <point x="577" y="103"/>
      <point x="577" y="269" type="curve" smooth="yes"/>
      <point x="577" y="445"/>
      <point x="513" y="554"/>
    </contour>
    <contour>
      <point x="299" y="121" type="curve" smooth="yes"/>
      <point x="275" y="121"/>
      <point x="258" y="131"/>
      <point x="240" y="158" type="curve"/>
      <point x="240" y="362" type="line"/>
      <point x="260" y="398"/>
      <point x="284" y="412"/>
      <point x="306" y="412" type="curve" smooth="yes"/>
      <point x="346" y="412"/>
      <point x="374" y="395"/>
      <point x="374" y="266" type="curve" smooth="yes"/>
      <point x="374" y="158"/>
      <point x="343" y="121"/>
    </contour>
    <contour>
      <point x="284" y="727" type="move" name="top"/>
    </contour>
    <contour>
      <point x="284" y="-188" type="move" name="bottom"/>
    </contour>
  </outline>
</glyph>
<glyph name="uni01A6" format="1">
  <advance width="624"/>
  <unicode hex="01A6"/>
  <outline>
    <contour>
      <point x="644" y="-110" type="line"/>
      <point x="474" y="176" type="line"/>
      <point x="559" y="225"/>
      <point x="597" y="277"/>
      <point x="597" y="365" type="curve" smooth="yes"/>
      <point x="597" y="518"/>
      <point x="497" y="586"/>
      <point x="298" y="586" type="curve" smooth="yes"/>
      <point x="249" y="586" type="line"/>
      <point x="249" y="696" type="line"/>
      <point x="43" y="696" type="line"/>
      <point x="43" y="0" type="line"/>
      <point x="249" y="0" type="line"/>
      <point x="249" y="138" type="line"/>
      <point x="287" y="138" type="line"/>
      <point x="416" y="-110" type="line"/>
    </contour>
    <contour>
      <point x="249" y="445" type="line"/>
      <point x="293" y="445" type="line" smooth="yes"/>
      <point x="354" y="445"/>
      <point x="387" y="420"/>
      <point x="387" y="365" type="curve" smooth="yes"/>
      <point x="387" y="304"/>
      <point x="359" y="276"/>
      <point x="303" y="276" type="curve" smooth="yes"/>
      <point x="249" y="276" type="line"/>
    </contour>
    <contour>
      <point x="281" y="680" type="move" name="top"/>
    </contour>
    <contour>
      <point x="281" y="-188" type="move" name="bottom"/>
    </contour>
  </outline>
</glyph>
<glyph name="uni01AA" format="1">
  <advance width="488"/>
  <unicode hex="01AA"/>
  <outline>
    <contour>
      <point x="446" y="-227" type="curve" smooth="yes"/>
      <point x="517" y="-227"/>
      <point x="566" y="-208"/>
      <point x="602" y="-182" type="curve"/>
      <point x="538" y="-67" type="line"/>
      <point x="514" y="-79"/>
      <point x="498" y="-87"/>
      <point x="470" y="-87" type="curve" smooth="yes"/>
      <point x="437" y="-87"/>
      <point x="418" y="-69"/>
      <point x="418" y="-34" type="curve" smooth="yes"/>
      <point x="418" y="555" type="line" smooth="yes"/>
      <point x="418" y="675"/>
      <point x="339" y="764"/>
      <point x="193" y="764" type="curve" smooth="yes"/>
      <point x="56" y="764"/>
      <point x="-20" y="680"/>
      <point x="-20" y="572" type="curve" smooth="yes"/>
      <point x="-20" y="462"/>
      <point x="51" y="383"/>
      <point x="158" y="383" type="curve" smooth="yes"/>
      <point x="182" y="383"/>
      <point x="202" y="388"/>
      <point x="220" y="395" type="curve"/>
      <point x="220" y="-16" type="line" smooth="yes"/>
      <point x="220" y="-157"/>
      <point x="311" y="-227"/>
    </contour>
    <contour>
      <point x="192" y="515" type="curve" smooth="yes"/>
      <point x="161" y="515"/>
      <point x="144" y="532"/>
      <point x="144" y="575" type="curve" smooth="yes"/>
      <point x="144" y="614"/>
      <point x="158" y="632"/>
      <point x="184" y="632" type="curve" smooth="yes"/>
      <point x="209" y="632"/>
      <point x="220" y="616"/>
      <point x="220" y="586" type="curve" smooth="yes"/>
      <point x="220" y="518" type="line"/>
      <point x="211" y="516"/>
      <point x="202" y="515"/>
    </contour>
    <contour>
      <point x="128" y="727" type="move" name="top"/>
    </contour>
    <contour>
      <point x="128" y="-188" type="move" name="bottom"/>
    </contour>
  </outline>
</glyph>
<glyph name="uni01B5" format="1">
  <advance width="557"/>
  <unicode hex="01B5"/>
  <outline>
    <contour>
      <point x="522" y="0" type="line"/>
      <point x="542" y="161" type="line"/>
      <point x="236" y="161" type="line"/>
      <point x="331" y="287" type="line"/>
      <point x="488" y="287" type="line"/>
      <point x="488" y="407" type="line"/>
      <point x="422" y="407" type="line"/>
      <point x="533" y="553" type="line"/>
      <point x="533" y="696" type="line"/>
      <point x="38" y="696" type="line"/>
      <point x="38" y="540" type="line"/>
      <point x="316" y="540" type="line"/>
      <point x="214" y="407" type="line"/>
      <point x="46" y="407" type="line"/>
      <point x="46" y="287" type="line"/>
      <point x="122" y="287" type="line"/>
      <point x="10" y="141" type="line"/>
      <point x="10" y="0" type="line"/>
    </contour>
    <contour>
      <point x="252" y="680" type="move" name="top"/>
    </contour>
    <contour>
      <point x="252" y="0" type="move" name="bottom"/>
    </contour>
  </outline>
</glyph>
<glyph name="uni01E5" format="1">
  <advance width="570"/>
  <unicode hex="01E5"/>
  <outline>
    <contour>
      <point x="266" y="-227" type="curve" smooth="yes"/>
      <point x="434" y="-227"/>
      <point x="534" y="-172"/>
      <point x="557" y="-83" type="curve"/>
      <point x="610" y="-83" type="line"/>
      <point x="610" y="-23" type="line"/>
      <point x="561" y="-23" type="line"/>
      <point x="551" y="64"/>
      <point x="470" y="122"/>
      <point x="345" y="122" type="curve" smooth="yes"/>
      <point x="268" y="122" type="line" smooth="yes"/>
      <point x="219" y="122"/>
      <point x="216" y="132"/>
      <point x="216" y="142" type="curve" smooth="yes"/>
      <point x="216" y="150"/>
      <point x="220" y="157"/>
      <point x="228" y="161" type="curve"/>
      <point x="246" y="158"/>
      <point x="264" y="158"/>
      <point x="285" y="158" type="curve" smooth="yes"/>
      <point x="431" y="158"/>
      <point x="522" y="233"/>
      <point x="522" y="334" type="curve" smooth="yes"/>
      <point x="522" y="408"/>
      <point x="488" y="445"/>
      <point x="418" y="474" type="curve"/>
      <point x="488" y="474"/>
      <point x="537" y="483"/>
      <point x="570" y="498" type="curve"/>
      <point x="527" y="636" type="line"/>
      <point x="461" y="591"/>
      <point x="382" y="550"/>
      <point x="271" y="554" type="curve" smooth="yes"/>
      <point x="119" y="554"/>
      <point x="20" y="481"/>
      <point x="20" y="353" type="curve" smooth="yes"/>
      <point x="20" y="284"/>
      <point x="47" y="236"/>
      <point x="120" y="197" type="curve"/>
      <point x="81" y="174"/>
      <point x="52" y="141"/>
      <point x="52" y="99" type="curve" smooth="yes"/>
      <point x="52" y="47"/>
      <point x="102" y="3"/>
      <point x="232" y="3" type="curve" smooth="yes"/>
      <point x="306" y="3" type="line" smooth="yes"/>
      <point x="345" y="3"/>
      <point x="373" y="-5"/>
      <point x="385" y="-23" type="curve"/>
      <point x="270" y="-23" type="line"/>
      <point x="270" y="-83" type="line"/>
      <point x="383" y="-83" type="line"/>
      <point x="368" y="-103"/>
      <point x="334" y="-112"/>
      <point x="272" y="-112" type="curve" smooth="yes"/>
      <point x="188" y="-112"/>
      <point x="172" y="-98"/>
      <point x="172" y="-49" type="curve"/>
      <point x="-5" y="-49" type="line"/>
      <point x="-5" y="-153"/>
      <point x="47" y="-227"/>
    </contour>
    <contour>
      <point x="277" y="284" type="curve" smooth="yes"/>
      <point x="243" y="284"/>
      <point x="216" y="306"/>
      <point x="216" y="357" type="curve" smooth="yes"/>
      <point x="216" y="403"/>
      <point x="242" y="426"/>
      <point x="277" y="426" type="curve" smooth="yes"/>
      <point x="318" y="426"/>
      <point x="338" y="407"/>
      <point x="338" y="360" type="curve" smooth="yes"/>
      <point x="338" y="308"/>
      <point x="317" y="284"/>
    </contour>
    <contour>
      <point x="244" y="517" type="move" name="top"/>
    </contour>
    <contour>
      <point x="244" y="-188" type="move" name="bottom"/>
    </contour>
  </outline>
</glyph>
<glyph name="uni01F7" format="1">
  <advance width="611"/>
  <unicode hex="01F7"/>
  <outline>
    <contour>
      <point x="249" y="0" type="line"/>
      <point x="249" y="203" type="line"/>
      <point x="317" y="227" type="line" smooth="yes"/>
      <point x="473" y="283"/>
      <point x="596" y="349"/>
      <point x="596" y="521" type="curve" smooth="yes"/>
      <point x="596" y="638"/>
      <point x="511" y="716"/>
      <point x="406" y="716" type="curve" smooth="yes"/>
      <point x="342" y="716"/>
      <point x="287" y="696"/>
      <point x="249" y="658" type="curve"/>
      <point x="249" y="696" type="line"/>
      <point x="43" y="696" type="line"/>
      <point x="43" y="0" type="line"/>
    </contour>
    <contour>
      <point x="249" y="546" type="line"/>
      <point x="270" y="562"/>
      <point x="295" y="573"/>
      <point x="324" y="573" type="curve" smooth="yes"/>
      <point x="361" y="573"/>
      <point x="386" y="550"/>
      <point x="386" y="506" type="curve" smooth="yes"/>
      <point x="386" y="442"/>
      <point x="357" y="390"/>
      <point x="265" y="347" type="curve" smooth="yes"/>
      <point x="249" y="340" type="line"/>
    </contour>
    <contour>
      <point x="276" y="680" type="move" name="top"/>
    </contour>
    <contour>
      <point x="276" y="0" type="move" name="bottom"/>
    </contour>
  </outline>
</glyph>
<glyph name="uni0220" format="1">
  <advance width="643"/>
  <unicode hex="0220"/>
  <outline>
    <contour>
      <point x="605" y="-215" type="line"/>
      <point x="605" y="536" type="line" smooth="yes"/>
      <point x="605" y="638"/>
      <point x="547" y="716"/>
      <point x="428" y="716" type="curve" smooth="yes"/>
      <point x="346" y="716"/>
      <point x="296" y="693"/>
      <point x="238" y="639" type="curve"/>
      <point x="224" y="696" type="line"/>
      <point x="43" y="696" type="line"/>
      <point x="43" y="0" type="line"/>
      <point x="249" y="0" type="line"/>
      <point x="249" y="514" type="line"/>
      <point x="282" y="550"/>
      <point x="310" y="567"/>
      <point x="349" y="567" type="curve" smooth="yes"/>
      <point x="385" y="567"/>
      <point x="399" y="547"/>
      <point x="399" y="505" type="curve" smooth="yes"/>
      <point x="399" y="-215" type="line"/>
    </contour>
    <contour>
      <point x="320" y="680" type="move" name="top"/>
    </contour>
    <contour>
      <point x="320" y="-188" type="move" name="bottom"/>
    </contour>
  </outline>
</glyph>
<glyph name="uni0222" format="1">
  <advance width="650"/>
  <unicode hex="0222"/>
  <outline>
    <contour>
      <point x="325" y="-20" type="curve" smooth="yes"/>
      <point x="514" y="-20"/>
      <point x="630" y="91"/>
      <point x="630" y="223" type="curve" smooth="yes"/>
      <point x="630" y="313"/>
      <point x="584" y="373"/>
      <point x="503" y="406" type="curve"/>
      <point x="560" y="437"/>
      <point x="592" y="488"/>
      <point x="592" y="554" type="curve" smooth="yes"/>
      <point x="592" y="696" type="line"/>
      <point x="386" y="696" type="line"/>
      <point x="386" y="540" type="line" smooth="yes"/>
      <point x="386" y="494"/>
      <point x="375" y="466"/>
      <point x="325" y="466" type="curve" smooth="yes"/>
      <point x="275" y="466"/>
      <point x="264" y="493"/>
      <point x="264" y="540" type="curve" smooth="yes"/>
      <point x="264" y="696" type="line"/>
      <point x="58" y="696" type="line"/>
      <point x="58" y="554" type="line" smooth="yes"/>
      <point x="58" y="483"/>
      <point x="89" y="434"/>
      <point x="146" y="404" type="curve"/>
      <point x="65" y="370"/>
      <point x="20" y="309"/>
      <point x="20" y="223" type="curve" smooth="yes"/>
      <point x="20" y="86"/>
      <point x="136" y="-20"/>
    </contour>
    <contour>
      <point x="325" y="126" type="curve" smooth="yes"/>
      <point x="267" y="126"/>
      <point x="234" y="166"/>
      <point x="234" y="226" type="curve" smooth="yes"/>
      <point x="234" y="286"/>
      <point x="267" y="328"/>
      <point x="325" y="328" type="curve" smooth="yes"/>
      <point x="383" y="328"/>
      <point x="416" y="286"/>
      <point x="416" y="226" type="curve" smooth="yes"/>
      <point x="416" y="166"/>
      <point x="385" y="126"/>
    </contour>
    <contour>
      <point x="314" y="680" type="move" name="top"/>
    </contour>
    <contour>
      <point x="314" y="0" type="move" name="bottom"/>
    </contour>
  </outline>
</glyph>
<glyph name="uni0237" format="1">
  <advance width="282"/>
  <unicode hex="0237"/>
  <outline>
    <contour>
      <point x="42" y="534" type="line"/>
      <point x="42" y="65" type="line" smooth="yes"/>
      <point x="42" y="-22"/>
      <point x="-3" y="-52"/>
      <point x="-70" y="-83" type="curve"/>
      <point x="-2" y="-227" type="line"/>
      <point x="130" y="-184"/>
      <point x="240" y="-111"/>
      <point x="240" y="77" type="curve" smooth="yes"/>
      <point x="240" y="534" type="line"/>
    </contour>
    <contour>
      <point x="126" y="517" type="move" name="top"/>
    </contour>
    <contour>
      <point x="126" y="-188" type="move" name="bottom"/>
    </contour>
  </outline>
</glyph>
<glyph name="uni0238" format="1">
  <advance width="878"/>
  <unicode hex="0238"/>
  <outline>
    <contour>
      <point x="215" y="-20" type="curve" smooth="yes"/>
      <point x="282" y="-20"/>
      <point x="327" y="17"/>
      <point x="355" y="55" type="curve"/>
      <point x="363" y="0" type="line"/>
      <point x="517" y="0" type="line"/>
      <point x="525" y="52" type="line"/>
      <point x="555" y="5"/>
      <point x="602" y="-20"/>
      <point x="652" y="-20" type="curve" smooth="yes"/>
      <point x="776" y="-20"/>
      <point x="856" y="103"/>
      <point x="856" y="266" type="curve" smooth="yes"/>
      <point x="856" y="445"/>
      <point x="792" y="554"/>
      <point x="674" y="554" type="curve" smooth="yes"/>
      <point x="618" y="554"/>
      <point x="569" y="526"/>
      <point x="539" y="486" type="curve"/>
      <point x="539" y="764" type="line"/>
      <point x="341" y="744" type="line"/>
      <point x="341" y="497" type="line"/>
      <point x="311" y="537"/>
      <point x="270" y="554"/>
      <point x="230" y="554" type="curve" smooth="yes"/>
      <point x="108" y="554"/>
      <point x="22" y="436"/>
      <point x="22" y="270" type="curve" smooth="yes"/>
      <point x="22" y="94"/>
      <point x="87" y="-20"/>
    </contour>
    <contour>
      <point x="284" y="122" type="curve" smooth="yes"/>
      <point x="256" y="122"/>
      <point x="225" y="140"/>
      <point x="225" y="268" type="curve" smooth="yes"/>
      <point x="225" y="376"/>
      <point x="254" y="413"/>
      <point x="288" y="413" type="curve" smooth="yes"/>
      <point x="308" y="413"/>
      <point x="325" y="401"/>
      <point x="341" y="379" type="curve"/>
      <point x="341" y="169" type="line"/>
      <point x="322" y="136"/>
      <point x="300" y="122"/>
    </contour>
    <contour>
      <point x="594" y="121" type="curve" smooth="yes"/>
      <point x="575" y="121"/>
      <point x="555" y="137"/>
      <point x="539" y="164" type="curve"/>
      <point x="539" y="369" type="line"/>
      <point x="557" y="397"/>
      <point x="577" y="412"/>
      <point x="599" y="412" type="curve" smooth="yes"/>
      <point x="625" y="412"/>
      <point x="653" y="391"/>
      <point x="653" y="266" type="curve" smooth="yes"/>
      <point x="653" y="154"/>
      <point x="624" y="121"/>
    </contour>
    <contour>
      <point x="424" y="727" type="move" name="top"/>
    </contour>
    <contour>
      <point x="424" y="0" type="move" name="bottom"/>
    </contour>
  </outline>
</glyph>
<glyph name="uni0239" format="1">
  <advance width="873"/>
  <unicode hex="0239"/>
  <outline>
    <contour>
      <point x="662" y="554" type="curve" smooth="yes"/>
      <point x="605" y="554"/>
      <point x="563" y="537"/>
      <point x="520" y="482" type="curve"/>
      <point x="512" y="534" type="line"/>
      <point x="359" y="534" type="line"/>
      <point x="352" y="485" type="line"/>
      <point x="315" y="534"/>
      <point x="272" y="554"/>
      <point x="227" y="554" type="curve" smooth="yes"/>
      <point x="103" y="554"/>
      <point x="17" y="436"/>
      <point x="17" y="270" type="curve" smooth="yes"/>
      <point x="17" y="94"/>
      <point x="81" y="-20"/>
      <point x="213" y="-20" type="curve" smooth="yes"/>
      <point x="268" y="-20"/>
      <point x="308" y="7"/>
      <point x="336" y="40" type="curve"/>
      <point x="336" y="-227" type="line"/>
      <point x="534" y="-207" type="line"/>
      <point x="534" y="46" type="line"/>
      <point x="561" y="4"/>
      <point x="608" y="-20"/>
      <point x="648" y="-20" type="curve" smooth="yes"/>
      <point x="766" y="-20"/>
      <point x="851" y="103"/>
      <point x="851" y="269" type="curve" smooth="yes"/>
      <point x="851" y="445"/>
      <point x="787" y="554"/>
    </contour>
    <contour>
      <point x="276" y="122" type="curve" smooth="yes"/>
      <point x="251" y="122"/>
      <point x="220" y="140"/>
      <point x="220" y="268" type="curve" smooth="yes"/>
      <point x="220" y="376"/>
      <point x="248" y="413"/>
      <point x="282" y="413" type="curve" smooth="yes"/>
      <point x="303" y="413"/>
      <point x="318" y="402"/>
      <point x="336" y="372" type="curve"/>
      <point x="336" y="169" type="line"/>
      <point x="317" y="136"/>
      <point x="295" y="122"/>
    </contour>
    <contour>
      <point x="590" y="121" type="curve" smooth="yes"/>
      <point x="569" y="121"/>
      <point x="552" y="133"/>
      <point x="534" y="164" type="curve"/>
      <point x="534" y="368" type="line"/>
      <point x="554" y="398"/>
      <point x="578" y="412"/>
      <point x="596" y="412" type="curve" smooth="yes"/>
      <point x="626" y="412"/>
      <point x="648" y="395"/>
      <point x="648" y="266" type="curve" smooth="yes"/>
      <point x="648" y="158"/>
      <point x="617" y="121"/>
    </contour>
    <contour>
      <point x="421" y="517" type="move" name="top"/>
    </contour>
    <contour>
      <point x="421" y="-188" type="move" name="bottom"/>
    </contour>
  </outline>
</glyph>
<glyph name="uni023B" format="1">
  <advance width="584"/>
  <unicode hex="023B"/>
  <outline>
    <contour>
      <point x="494" y="193" type="line"/>
      <point x="453" y="161"/>
      <point x="415" y="135"/>
      <point x="366" y="135" type="curve" smooth="yes"/>
      <point x="350" y="135"/>
      <point x="335" y="138"/>
      <point x="322" y="143" type="curve"/>
      <point x="430" y="552" type="line"/>
      <point x="447" y="544"/>
      <point x="463" y="533"/>
      <point x="478" y="519" type="curve"/>
      <point x="576" y="634" type="line"/>
      <point x="544" y="661"/>
      <point x="509" y="683"/>
      <point x="468" y="697" type="curve"/>
      <point x="480" y="744" type="line"/>
      <point x="415" y="759" type="line"/>
      <point x="403" y="712" type="line"/>
      <point x="385" y="715"/>
      <point x="367" y="716"/>
      <point x="348" y="716" type="curve" smooth="yes"/>
      <point x="156" y="716"/>
      <point x="20" y="582"/>
      <point x="20" y="350" type="curve" smooth="yes"/>
      <point x="20" y="170"/>
      <point x="93" y="52"/>
      <point x="215" y="4" type="curve"/>
      <point x="198" y="-62" type="line"/>
      <point x="264" y="-77" type="line"/>
      <point x="281" y="-14" type="line"/>
      <point x="304" y="-18"/>
      <point x="328" y="-20"/>
      <point x="354" y="-20" type="curve" smooth="yes"/>
      <point x="452" y="-20"/>
      <point x="533" y="26"/>
      <point x="584" y="77" type="curve"/>
    </contour>
    <contour>
      <point x="234" y="350" type="curve" smooth="yes"/>
      <point x="234" y="497"/>
      <point x="282" y="568"/>
      <point x="360" y="568" type="curve" smooth="yes"/>
      <point x="362" y="568"/>
      <point x="363" y="568"/>
      <point x="365" y="568" type="curve"/>
      <point x="265" y="193" type="line"/>
      <point x="245" y="228"/>
      <point x="234" y="280"/>
    </contour>
    <contour>
      <point x="323" y="341" type="move" name="center"/>
    </contour>
    <contour>
      <point x="265" y="0" type="move" name="bottom"/>
    </contour>
    <contour>
      <point x="265" y="680" type="move" name="top"/>
    </contour>
  </outline>
</glyph>
<glyph name="uni023C" format="1">
  <advance width="479"/>
  <unicode hex="023C"/>
  <outline>
    <contour>
      <point x="182" y="-62" type="line"/>
      <point x="245" y="-77" type="line"/>
      <point x="420" y="589" type="line"/>
      <point x="358" y="604" type="line"/>
    </contour>
    <contour>
      <point x="295" y="554" type="curve" smooth="yes"/>
      <point x="126" y="554"/>
      <point x="17" y="432"/>
      <point x="17" y="263" type="curve" smooth="yes"/>
      <point x="17" y="96"/>
      <point x="124" y="-20"/>
      <point x="300" y="-20" type="curve" smooth="yes"/>
      <point x="380" y="-20"/>
      <point x="440" y="6"/>
      <point x="489" y="46" type="curve"/>
      <point x="404" y="167" type="line"/>
      <point x="367" y="144"/>
      <point x="344" y="133"/>
      <point x="311" y="133" type="curve" smooth="yes"/>
      <point x="260" y="133"/>
      <point x="223" y="156"/>
      <point x="223" y="263" type="curve" smooth="yes"/>
      <point x="223" y="371"/>
      <point x="255" y="405"/>
      <point x="313" y="405" type="curve" smooth="yes"/>
      <point x="345" y="405"/>
      <point x="375" y="394"/>
      <point x="407" y="368" type="curve"/>
      <point x="489" y="483" type="line"/>
      <point x="438" y="528"/>
      <point x="377" y="554"/>
    </contour>
    <contour>
      <point x="269" y="517" type="move" name="top"/>
    </contour>
    <contour>
      <point x="285" y="-1" type="move" name="bottom"/>
    </contour>
  </outline>
</glyph>
<glyph name="uni0243" format="1">
  <advance width="638"/>
  <unicode hex="0243"/>
  <outline>
    <contour>
      <point x="303" y="0" type="line" smooth="yes"/>
      <point x="486" y="0"/>
      <point x="623" y="41"/>
      <point x="623" y="206" type="curve" smooth="yes"/>
      <point x="623" y="315"/>
      <point x="544" y="353"/>
      <point x="468" y="369" type="curve"/>
      <point x="530" y="385"/>
      <point x="594" y="426"/>
      <point x="594" y="516" type="curve" smooth="yes"/>
      <point x="594" y="652"/>
      <point x="471" y="696"/>
      <point x="276" y="696" type="curve" smooth="yes"/>
      <point x="59" y="696" type="line"/>
      <point x="59" y="266" type="line"/>
      <point x="10" y="266" type="line"/>
      <point x="10" y="180" type="line"/>
      <point x="59" y="180" type="line"/>
      <point x="59" y="0" type="line"/>
    </contour>
    <contour>
      <point x="265" y="180" type="line"/>
      <point x="355" y="180" type="line"/>
      <point x="355" y="266" type="line"/>
      <point x="265" y="266" type="line"/>
      <point x="265" y="297" type="line"/>
      <point x="313" y="297" type="line" smooth="yes"/>
      <point x="377" y="297"/>
      <point x="411" y="274"/>
      <point x="411" y="220" type="curve" smooth="yes"/>
      <point x="411" y="158"/>
      <point x="368" y="145"/>
      <point x="305" y="145" type="curve" smooth="yes"/>
      <point x="265" y="145" type="line"/>
    </contour>
    <contour>
      <point x="265" y="555" type="line"/>
      <point x="295" y="555" type="line" smooth="yes"/>
      <point x="361" y="555"/>
      <point x="385" y="536"/>
      <point x="385" y="495" type="curve" smooth="yes"/>
      <point x="385" y="446"/>
      <point x="363" y="427"/>
      <point x="300" y="427" type="curve" smooth="yes"/>
      <point x="265" y="427" type="line"/>
    </contour>
    <contour>
      <point x="275" y="680" type="move" name="top"/>
    </contour>
    <contour>
      <point x="304" y="0" type="move" name="bottom"/>
    </contour>
  </outline>
</glyph>
<glyph name="uni0244" format="1">
  <advance width="676"/>
  <unicode hex="0244"/>
  <outline>
    <contour>
      <point x="338" y="-20" type="curve" smooth="yes"/>
      <point x="534" y="-20"/>
      <point x="627" y="94"/>
      <point x="627" y="236" type="curve" smooth="yes"/>
      <point x="627" y="495" type="line"/>
      <point x="676" y="495" type="line"/>
      <point x="676" y="601" type="line"/>
      <point x="627" y="601" type="line"/>
      <point x="627" y="696" type="line"/>
      <point x="421" y="696" type="line"/>
      <point x="421" y="601" type="line"/>
      <point x="255" y="601" type="line"/>
      <point x="255" y="696" type="line"/>
      <point x="49" y="696" type="line"/>
      <point x="49" y="601" type="line"/>
      <point x="0" y="601" type="line"/>
      <point x="0" y="495" type="line"/>
      <point x="49" y="495" type="line"/>
      <point x="49" y="236" type="line" smooth="yes"/>
      <point x="49" y="84"/>
      <point x="142" y="-20"/>
    </contour>
    <contour>
      <point x="338" y="128" type="curve" smooth="yes"/>
      <point x="278" y="128"/>
      <point x="255" y="165"/>
      <point x="255" y="242" type="curve" smooth="yes"/>
      <point x="255" y="495" type="line"/>
      <point x="421" y="495" type="line"/>
      <point x="421" y="242" type="line" smooth="yes"/>
      <point x="421" y="165"/>
      <point x="398" y="128"/>
    </contour>
    <contour>
      <point x="415" y="0" type="move" name="ogonek"/>
    </contour>
    <contour>
      <point x="335" y="680" type="move" name="top"/>
    </contour>
    <contour>
      <point x="542" y="680" type="move" name="topright"/>
    </contour>
    <contour>
      <point x="335" y="0" type="move" name="bottom"/>
    </contour>
  </outline>
</glyph>
<glyph name="uni0246" format="1">
  <advance width="520"/>
  <unicode hex="0246"/>
  <outline>
    <contour>
      <point x="188" y="-62" type="line"/>
      <point x="254" y="-77" type="line"/>
      <point x="470" y="744" type="line"/>
      <point x="405" y="759" type="line"/>
    </contour>
    <contour>
      <point x="43" y="696" type="line"/>
      <point x="43" y="0" type="line"/>
      <point x="495" y="0" type="line"/>
      <point x="495" y="144" type="line"/>
      <point x="249" y="144" type="line"/>
      <point x="249" y="284" type="line"/>
      <point x="451" y="284" type="line"/>
      <point x="451" y="423" type="line"/>
      <point x="249" y="423" type="line"/>
      <point x="249" y="553" type="line"/>
      <point x="479" y="553" type="line"/>
      <point x="500" y="696" type="line"/>
    </contour>
    <contour>
      <point x="425" y="0" type="move" name="ogonek"/>
    </contour>
    <contour>
      <point x="248" y="680" type="move" name="top"/>
    </contour>
    <contour>
      <point x="80" y="680" type="move" name="topleft"/>
    </contour>
    <contour>
      <point x="248" y="0" type="move" name="bottom"/>
    </contour>
  </outline>
</glyph>
<glyph name="uni0247" format="1">
  <advance width="557"/>
  <unicode hex="0247"/>
  <outline>
    <contour>
      <point x="305" y="-20" type="curve" smooth="yes"/>
      <point x="398" y="-20"/>
      <point x="472" y="16"/>
      <point x="525" y="59" type="curve"/>
      <point x="445" y="167" type="line"/>
      <point x="399" y="135"/>
      <point x="362" y="120"/>
      <point x="324" y="120" type="curve" smooth="yes"/>
      <point x="248" y="120"/>
      <point x="207" y="135"/>
      <point x="197" y="216" type="curve"/>
      <point x="541" y="216" type="line"/>
      <point x="543" y="235"/>
      <point x="545" y="257"/>
      <point x="545" y="274" type="curve" smooth="yes"/>
      <point x="545" y="453"/>
      <point x="441" y="554"/>
      <point x="283" y="554" type="curve" smooth="yes"/>
      <point x="106" y="554"/>
      <point x="17" y="422"/>
      <point x="17" y="266" type="curve" smooth="yes"/>
      <point x="17" y="101"/>
      <point x="109" y="-20"/>
    </contour>
    <contour>
      <point x="196" y="318" type="line"/>
      <point x="202" y="405"/>
      <point x="227" y="434"/>
      <point x="287" y="434" type="curve" smooth="yes"/>
      <point x="363" y="434"/>
      <point x="374" y="384"/>
      <point x="375" y="325" type="curve" smooth="yes"/>
      <point x="375" y="323"/>
      <point x="375" y="320"/>
      <point x="375" y="318" type="curve"/>
    </contour>
    <contour>
      <point x="398" y="589" type="line"/>
      <point x="340" y="604" type="line"/>
      <point x="164" y="-62" type="line"/>
      <point x="223" y="-77" type="line"/>
    </contour>
    <contour>
      <point x="264" y="517" type="move" name="top"/>
    </contour>
    <contour>
      <point x="264" y="0" type="move" name="bottom"/>
    </contour>
  </outline>
</glyph>
<glyph name="uni024A" format="1">
  <advance width="675"/>
  <unicode hex="024A"/>
  <outline>
    <contour>
      <point x="750" y="-62" type="line"/>
      <point x="726" y="-74"/>
      <point x="710" y="-82"/>
      <point x="682" y="-82" type="curve" smooth="yes"/>
      <point x="651" y="-82"/>
      <point x="632" y="-64"/>
      <point x="632" y="-29" type="curve" smooth="yes"/>
      <point x="632" y="696" type="line"/>
      <point x="448" y="696" type="line"/>
      <point x="442" y="657" type="line"/>
      <point x="405" y="690"/>
      <point x="360" y="716"/>
      <point x="290" y="716" type="curve" smooth="yes"/>
      <point x="136" y="716"/>
      <point x="20" y="575"/>
      <point x="20" y="329" type="curve" smooth="yes"/>
      <point x="20" y="118"/>
      <point x="126" y="-20"/>
      <point x="287" y="-20" type="curve" smooth="yes"/>
      <point x="347" y="-20"/>
      <point x="392" y="-3"/>
      <point x="426" y="37" type="curve"/>
      <point x="426" y="-16" type="line" smooth="yes"/>
      <point x="426" y="-157"/>
      <point x="519" y="-227"/>
      <point x="657" y="-227" type="curve" smooth="yes"/>
      <point x="729" y="-227"/>
      <point x="778" y="-208"/>
      <point x="814" y="-182" type="curve"/>
    </contour>
    <contour>
      <point x="340" y="121" type="curve" smooth="yes"/>
      <point x="272" y="121"/>
      <point x="234" y="173"/>
      <point x="234" y="329" type="curve" smooth="yes"/>
      <point x="234" y="510"/>
      <point x="270" y="570"/>
      <point x="339" y="570" type="curve" smooth="yes"/>
      <point x="379" y="570"/>
      <point x="406" y="554"/>
      <point x="426" y="532" type="curve"/>
      <point x="426" y="155" type="line"/>
      <point x="400" y="132"/>
      <point x="370" y="121"/>
    </contour>
    <contour>
      <point x="320" y="680" type="move" name="top"/>
    </contour>
    <contour>
      <point x="320" y="-188" type="move" name="bottom"/>
    </contour>
  </outline>
</glyph>
<glyph name="uni024B" format="1">
  <advance width="596"/>
  <unicode hex="024B"/>
  <outline>
    <contour>
      <point x="524" y="-227" type="curve" smooth="yes"/>
      <point x="569" y="-227"/>
      <point x="611" y="-219"/>
      <point x="634" y="-209" type="curve"/>
      <point x="599" y="-68" type="line"/>
      <point x="594" y="-70"/>
      <point x="587" y="-72"/>
      <point x="578" y="-72" type="curve" smooth="yes"/>
      <point x="562" y="-72"/>
      <point x="554" y="-63"/>
      <point x="554" y="-45" type="curve" smooth="yes"/>
      <point x="554" y="534" type="line"/>
      <point x="381" y="534" type="line"/>
      <point x="372" y="497" type="line"/>
      <point x="333" y="538"/>
      <point x="287" y="554"/>
      <point x="245" y="554" type="curve" smooth="yes"/>
      <point x="103" y="554"/>
      <point x="17" y="436"/>
      <point x="17" y="270" type="curve" smooth="yes"/>
      <point x="17" y="94"/>
      <point x="81" y="-20"/>
      <point x="220" y="-20" type="curve" smooth="yes"/>
      <point x="285" y="-20"/>
      <point x="327" y="7"/>
      <point x="356" y="40" type="curve"/>
      <point x="356" y="-53" type="line" smooth="yes"/>
      <point x="356" y="-165"/>
      <point x="416" y="-227"/>
    </contour>
    <contour>
      <point x="289" y="122" type="curve" smooth="yes"/>
      <point x="251" y="122"/>
      <point x="220" y="140"/>
      <point x="220" y="268" type="curve" smooth="yes"/>
      <point x="220" y="376"/>
      <point x="254" y="413"/>
      <point x="298" y="413" type="curve" smooth="yes"/>
      <point x="322" y="413"/>
      <point x="338" y="402"/>
      <point x="356" y="383" type="curve"/>
      <point x="356" y="169" type="line"/>
      <point x="337" y="136"/>
      <point x="314" y="122"/>
    </contour>
    <contour>
      <point x="284" y="517" type="move" name="top"/>
    </contour>
    <contour>
      <point x="284" y="-188" type="move" name="bottom"/>
    </contour>
  </outline>
</glyph>
<glyph name="uni024C" format="1">
  <advance width="640"/>
  <unicode hex="024C"/>
  <outline>
    <contour>
      <point x="265" y="0" type="line"/>
      <point x="265" y="248" type="line"/>
      <point x="303" y="248" type="line"/>
      <point x="432" y="0" type="line"/>
      <point x="660" y="0" type="line"/>
      <point x="490" y="286" type="line"/>
      <point x="575" y="335"/>
      <point x="613" y="387"/>
      <point x="613" y="475" type="curve" smooth="yes"/>
      <point x="613" y="628"/>
      <point x="513" y="696"/>
      <point x="314" y="696" type="curve" smooth="yes"/>
      <point x="59" y="696" type="line"/>
      <point x="59" y="386" type="line"/>
      <point x="10" y="386" type="line"/>
      <point x="10" y="248" type="line"/>
      <point x="59" y="248" type="line"/>
      <point x="59" y="0" type="line"/>
    </contour>
    <contour>
      <point x="265" y="555" type="line"/>
      <point x="309" y="555" type="line" smooth="yes"/>
      <point x="370" y="555"/>
      <point x="403" y="530"/>
      <point x="403" y="475" type="curve" smooth="yes"/>
      <point x="403" y="414"/>
      <point x="375" y="386"/>
      <point x="319" y="386" type="curve" smooth="yes"/>
      <point x="265" y="386" type="line"/>
    </contour>
    <contour>
      <point x="275" y="680" type="move" name="top"/>
    </contour>
    <contour>
      <point x="295" y="0" type="move" name="bottom"/>
    </contour>
  </outline>
</glyph>
<glyph name="uni024F" format="1">
  <advance width="564"/>
  <unicode hex="024F"/>
  <outline>
    <contour>
      <point x="562" y="294" type="line"/>
      <point x="562" y="399" type="line"/>
      <point x="522" y="399" type="line"/>
      <point x="39" y="399" type="line"/>
      <point x="0" y="399" type="line"/>
      <point x="0" y="294" type="line"/>
    </contour>
    <contour>
      <point x="360" y="534" type="line"/>
      <point x="277" y="121" type="line"/>
      <point x="210" y="534" type="line"/>
      <point x="0" y="534" type="line"/>
      <point x="152" y="0" type="line"/>
      <point x="220" y="0" type="line"/>
      <point x="192" y="-60"/>
      <point x="149" y="-83"/>
      <point x="47" y="-93" type="curve"/>
      <point x="68" y="-228" type="line"/>
      <point x="247" y="-223"/>
      <point x="355" y="-147"/>
      <point x="400" y="1" type="curve" smooth="yes"/>
      <point x="564" y="534" type="line"/>
    </contour>
    <contour>
      <point x="212" y="517" type="move" name="top"/>
    </contour>
    <contour>
      <point x="221" y="-188" type="move" name="bottom"/>
    </contour>
  </outline>
</glyph>
<glyph name="uni0251" format="1">
  <advance width="596"/>
  <unicode hex="0251"/>
  <outline>
    <contour>
      <point x="223" y="-20" type="curve" smooth="yes"/>
      <point x="291" y="-20"/>
      <point x="344" y="15"/>
      <point x="381" y="61" type="curve"/>
      <point x="409" y="16"/>
      <point x="457" y="-9"/>
      <point x="535" y="-20" type="curve"/>
      <point x="591" y="121" type="line"/>
      <point x="560" y="137"/>
      <point x="550" y="157"/>
      <point x="550" y="202" type="curve" smooth="yes"/>
      <point x="550" y="534" type="line"/>
      <point x="377" y="534" type="line"/>
      <point x="368" y="497" type="line"/>
      <point x="334" y="537"/>
      <point x="290" y="554"/>
      <point x="243" y="554" type="curve" smooth="yes"/>
      <point x="103" y="554"/>
      <point x="17" y="436"/>
      <point x="17" y="270" type="curve" smooth="yes"/>
      <point x="17" y="94"/>
      <point x="85" y="-20"/>
    </contour>
    <contour>
      <point x="287" y="122" type="curve" smooth="yes"/>
      <point x="251" y="122"/>
      <point x="220" y="140"/>
      <point x="220" y="268" type="curve" smooth="yes"/>
      <point x="220" y="376"/>
      <point x="254" y="413"/>
      <point x="293" y="413" type="curve" smooth="yes"/>
      <point x="318" y="413"/>
      <point x="334" y="402"/>
      <point x="352" y="383" type="curve"/>
      <point x="352" y="169" type="line"/>
      <point x="333" y="136"/>
      <point x="310" y="122"/>
    </contour>
    <contour>
      <point x="286" y="517" type="move" name="top"/>
    </contour>
    <contour>
      <point x="286" y="0" type="move" name="bottom"/>
    </contour>
  </outline>
</glyph>
<glyph name="uni0253" format="1">
  <advance width="599"/>
  <unicode hex="0253"/>
  <outline>
    <contour>
      <point x="363" y="-20" type="curve" smooth="yes"/>
      <point x="498" y="-20"/>
      <point x="577" y="103"/>
      <point x="577" y="266" type="curve" smooth="yes"/>
      <point x="577" y="445"/>
      <point x="513" y="554"/>
      <point x="375" y="554" type="curve" smooth="yes"/>
      <point x="325" y="554"/>
      <point x="269" y="527"/>
      <point x="240" y="487" type="curve"/>
      <point x="240" y="555" type="line" smooth="yes"/>
      <point x="240" y="605"/>
      <point x="257" y="622"/>
      <point x="295" y="622" type="curve" smooth="yes"/>
      <point x="317" y="622"/>
      <point x="345" y="617"/>
      <point x="373" y="602" type="curve"/>
      <point x="425" y="727" type="line"/>
      <point x="388" y="747"/>
      <point x="326" y="764"/>
      <point x="268" y="764" type="curve" smooth="yes"/>
      <point x="115" y="764"/>
      <point x="42" y="675"/>
      <point x="42" y="565" type="curve" smooth="yes"/>
      <point x="42" y="0" type="line"/>
      <point x="218" y="0" type="line"/>
      <point x="225" y="46" type="line"/>
      <point x="256" y="5"/>
      <point x="304" y="-20"/>
    </contour>
    <contour>
      <point x="305" y="121" type="curve" smooth="yes"/>
      <point x="278" y="121"/>
      <point x="256" y="133"/>
      <point x="240" y="160" type="curve"/>
      <point x="240" y="362" type="line"/>
      <point x="260" y="398"/>
      <point x="285" y="412"/>
      <point x="311" y="412" type="curve" smooth="yes"/>
      <point x="346" y="412"/>
      <point x="374" y="391"/>
      <point x="374" y="266" type="curve" smooth="yes"/>
      <point x="374" y="154"/>
      <point x="345" y="121"/>
    </contour>
    <contour>
      <point x="284" y="727" type="move" name="top"/>
    </contour>
    <contour>
      <point x="284" y="0" type="move" name="bottom"/>
    </contour>
  </outline>
</glyph>
<glyph name="uni0256" format="1">
  <advance width="601"/>
  <unicode hex="0256"/>
  <outline>
    <contour>
      <point x="587" y="-227" type="curve" smooth="yes"/>
      <point x="658" y="-227"/>
      <point x="707" y="-208"/>
      <point x="743" y="-182" type="curve"/>
      <point x="679" y="-67" type="line"/>
      <point x="655" y="-79"/>
      <point x="639" y="-87"/>
      <point x="611" y="-87" type="curve" smooth="yes"/>
      <point x="578" y="-87"/>
      <point x="559" y="-69"/>
      <point x="559" y="-34" type="curve" smooth="yes"/>
      <point x="559" y="744" type="line"/>
      <point x="361" y="764" type="line"/>
      <point x="361" y="512" type="line"/>
      <point x="331" y="539"/>
      <point x="290" y="554"/>
      <point x="250" y="554" type="curve" smooth="yes"/>
      <point x="108" y="554"/>
      <point x="22" y="436"/>
      <point x="22" y="270" type="curve" smooth="yes"/>
      <point x="22" y="94"/>
      <point x="86" y="-20"/>
      <point x="225" y="-20" type="curve" smooth="yes"/>
      <point x="290" y="-20"/>
      <point x="332" y="7"/>
      <point x="361" y="38" type="curve"/>
      <point x="361" y="-16" type="line" smooth="yes"/>
      <point x="361" y="-157"/>
      <point x="452" y="-227"/>
    </contour>
    <contour>
      <point x="294" y="122" type="curve" smooth="yes"/>
      <point x="256" y="122"/>
      <point x="225" y="140"/>
      <point x="225" y="268" type="curve" smooth="yes"/>
      <point x="225" y="376"/>
      <point x="259" y="413"/>
      <point x="303" y="413" type="curve" smooth="yes"/>
      <point x="327" y="413"/>
      <point x="343" y="402"/>
      <point x="361" y="383" type="curve"/>
      <point x="361" y="169" type="line"/>
      <point x="342" y="136"/>
      <point x="319" y="122"/>
    </contour>
    <contour>
      <point x="445" y="727" type="move" name="top"/>
    </contour>
    <contour>
      <point x="286" y="-188" type="move" name="bottom"/>
    </contour>
  </outline>
</glyph>
<glyph name="uni0257" format="1">
  <advance width="601"/>
  <unicode hex="0257"/>
  <outline>
    <contour>
      <point x="225" y="-20" type="curve" smooth="yes"/>
      <point x="302" y="-20"/>
      <point x="348" y="18"/>
      <point x="376" y="55" type="curve"/>
      <point x="383" y="0" type="line"/>
      <point x="559" y="0" type="line"/>
      <point x="559" y="568" type="line" smooth="yes"/>
      <point x="559" y="605"/>
      <point x="572" y="622"/>
      <point x="603" y="622" type="curve" smooth="yes"/>
      <point x="625" y="622"/>
      <point x="644" y="616"/>
      <point x="667" y="605" type="curve"/>
      <point x="719" y="727" type="line"/>
      <point x="684" y="747"/>
      <point x="637" y="764"/>
      <point x="572" y="764" type="curve" smooth="yes"/>
      <point x="429" y="764"/>
      <point x="361" y="675"/>
      <point x="361" y="565" type="curve" smooth="yes"/>
      <point x="361" y="512" type="line"/>
      <point x="331" y="539"/>
      <point x="290" y="554"/>
      <point x="250" y="554" type="curve" smooth="yes"/>
      <point x="108" y="554"/>
      <point x="22" y="436"/>
      <point x="22" y="270" type="curve" smooth="yes"/>
      <point x="22" y="94"/>
      <point x="86" y="-20"/>
    </contour>
    <contour>
      <point x="294" y="122" type="curve" smooth="yes"/>
      <point x="256" y="122"/>
      <point x="225" y="140"/>
      <point x="225" y="268" type="curve" smooth="yes"/>
      <point x="225" y="376"/>
      <point x="259" y="413"/>
      <point x="303" y="413" type="curve" smooth="yes"/>
      <point x="327" y="413"/>
      <point x="343" y="402"/>
      <point x="361" y="383" type="curve"/>
      <point x="361" y="169" type="line"/>
      <point x="342" y="136"/>
      <point x="319" y="122"/>
    </contour>
    <contour>
      <point x="286" y="727" type="move" name="top"/>
    </contour>
    <contour>
      <point x="286" y="0" type="move" name="bottom"/>
    </contour>
  </outline>
</glyph>
<glyph name="uni025F" format="1">
  <advance width="342"/>
  <unicode hex="025F"/>
  <outline>
    <contour>
      <point x="31" y="-227" type="line"/>
      <point x="163" y="-184"/>
      <point x="273" y="-111"/>
      <point x="273" y="77" type="curve" smooth="yes"/>
      <point x="273" y="194" type="line"/>
      <point x="342" y="194" type="line"/>
      <point x="342" y="329" type="line"/>
      <point x="273" y="329" type="line"/>
      <point x="273" y="534" type="line"/>
      <point x="75" y="534" type="line"/>
      <point x="75" y="329" type="line"/>
      <point x="2" y="329" type="line"/>
      <point x="2" y="194" type="line"/>
      <point x="75" y="194" type="line"/>
      <point x="75" y="65" type="line" smooth="yes"/>
      <point x="75" y="-22"/>
      <point x="30" y="-52"/>
      <point x="-37" y="-83" type="curve"/>
    </contour>
    <contour>
      <point x="144" y="517" type="move" name="top"/>
    </contour>
    <contour>
      <point x="144" y="-188" type="move" name="bottom"/>
    </contour>
  </outline>
</glyph>
<glyph name="uni0260" format="1">
  <advance width="601"/>
  <unicode hex="0260"/>
  <outline>
    <contour>
      <point x="282" y="-227" type="curve" smooth="yes"/>
      <point x="454" y="-227"/>
      <point x="559" y="-153"/>
      <point x="559" y="24" type="curve" smooth="yes"/>
      <point x="559" y="568" type="line" smooth="yes"/>
      <point x="559" y="605"/>
      <point x="572" y="622"/>
      <point x="603" y="622" type="curve" smooth="yes"/>
      <point x="625" y="622"/>
      <point x="644" y="616"/>
      <point x="667" y="605" type="curve"/>
      <point x="719" y="727" type="line"/>
      <point x="684" y="747"/>
      <point x="637" y="764"/>
      <point x="572" y="764" type="curve" smooth="yes"/>
      <point x="429" y="764"/>
      <point x="361" y="675"/>
      <point x="361" y="565" type="curve" smooth="yes"/>
      <point x="361" y="511" type="line"/>
      <point x="326" y="541"/>
      <point x="287" y="554"/>
      <point x="250" y="554" type="curve" smooth="yes"/>
      <point x="108" y="554"/>
      <point x="22" y="436"/>
      <point x="22" y="280" type="curve" smooth="yes"/>
      <point x="22" y="114"/>
      <point x="86" y="0"/>
      <point x="225" y="0" type="curve" smooth="yes"/>
      <point x="290" y="0"/>
      <point x="332" y="27"/>
      <point x="361" y="58" type="curve"/>
      <point x="361" y="-4" type="line" smooth="yes"/>
      <point x="361" y="-59"/>
      <point x="332" y="-87"/>
      <point x="264" y="-87" type="curve" smooth="yes"/>
      <point x="206" y="-87"/>
      <point x="164" y="-72"/>
      <point x="130" y="-55" type="curve"/>
      <point x="72" y="-174" type="line"/>
      <point x="113" y="-200"/>
      <point x="177" y="-227"/>
    </contour>
    <contour>
      <point x="294" y="142" type="curve" smooth="yes"/>
      <point x="256" y="142"/>
      <point x="225" y="160"/>
      <point x="225" y="278" type="curve" smooth="yes"/>
      <point x="225" y="376"/>
      <point x="259" y="413"/>
      <point x="303" y="413" type="curve" smooth="yes"/>
      <point x="327" y="413"/>
      <point x="343" y="402"/>
      <point x="361" y="383" type="curve"/>
      <point x="361" y="189" type="line"/>
      <point x="342" y="156"/>
      <point x="319" y="142"/>
    </contour>
    <contour>
      <point x="272" y="727" type="move" name="top"/>
    </contour>
    <contour>
      <point x="286" y="-188" type="move" name="bottom"/>
    </contour>
  </outline>
</glyph>
<glyph name="uni0265" format="1">
  <advance width="572"/>
  <unicode hex="0265"/>
  <outline>
    <contour>
      <point x="530" y="534" type="line"/>
      <point x="332" y="534" type="line"/>
      <point x="332" y="177" type="line"/>
      <point x="309" y="141"/>
      <point x="286" y="124"/>
      <point x="265" y="124" type="curve" smooth="yes"/>
      <point x="247" y="124"/>
      <point x="235" y="134"/>
      <point x="235" y="176" type="curve" smooth="yes"/>
      <point x="235" y="534" type="line"/>
      <point x="37" y="534" type="line"/>
      <point x="37" y="140" type="line" smooth="yes"/>
      <point x="37" y="38"/>
      <point x="92" y="-20"/>
      <point x="181" y="-20" type="curve" smooth="yes"/>
      <point x="241" y="-20"/>
      <point x="286" y="0"/>
      <point x="332" y="48" type="curve"/>
      <point x="332" y="-207" type="line"/>
      <point x="530" y="-227" type="line"/>
    </contour>
    <contour>
      <point x="290" y="517" type="move" name="top"/>
    </contour>
    <contour>
      <point x="290" y="-188" type="move" name="bottom"/>
    </contour>
  </outline>
</glyph>
<glyph name="uni0266" format="1">
  <advance width="572"/>
  <unicode hex="0266"/>
  <outline>
    <contour>
      <point x="240" y="0" type="line"/>
      <point x="240" y="357" type="line"/>
      <point x="263" y="393"/>
      <point x="286" y="410"/>
      <point x="307" y="410" type="curve" smooth="yes"/>
      <point x="325" y="410"/>
      <point x="337" y="400"/>
      <point x="337" y="358" type="curve" smooth="yes"/>
      <point x="337" y="0" type="line"/>
      <point x="535" y="0" type="line"/>
      <point x="535" y="394" type="line" smooth="yes"/>
      <point x="535" y="496"/>
      <point x="480" y="554"/>
      <point x="391" y="554" type="curve" smooth="yes"/>
      <point x="331" y="554"/>
      <point x="286" y="534"/>
      <point x="240" y="486" type="curve"/>
      <point x="240" y="555" type="line" smooth="yes"/>
      <point x="240" y="605"/>
      <point x="257" y="622"/>
      <point x="295" y="622" type="curve" smooth="yes"/>
      <point x="317" y="622"/>
      <point x="345" y="617"/>
      <point x="373" y="602" type="curve"/>
      <point x="425" y="727" type="line"/>
      <point x="388" y="747"/>
      <point x="326" y="764"/>
      <point x="268" y="764" type="curve" smooth="yes"/>
      <point x="115" y="764"/>
      <point x="42" y="675"/>
      <point x="42" y="565" type="curve" smooth="yes"/>
      <point x="42" y="0" type="line"/>
    </contour>
    <contour>
      <point x="290" y="727" type="move" name="top"/>
    </contour>
    <contour>
      <point x="290" y="0" type="move" name="bottom"/>
    </contour>
  </outline>
</glyph>
<glyph name="uni026C" format="1">
  <advance width="470"/>
  <unicode hex="026C"/>
  <outline>
    <contour>
      <point x="334" y="-20" type="curve" smooth="yes"/>
      <point x="379" y="-20"/>
      <point x="418" y="-12"/>
      <point x="444" y="-2" type="curve"/>
      <point x="409" y="139" type="line"/>
      <point x="404" y="137"/>
      <point x="397" y="135"/>
      <point x="388" y="135" type="curve" smooth="yes"/>
      <point x="372" y="135"/>
      <point x="364" y="144"/>
      <point x="364" y="162" type="curve" smooth="yes"/>
      <point x="364" y="237" type="line"/>
      <point x="395" y="239"/>
      <point x="424" y="245"/>
      <point x="445" y="251" type="curve"/>
      <point x="432" y="347" type="line"/>
      <point x="408" y="342"/>
      <point x="389" y="339"/>
      <point x="364" y="337" type="curve"/>
      <point x="364" y="764" type="line"/>
      <point x="166" y="744" type="line"/>
      <point x="166" y="487" type="line"/>
      <point x="155" y="490"/>
      <point x="141" y="492"/>
      <point x="126" y="492" type="curve" smooth="yes"/>
      <point x="46" y="492"/>
      <point x="-10" y="449"/>
      <point x="-10" y="368" type="curve" smooth="yes"/>
      <point x="-10" y="289"/>
      <point x="43" y="236"/>
      <point x="166" y="233" type="curve"/>
      <point x="166" y="154" type="line" smooth="yes"/>
      <point x="166" y="43"/>
      <point x="226" y="-20"/>
    </contour>
    <contour>
      <point x="166" y="333" type="line"/>
      <point x="133" y="333"/>
      <point x="113" y="344"/>
      <point x="113" y="370" type="curve" smooth="yes"/>
      <point x="113" y="386"/>
      <point x="123" y="397"/>
      <point x="141" y="397" type="curve" smooth="yes"/>
      <point x="149" y="397"/>
      <point x="157" y="396"/>
      <point x="166" y="394" type="curve"/>
    </contour>
    <contour>
      <point x="195" y="0" type="move" name="bottom"/>
    </contour>
    <contour>
      <point x="142" y="730" type="move" name="top"/>
    </contour>
    <contour>
      <point x="203" y="727" type="move" name="topright"/>
    </contour>
    <contour>
      <point x="277" y="375" type="move" name="center"/>
    </contour>
  </outline>
</glyph>
<glyph name="uni026D" format="1">
  <advance width="282"/>
  <unicode hex="026D"/>
  <outline>
    <contour>
      <point x="268" y="-227" type="curve" smooth="yes"/>
      <point x="339" y="-227"/>
      <point x="388" y="-208"/>
      <point x="424" y="-182" type="curve"/>
      <point x="360" y="-67" type="line"/>
      <point x="336" y="-79"/>
      <point x="320" y="-87"/>
      <point x="292" y="-87" type="curve" smooth="yes"/>
      <point x="259" y="-87"/>
      <point x="240" y="-69"/>
      <point x="240" y="-34" type="curve" smooth="yes"/>
      <point x="240" y="764" type="line"/>
      <point x="42" y="744" type="line"/>
      <point x="42" y="-16" type="line" smooth="yes"/>
      <point x="42" y="-157"/>
      <point x="133" y="-227"/>
    </contour>
    <contour>
      <point x="126" y="727" type="move" name="top"/>
    </contour>
    <contour>
      <point x="209" y="-188" type="move" name="bottom"/>
    </contour>
  </outline>
</glyph>
<glyph name="uni026E" format="1">
  <advance width="736"/>
  <unicode hex="026E"/>
  <outline>
    <contour>
      <point x="440" y="-227" type="curve" smooth="yes"/>
      <point x="623" y="-227"/>
      <point x="726" y="-122"/>
      <point x="726" y="11" type="curve" smooth="yes"/>
      <point x="726" y="138"/>
      <point x="649" y="202"/>
      <point x="523" y="215" type="curve" smooth="yes"/>
      <point x="523" y="215" type="line"/>
      <point x="689" y="402" type="line"/>
      <point x="689" y="534" type="line"/>
      <point x="235" y="534" type="line"/>
      <point x="235" y="764" type="line"/>
      <point x="37" y="744" type="line"/>
      <point x="37" y="154" type="line" smooth="yes"/>
      <point x="37" y="43"/>
      <point x="97" y="-20"/>
      <point x="205" y="-20" type="curve" smooth="yes"/>
      <point x="250" y="-20"/>
      <point x="289" y="-12"/>
      <point x="315" y="-2" type="curve"/>
      <point x="280" y="139" type="line"/>
      <point x="275" y="137"/>
      <point x="268" y="135"/>
      <point x="259" y="135" type="curve" smooth="yes"/>
      <point x="243" y="135"/>
      <point x="235" y="144"/>
      <point x="235" y="162" type="curve" smooth="yes"/>
      <point x="235" y="390" type="line"/>
      <point x="466" y="390" type="line"/>
      <point x="316" y="216" type="line"/>
      <point x="316" y="109" type="line"/>
      <point x="417" y="109" type="line" smooth="yes"/>
      <point x="483" y="109"/>
      <point x="524" y="88"/>
      <point x="524" y="25" type="curve" smooth="yes"/>
      <point x="524" y="-48"/>
      <point x="480" y="-79"/>
      <point x="426" y="-79" type="curve" smooth="yes"/>
      <point x="385" y="-79"/>
      <point x="353" y="-67"/>
      <point x="317" y="-40" type="curve"/>
      <point x="229" y="-157" type="line"/>
      <point x="280" y="-200"/>
      <point x="350" y="-227"/>
    </contour>
    <contour>
      <point x="354" y="-188" type="move" name="bottom"/>
    </contour>
    <contour>
      <point x="303" y="727" type="move" name="top"/>
    </contour>
    <contour>
      <point x="182" y="727" type="move" name="topright"/>
    </contour>
    <contour>
      <point x="256" y="375" type="move" name="center"/>
    </contour>
  </outline>
</glyph>
<glyph name="uni0270" format="1">
  <advance width="837"/>
  <unicode hex="0270"/>
  <outline>
    <contour>
      <point x="597" y="177" type="line"/>
      <point x="581" y="141"/>
      <point x="561" y="124"/>
      <point x="542" y="124" type="curve" smooth="yes"/>
      <point x="527" y="124"/>
      <point x="515" y="134"/>
      <point x="515" y="176" type="curve" smooth="yes"/>
      <point x="515" y="534" type="line"/>
      <point x="317" y="534" type="line"/>
      <point x="317" y="177" type="line"/>
      <point x="301" y="141"/>
      <point x="281" y="124"/>
      <point x="262" y="124" type="curve" smooth="yes"/>
      <point x="247" y="124"/>
      <point x="235" y="134"/>
      <point x="235" y="176" type="curve" smooth="yes"/>
      <point x="235" y="534" type="line"/>
      <point x="37" y="534" type="line"/>
      <point x="37" y="140" type="line" smooth="yes"/>
      <point x="37" y="38"/>
      <point x="93" y="-20"/>
      <point x="173" y="-20" type="curve" smooth="yes"/>
      <point x="239" y="-20"/>
      <point x="288" y="3"/>
      <point x="333" y="57" type="curve"/>
      <point x="354" y="7"/>
      <point x="398" y="-20"/>
      <point x="453" y="-20" type="curve" smooth="yes"/>
      <point x="511" y="-20"/>
      <point x="556" y="-1"/>
      <point x="597" y="41" type="curve"/>
      <point x="597" y="-207" type="line"/>
      <point x="795" y="-227" type="line"/>
      <point x="795" y="534" type="line"/>
      <point x="597" y="534" type="line"/>
    </contour>
    <contour>
      <point x="419" y="517" type="move" name="top"/>
    </contour>
    <contour>
      <point x="424" y="-188" type="move" name="bottom"/>
    </contour>
  </outline>
</glyph>
<glyph name="uni0276" format="1">
  <advance width="777"/>
  <unicode hex="0276"/>
  <outline>
    <contour>
      <point x="292" y="-20" type="curve" smooth="yes"/>
      <point x="330" y="-20"/>
      <point x="367" y="-13"/>
      <point x="400" y="0" type="curve"/>
      <point x="755" y="0" type="line"/>
      <point x="755" y="133" type="line"/>
      <point x="518" y="133" type="line"/>
      <point x="532" y="154"/>
      <point x="544" y="179"/>
      <point x="551" y="206" type="curve"/>
      <point x="719" y="206" type="line"/>
      <point x="719" y="334" type="line"/>
      <point x="550" y="334" type="line"/>
      <point x="543" y="359"/>
      <point x="532" y="381"/>
      <point x="519" y="402" type="curve"/>
      <point x="742" y="402" type="line"/>
      <point x="762" y="534" type="line"/>
      <point x="402" y="534" type="line"/>
      <point x="366" y="546"/>
      <point x="331" y="554"/>
      <point x="292" y="554" type="curve" smooth="yes"/>
      <point x="122" y="554"/>
      <point x="17" y="442"/>
      <point x="17" y="268" type="curve" smooth="yes"/>
      <point x="17" y="82"/>
      <point x="124" y="-20"/>
    </contour>
    <contour>
      <point x="292" y="122" type="curve" smooth="yes"/>
      <point x="242" y="122"/>
      <point x="220" y="162"/>
      <point x="220" y="268" type="curve" smooth="yes"/>
      <point x="220" y="369"/>
      <point x="242" y="412"/>
      <point x="292" y="412" type="curve" smooth="yes"/>
      <point x="340" y="412"/>
      <point x="362" y="373"/>
      <point x="362" y="268" type="curve" smooth="yes"/>
      <point x="362" y="165"/>
      <point x="343" y="122"/>
    </contour>
    <contour>
      <point x="397" y="517" type="move" name="top"/>
    </contour>
    <contour>
      <point x="397" y="0" type="move" name="bottom"/>
    </contour>
  </outline>
</glyph>
<glyph name="uni027A" format="1">
  <advance width="410"/>
  <unicode hex="027A"/>
  <outline>
    <contour>
      <point x="170" y="291" type="line"/>
      <point x="155" y="223"/>
      <point x="134" y="175"/>
      <point x="70" y="175" type="curve" smooth="yes"/>
      <point x="53" y="175"/>
      <point x="38" y="178"/>
      <point x="21" y="183" type="curve"/>
      <point x="-10" y="-8" type="line"/>
      <point x="9" y="-14"/>
      <point x="23" y="-17"/>
      <point x="44" y="-17" type="curve" smooth="yes"/>
      <point x="103" y="-17"/>
      <point x="157" y="30"/>
      <point x="179" y="100" type="curve"/>
      <point x="195" y="0" type="line"/>
      <point x="368" y="0" type="line"/>
      <point x="368" y="744" type="line"/>
      <point x="170" y="764" type="line"/>
    </contour>
    <contour>
      <point x="235" y="727" type="move" name="top"/>
    </contour>
    <contour>
      <point x="157" y="0" type="move" name="bottom"/>
    </contour>
  </outline>
</glyph>
<glyph name="uni027B" format="1">
  <advance width="410"/>
  <unicode hex="027B"/>
  <outline>
    <contour>
      <point x="488" y="-67" type="line"/>
      <point x="464" y="-79"/>
      <point x="448" y="-87"/>
      <point x="420" y="-87" type="curve" smooth="yes"/>
      <point x="387" y="-87"/>
      <point x="368" y="-69"/>
      <point x="368" y="-34" type="curve" smooth="yes"/>
      <point x="368" y="534" type="line"/>
      <point x="170" y="534" type="line"/>
      <point x="170" y="291" type="line"/>
      <point x="155" y="223"/>
      <point x="134" y="175"/>
      <point x="70" y="175" type="curve" smooth="yes"/>
      <point x="53" y="175"/>
      <point x="38" y="178"/>
      <point x="21" y="183" type="curve"/>
      <point x="-10" y="-8" type="line"/>
      <point x="9" y="-14"/>
      <point x="23" y="-17"/>
      <point x="44" y="-17" type="curve" smooth="yes"/>
      <point x="96" y="-17"/>
      <point x="145" y="20"/>
      <point x="170" y="77" type="curve"/>
      <point x="170" y="-16" type="line" smooth="yes"/>
      <point x="170" y="-157"/>
      <point x="261" y="-227"/>
      <point x="396" y="-227" type="curve" smooth="yes"/>
      <point x="467" y="-227"/>
      <point x="516" y="-208"/>
      <point x="552" y="-182" type="curve"/>
    </contour>
    <contour>
      <point x="235" y="517" type="move" name="top"/>
    </contour>
    <contour>
      <point x="218" y="-188" type="move" name="bottom"/>
    </contour>
  </outline>
</glyph>
<glyph name="uni027C" format="1">
  <advance width="410"/>
  <unicode hex="027C"/>
  <outline>
    <contour>
      <point x="366" y="551" type="curve" smooth="yes"/>
      <point x="307" y="551"/>
      <point x="253" y="504"/>
      <point x="231" y="434" type="curve"/>
      <point x="215" y="534" type="line"/>
      <point x="42" y="534" type="line"/>
      <point x="42" y="-227" type="line"/>
      <point x="240" y="-207" type="line"/>
      <point x="240" y="243" type="line"/>
      <point x="255" y="311"/>
      <point x="276" y="359"/>
      <point x="340" y="359" type="curve" smooth="yes"/>
      <point x="357" y="359"/>
      <point x="372" y="356"/>
      <point x="389" y="351" type="curve"/>
      <point x="420" y="542" type="line"/>
      <point x="401" y="548"/>
      <point x="387" y="551"/>
    </contour>
    <contour>
      <point x="230" y="517" type="move" name="top"/>
    </contour>
    <contour>
      <point x="126" y="-188" type="move" name="bottom"/>
    </contour>
  </outline>
</glyph>
<glyph name="uni027E" format="1">
  <advance width="407"/>
  <unicode hex="027E"/>
  <outline>
    <contour>
      <point x="263" y="555" type="curve" smooth="yes"/>
      <point x="128" y="555"/>
      <point x="37" y="485"/>
      <point x="37" y="344" type="curve" smooth="yes"/>
      <point x="37" y="0" type="line"/>
      <point x="235" y="0" type="line"/>
      <point x="235" y="362" type="line" smooth="yes"/>
      <point x="235" y="397"/>
      <point x="254" y="415"/>
      <point x="287" y="415" type="curve" smooth="yes"/>
      <point x="315" y="415"/>
      <point x="331" y="407"/>
      <point x="355" y="395" type="curve"/>
      <point x="419" y="510" type="line"/>
      <point x="383" y="536"/>
      <point x="334" y="555"/>
    </contour>
    <contour>
      <point x="204" y="517" type="move" name="top"/>
    </contour>
    <contour>
      <point x="121" y="0" type="move" name="bottom"/>
    </contour>
  </outline>
</glyph>
<glyph name="uni0280" format="1">
  <advance width="547"/>
  <unicode hex="0280"/>
  <outline>
    <contour>
      <point x="230" y="0" type="line"/>
      <point x="230" y="172" type="line"/>
      <point x="251" y="172" type="line"/>
      <point x="339" y="0" type="line"/>
      <point x="547" y="0" type="line"/>
      <point x="423" y="204" type="line"/>
      <point x="476" y="234"/>
      <point x="504" y="281"/>
      <point x="504" y="350" type="curve" smooth="yes"/>
      <point x="504" y="478"/>
      <point x="416" y="534"/>
      <point x="262" y="534" type="curve" smooth="yes"/>
      <point x="42" y="534" type="line"/>
      <point x="42" y="0" type="line"/>
    </contour>
    <contour>
      <point x="230" y="402" type="line"/>
      <point x="257" y="402" type="line" smooth="yes"/>
      <point x="292" y="402"/>
      <point x="312" y="391"/>
      <point x="312" y="353" type="curve" smooth="yes"/>
      <point x="312" y="313"/>
      <point x="293" y="298"/>
      <point x="255" y="298" type="curve" smooth="yes"/>
      <point x="230" y="298" type="line"/>
    </contour>
    <contour>
      <point x="255" y="517" type="move" name="top"/>
    </contour>
    <contour>
      <point x="255" y="0" type="move" name="bottom"/>
    </contour>
  </outline>
</glyph>
<glyph name="uni0281" format="1">
  <advance width="542"/>
  <unicode hex="0281"/>
  <outline>
    <contour>
      <point x="262" y="0" type="line" smooth="yes"/>
      <point x="416" y="0"/>
      <point x="504" y="56"/>
      <point x="504" y="187" type="curve" smooth="yes"/>
      <point x="504" y="258"/>
      <point x="469" y="305"/>
      <point x="420" y="333" type="curve"/>
      <point x="542" y="534" type="line"/>
      <point x="349" y="534" type="line"/>
      <point x="261" y="362" type="line"/>
      <point x="230" y="362" type="line"/>
      <point x="230" y="534" type="line"/>
      <point x="42" y="534" type="line"/>
      <point x="42" y="0" type="line"/>
    </contour>
    <contour>
      <point x="230" y="236" type="line"/>
      <point x="255" y="236" type="line" smooth="yes"/>
      <point x="293" y="236"/>
      <point x="312" y="221"/>
      <point x="312" y="181" type="curve" smooth="yes"/>
      <point x="312" y="143"/>
      <point x="292" y="132"/>
      <point x="257" y="132" type="curve" smooth="yes"/>
      <point x="230" y="132" type="line"/>
    </contour>
    <contour>
      <point x="255" y="517" type="move" name="top"/>
    </contour>
    <contour>
      <point x="255" y="0" type="move" name="bottom"/>
    </contour>
  </outline>
</glyph>
<glyph name="uni0283" format="1">
  <advance width="338"/>
  <unicode hex="0283"/>
  <outline>
    <contour>
      <point x="42" y="-227" type="curve" smooth="yes"/>
      <point x="177" y="-227"/>
      <point x="268" y="-157"/>
      <point x="268" y="-16" type="curve" smooth="yes"/>
      <point x="268" y="568" type="line" smooth="yes"/>
      <point x="268" y="605"/>
      <point x="281" y="622"/>
      <point x="312" y="622" type="curve" smooth="yes"/>
      <point x="334" y="622"/>
      <point x="353" y="616"/>
      <point x="376" y="605" type="curve"/>
      <point x="428" y="727" type="line"/>
      <point x="393" y="747"/>
      <point x="346" y="764"/>
      <point x="281" y="764" type="curve" smooth="yes"/>
      <point x="138" y="764"/>
      <point x="70" y="675"/>
      <point x="70" y="565" type="curve" smooth="yes"/>
      <point x="70" y="-34" type="line" smooth="yes"/>
      <point x="70" y="-69"/>
      <point x="51" y="-87"/>
      <point x="18" y="-87" type="curve" smooth="yes"/>
      <point x="-10" y="-87"/>
      <point x="-26" y="-79"/>
      <point x="-50" y="-67" type="curve"/>
      <point x="-114" y="-182" type="line"/>
      <point x="-78" y="-208"/>
      <point x="-29" y="-227"/>
    </contour>
    <contour>
      <point x="218" y="727" type="move" name="top"/>
    </contour>
    <contour>
      <point x="45" y="-188" type="move" name="bottom"/>
    </contour>
  </outline>
</glyph>
<glyph name="uni0284" format="1">
  <advance width="342"/>
  <unicode hex="0284"/>
  <outline>
    <contour>
      <point x="31" y="-227" type="line"/>
      <point x="143" y="-190"/>
      <point x="240" y="-132"/>
      <point x="266" y="0" type="curve"/>
      <point x="338" y="0" type="line"/>
      <point x="338" y="135" type="line"/>
      <point x="273" y="135" type="line"/>
      <point x="273" y="568" type="line" smooth="yes"/>
      <point x="273" y="605"/>
      <point x="286" y="622"/>
      <point x="317" y="622" type="curve" smooth="yes"/>
      <point x="339" y="622"/>
      <point x="358" y="616"/>
      <point x="381" y="605" type="curve"/>
      <point x="433" y="727" type="line"/>
      <point x="398" y="747"/>
      <point x="351" y="764"/>
      <point x="286" y="764" type="curve" smooth="yes"/>
      <point x="143" y="764"/>
      <point x="75" y="675"/>
      <point x="75" y="565" type="curve" smooth="yes"/>
      <point x="75" y="135" type="line"/>
      <point x="-2" y="135" type="line"/>
      <point x="-2" y="0" type="line"/>
      <point x="71" y="0" type="line"/>
      <point x="60" y="-47"/>
      <point x="21" y="-74"/>
      <point x="-34" y="-96" type="curve"/>
    </contour>
    <contour>
      <point x="218" y="727" type="move" name="top"/>
    </contour>
    <contour>
      <point x="144" y="-188" type="move" name="bottom"/>
    </contour>
  </outline>
</glyph>
<glyph name="uni0285" format="1">
  <advance width="512"/>
  <unicode hex="0285"/>
  <outline>
    <contour>
      <point x="371" y="-20" type="curve" smooth="yes"/>
      <point x="442" y="-20"/>
      <point x="491" y="-1"/>
      <point x="527" y="25" type="curve"/>
      <point x="463" y="140" type="line"/>
      <point x="439" y="128"/>
      <point x="423" y="120"/>
      <point x="395" y="120" type="curve" smooth="yes"/>
      <point x="362" y="120"/>
      <point x="343" y="138"/>
      <point x="343" y="173" type="curve" smooth="yes"/>
      <point x="343" y="355" type="line" smooth="yes"/>
      <point x="343" y="465"/>
      <point x="275" y="554"/>
      <point x="132" y="554" type="curve" smooth="yes"/>
      <point x="67" y="554"/>
      <point x="20" y="537"/>
      <point x="-15" y="517" type="curve"/>
      <point x="37" y="395" type="line"/>
      <point x="60" y="406"/>
      <point x="79" y="412"/>
      <point x="101" y="412" type="curve" smooth="yes"/>
      <point x="132" y="412"/>
      <point x="145" y="395"/>
      <point x="145" y="358" type="curve" smooth="yes"/>
      <point x="145" y="191" type="line" smooth="yes"/>
      <point x="145" y="50"/>
      <point x="236" y="-20"/>
    </contour>
    <contour>
      <point x="109" y="517" type="move" name="top"/>
    </contour>
    <contour>
      <point x="275" y="0" type="move" name="bottom"/>
    </contour>
  </outline>
</glyph>
<glyph name="uni0286" format="1">
  <advance width="388"/>
  <unicode hex="0286"/>
  <outline>
    <contour>
      <point x="78" y="-227" type="curve" smooth="yes"/>
      <point x="198" y="-227"/>
      <point x="269" y="-182"/>
      <point x="299" y="-87" type="curve"/>
      <point x="326" y="-96"/>
      <point x="358" y="-108"/>
      <point x="378" y="-117" type="curve"/>
      <point x="411" y="-41" type="line"/>
      <point x="381" y="-25"/>
      <point x="352" y="-10"/>
      <point x="318" y="1" type="curve"/>
      <point x="318" y="568" type="line" smooth="yes"/>
      <point x="318" y="605"/>
      <point x="331" y="622"/>
      <point x="362" y="622" type="curve" smooth="yes"/>
      <point x="384" y="622"/>
      <point x="403" y="616"/>
      <point x="426" y="605" type="curve"/>
      <point x="478" y="727" type="line"/>
      <point x="443" y="747"/>
      <point x="396" y="764"/>
      <point x="331" y="764" type="curve" smooth="yes"/>
      <point x="188" y="764"/>
      <point x="120" y="675"/>
      <point x="120" y="565" type="curve" smooth="yes"/>
      <point x="120" y="31" type="line"/>
      <point x="110" y="31"/>
      <point x="98" y="32"/>
      <point x="87" y="32" type="curve" smooth="yes"/>
      <point x="-11" y="32"/>
      <point x="-75" y="-15"/>
      <point x="-75" y="-103" type="curve" smooth="yes"/>
      <point x="-75" y="-179"/>
      <point x="-20" y="-227"/>
    </contour>
    <contour>
      <point x="68" y="-133" type="curve" smooth="yes"/>
      <point x="44" y="-133"/>
      <point x="31" y="-120"/>
      <point x="31" y="-97" type="curve" smooth="yes"/>
      <point x="31" y="-69"/>
      <point x="49" y="-55"/>
      <point x="86" y="-55" type="curve" smooth="yes"/>
      <point x="101" y="-55"/>
      <point x="111" y="-56"/>
      <point x="119" y="-57" type="curve"/>
      <point x="116" y="-113"/>
      <point x="100" y="-133"/>
    </contour>
    <contour>
      <point x="218" y="727" type="move" name="top"/>
    </contour>
    <contour>
      <point x="45" y="-188" type="move" name="bottom"/>
    </contour>
  </outline>
</glyph>
<glyph name="uni0288" format="1">
  <advance width="401"/>
  <unicode hex="0288"/>
  <outline>
    <contour>
      <point x="260" y="0" type="line"/>
      <point x="260" y="669" type="line"/>
      <point x="62" y="646" type="line"/>
      <point x="62" y="0" type="line"/>
    </contour>
    <contour>
      <point x="360" y="400" type="line"/>
      <point x="380" y="534" type="line"/>
      <point x="-2" y="534" type="line"/>
      <point x="-2" y="400" type="line"/>
    </contour>
    <contour>
      <point x="288" y="-227" type="curve" smooth="yes"/>
      <point x="359" y="-227"/>
      <point x="408" y="-208"/>
      <point x="444" y="-182" type="curve"/>
      <point x="380" y="-67" type="line"/>
      <point x="356" y="-79"/>
      <point x="340" y="-87"/>
      <point x="312" y="-87" type="curve" smooth="yes"/>
      <point x="279" y="-87"/>
      <point x="260" y="-69"/>
      <point x="260" y="-34" type="curve" smooth="yes"/>
      <point x="260" y="1" type="line"/>
      <point x="62" y="1" type="line"/>
      <point x="62" y="-16" type="line" smooth="yes"/>
      <point x="62" y="-157"/>
      <point x="153" y="-227"/>
    </contour>
    <contour>
      <point x="118" y="651" type="move" name="top"/>
    </contour>
    <contour>
      <point x="201" y="-188" type="move" name="bottom"/>
    </contour>
  </outline>
</glyph>
<glyph name="uni0289" format="1">
  <advance width="622"/>
  <unicode hex="0289"/>
  <outline>
    <contour>
      <point x="65" y="284" type="line"/>
      <point x="622" y="284" type="line"/>
      <point x="622" y="399" type="line"/>
      <point x="551" y="399" type="line"/>
      <point x="-5" y="399" type="line"/>
      <point x="-5" y="284" type="line"/>
    </contour>
    <contour>
      <point x="354" y="534" type="line"/>
      <point x="354" y="168" type="line"/>
      <point x="336" y="137"/>
      <point x="314" y="124"/>
      <point x="296" y="124" type="curve" smooth="yes"/>
      <point x="277" y="124"/>
      <point x="263" y="134"/>
      <point x="263" y="176" type="curve" smooth="yes"/>
      <point x="263" y="534" type="line"/>
      <point x="65" y="534" type="line"/>
      <point x="65" y="150" type="line" smooth="yes"/>
      <point x="65" y="48"/>
      <point x="110" y="-20"/>
      <point x="214" y="-20" type="curve" smooth="yes"/>
      <point x="281" y="-20"/>
      <point x="335" y="6"/>
      <point x="372" y="58" type="curve"/>
      <point x="379" y="0" type="line"/>
      <point x="552" y="0" type="line"/>
      <point x="552" y="534" type="line"/>
    </contour>
    <contour>
      <point x="464" y="0" type="move" name="ogonek"/>
    </contour>
    <contour>
      <point x="297" y="517" type="move" name="top"/>
    </contour>
    <contour>
      <point x="464" y="517" type="move" name="topright"/>
    </contour>
    <contour>
      <point x="297" y="0" type="move" name="bottom"/>
    </contour>
  </outline>
</glyph>
<glyph name="uni0298" format="1">
  <advance width="801"/>
  <unicode hex="0298"/>
  <outline>
    <contour>
      <point x="401" y="-20" type="curve" smooth="yes"/>
      <point x="630" y="-20"/>
      <point x="781" y="138"/>
      <point x="781" y="349" type="curve" smooth="yes"/>
      <point x="781" y="570"/>
      <point x="630" y="716"/>
      <point x="401" y="716" type="curve" smooth="yes"/>
      <point x="172" y="716"/>
      <point x="20" y="560"/>
      <point x="20" y="349" type="curve" smooth="yes"/>
      <point x="20" y="128"/>
      <point x="172" y="-20"/>
    </contour>
    <contour>
      <point x="401" y="112" type="curve" smooth="yes"/>
      <point x="283" y="112"/>
      <point x="214" y="184"/>
      <point x="214" y="349" type="curve" smooth="yes"/>
      <point x="214" y="514"/>
      <point x="283" y="584"/>
      <point x="401" y="584" type="curve" smooth="yes"/>
      <point x="509" y="584"/>
      <point x="587" y="514"/>
      <point x="587" y="349" type="curve" smooth="yes"/>
      <point x="587" y="184"/>
      <point x="521" y="112"/>
    </contour>
    <contour>
      <point x="401" y="263" type="curve"/>
      <point x="453" y="263"/>
      <point x="490" y="299"/>
      <point x="490" y="347" type="curve" smooth="yes"/>
      <point x="490" y="395"/>
      <point x="453" y="432"/>
      <point x="401" y="432" type="curve" smooth="yes"/>
      <point x="349" y="432"/>
      <point x="312" y="395"/>
      <point x="312" y="347" type="curve" smooth="yes"/>
      <point x="312" y="299"/>
      <point x="349" y="263"/>
    </contour>
    <contour>
      <point x="394" y="680" type="move" name="top"/>
    </contour>
    <contour>
      <point x="394" y="0" type="move" name="bottom"/>
    </contour>
    <contour>
      <point x="393" y="153" type="move" name="_top"/>
    </contour>
  </outline>
</glyph>
<glyph name="uni02A0" format="1">
  <advance width="596"/>
  <unicode hex="02A0"/>
  <outline>
    <contour>
      <point x="567" y="764" type="curve" smooth="yes"/>
      <point x="424" y="764"/>
      <point x="356" y="675"/>
      <point x="356" y="565" type="curve" smooth="yes"/>
      <point x="356" y="502" type="line"/>
      <point x="329" y="535"/>
      <point x="289" y="554"/>
      <point x="235" y="554" type="curve" smooth="yes"/>
      <point x="103" y="554"/>
      <point x="17" y="436"/>
      <point x="17" y="270" type="curve" smooth="yes"/>
      <point x="17" y="94"/>
      <point x="81" y="-20"/>
      <point x="220" y="-20" type="curve" smooth="yes"/>
      <point x="285" y="-20"/>
      <point x="327" y="7"/>
      <point x="356" y="40" type="curve"/>
      <point x="356" y="-207" type="line"/>
      <point x="554" y="-227" type="line"/>
      <point x="554" y="568" type="line" smooth="yes"/>
      <point x="554" y="605"/>
      <point x="567" y="622"/>
      <point x="598" y="622" type="curve" smooth="yes"/>
      <point x="620" y="622"/>
      <point x="639" y="616"/>
      <point x="662" y="605" type="curve"/>
      <point x="714" y="727" type="line"/>
      <point x="679" y="747"/>
      <point x="632" y="764"/>
    </contour>
    <contour>
      <point x="289" y="122" type="curve" smooth="yes"/>
      <point x="251" y="122"/>
      <point x="220" y="140"/>
      <point x="220" y="268" type="curve" smooth="yes"/>
      <point x="220" y="376"/>
      <point x="254" y="413"/>
      <point x="298" y="413" type="curve" smooth="yes"/>
      <point x="322" y="413"/>
      <point x="338" y="402"/>
      <point x="356" y="383" type="curve"/>
      <point x="356" y="169" type="line"/>
      <point x="337" y="136"/>
      <point x="314" y="122"/>
    </contour>
    <contour>
      <point x="284" y="727" type="move" name="top"/>
    </contour>
    <contour>
      <point x="284" y="-188" type="move" name="bottom"/>
    </contour>
  </outline>
</glyph>
<glyph name="uni02A5" format="1">
  <advance width="1149"/>
  <unicode hex="02A5"/>
  <outline>
    <contour>
      <point x="932" y="-132" type="line"/>
      <point x="930" y="-89"/>
      <point x="931" y="-32"/>
      <point x="938" y="0" type="curve"/>
      <point x="1097" y="-1"/>
      <point x="1164" y="63"/>
      <point x="1164" y="165" type="curve" smooth="yes"/>
      <point x="1164" y="249"/>
      <point x="1105" y="297"/>
      <point x="1027" y="297" type="curve" smooth="yes"/>
      <point x="949" y="297"/>
      <point x="887" y="260"/>
      <point x="853" y="146" type="curve"/>
      <point x="766" y="146" type="line"/>
      <point x="1005" y="407" type="line"/>
      <point x="1005" y="534" type="line"/>
      <point x="559" y="534" type="line"/>
      <point x="559" y="744" type="line"/>
      <point x="361" y="764" type="line"/>
      <point x="361" y="512" type="line"/>
      <point x="331" y="539"/>
      <point x="290" y="554"/>
      <point x="250" y="554" type="curve" smooth="yes"/>
      <point x="108" y="554"/>
      <point x="22" y="436"/>
      <point x="22" y="270" type="curve" smooth="yes"/>
      <point x="22" y="94"/>
      <point x="86" y="-20"/>
      <point x="225" y="-20" type="curve" smooth="yes"/>
      <point x="302" y="-20"/>
      <point x="348" y="18"/>
      <point x="376" y="55" type="curve"/>
      <point x="383" y="0" type="line"/>
      <point x="833" y="0" type="line"/>
      <point x="829" y="-36"/>
      <point x="826" y="-82"/>
      <point x="827" y="-132" type="curve"/>
    </contour>
    <contour>
      <point x="294" y="122" type="curve" smooth="yes"/>
      <point x="256" y="122"/>
      <point x="225" y="140"/>
      <point x="225" y="268" type="curve" smooth="yes"/>
      <point x="225" y="376"/>
      <point x="259" y="413"/>
      <point x="303" y="413" type="curve" smooth="yes"/>
      <point x="327" y="413"/>
      <point x="343" y="402"/>
      <point x="361" y="383" type="curve"/>
      <point x="361" y="169" type="line"/>
      <point x="342" y="136"/>
      <point x="319" y="122"/>
    </contour>
    <contour>
      <point x="559" y="390" type="line"/>
      <point x="787" y="390" type="line"/>
      <point x="559" y="142" type="line"/>
    </contour>
    <contour>
      <point x="957" y="146" type="curve"/>
      <point x="968" y="184"/>
      <point x="986" y="201"/>
      <point x="1011" y="201" type="curve" smooth="yes"/>
      <point x="1028" y="201"/>
      <point x="1036" y="191"/>
      <point x="1036" y="178" type="curve" smooth="yes"/>
      <point x="1036" y="154"/>
      <point x="1013" y="146"/>
    </contour>
    <contour>
      <point x="418" y="-188" type="move" name="bottom"/>
    </contour>
    <contour>
      <point x="418" y="727" type="move" name="top"/>
    </contour>
    <contour>
      <point x="497" y="727" type="move" name="topright"/>
    </contour>
    <contour>
      <point x="289" y="259" type="move" name="center"/>
    </contour>
  </outline>
</glyph>
<glyph name="uni02A7" format="1">
  <advance width="658"/>
  <unicode hex="02A7"/>
  <outline>
    <contour>
      <point x="62" y="646" type="line"/>
      <point x="62" y="197" type="line" smooth="yes"/>
      <point x="62" y="56"/>
      <point x="130" y="-19"/>
      <point x="266" y="-20" type="curve" smooth="yes"/>
      <point x="316" y="-20"/>
      <point x="372" y="-5"/>
      <point x="416" y="22" type="curve"/>
      <point x="396" y="144" type="line"/>
      <point x="372" y="139"/>
      <point x="350" y="135"/>
      <point x="321" y="135" type="curve" smooth="yes"/>
      <point x="281" y="135"/>
      <point x="260" y="149"/>
      <point x="260" y="195" type="curve" smooth="yes"/>
      <point x="260" y="669" type="line"/>
    </contour>
    <contour>
      <point x="-2" y="534" type="line"/>
      <point x="-2" y="400" type="line"/>
      <point x="440" y="400" type="line"/>
      <point x="460" y="534" type="line"/>
    </contour>
    <contour>
      <point x="390" y="534" type="line"/>
      <point x="390" y="0" type="line"/>
      <point x="588" y="0" type="line"/>
      <point x="588" y="534" type="line"/>
    </contour>
    <contour>
      <point x="601" y="764" type="curve" smooth="yes"/>
      <point x="458" y="764"/>
      <point x="390" y="675"/>
      <point x="390" y="565" type="curve" smooth="yes"/>
      <point x="390" y="533" type="line"/>
      <point x="588" y="533" type="line"/>
      <point x="588" y="568" type="line" smooth="yes"/>
      <point x="588" y="605"/>
      <point x="601" y="622"/>
      <point x="632" y="622" type="curve" smooth="yes"/>
      <point x="654" y="622"/>
      <point x="673" y="616"/>
      <point x="696" y="605" type="curve"/>
      <point x="748" y="727" type="line"/>
      <point x="713" y="747"/>
      <point x="666" y="764"/>
    </contour>
    <contour>
      <point x="362" y="-227" type="curve" smooth="yes"/>
      <point x="497" y="-227"/>
      <point x="588" y="-157"/>
      <point x="588" y="-16" type="curve" smooth="yes"/>
      <point x="588" y="1" type="line"/>
      <point x="390" y="1" type="line"/>
      <point x="390" y="-34" type="line" smooth="yes"/>
      <point x="390" y="-69"/>
      <point x="371" y="-87"/>
      <point x="338" y="-87" type="curve" smooth="yes"/>
      <point x="310" y="-87"/>
      <point x="294" y="-79"/>
      <point x="270" y="-67" type="curve"/>
      <point x="206" y="-182" type="line"/>
      <point x="242" y="-208"/>
      <point x="291" y="-227"/>
    </contour>
    <contour>
      <point x="261" y="727" type="move" name="top"/>
    </contour>
    <contour>
      <point x="265" y="-188" type="move" name="bottom"/>
    </contour>
  </outline>
</glyph>
<glyph name="uni02A9" format="1">
  <advance width="887"/>
  <unicode hex="02A9"/>
  <outline>
    <contour>
      <point x="624" y="-227" type="curve" smooth="yes"/>
      <point x="759" y="-227"/>
      <point x="850" y="-157"/>
      <point x="850" y="-16" type="curve" smooth="yes"/>
      <point x="850" y="394" type="line" smooth="yes"/>
      <point x="850" y="496"/>
      <point x="795" y="554"/>
      <point x="706" y="554" type="curve" smooth="yes"/>
      <point x="642" y="554"/>
      <point x="593" y="531"/>
      <point x="544" y="479" type="curve"/>
      <point x="530" y="534" type="line"/>
      <point x="268" y="534" type="line"/>
      <point x="268" y="555" type="line" smooth="yes"/>
      <point x="268" y="605"/>
      <point x="285" y="622"/>
      <point x="323" y="622" type="curve" smooth="yes"/>
      <point x="345" y="622"/>
      <point x="373" y="617"/>
      <point x="401" y="602" type="curve"/>
      <point x="453" y="727" type="line"/>
      <point x="416" y="747"/>
      <point x="354" y="764"/>
      <point x="296" y="764" type="curve" smooth="yes"/>
      <point x="143" y="764"/>
      <point x="70" y="675"/>
      <point x="70" y="565" type="curve" smooth="yes"/>
      <point x="70" y="534" type="line"/>
      <point x="-2" y="534" type="line"/>
      <point x="-2" y="400" type="line"/>
      <point x="70" y="400" type="line"/>
      <point x="70" y="0" type="line"/>
      <point x="268" y="0" type="line"/>
      <point x="268" y="400" type="line"/>
      <point x="357" y="400" type="line"/>
      <point x="357" y="0" type="line"/>
      <point x="555" y="0" type="line"/>
      <point x="555" y="357" type="line"/>
      <point x="578" y="393"/>
      <point x="601" y="410"/>
      <point x="622" y="410" type="curve" smooth="yes"/>
      <point x="640" y="410"/>
      <point x="652" y="400"/>
      <point x="652" y="358" type="curve" smooth="yes"/>
      <point x="652" y="-34" type="line" smooth="yes"/>
      <point x="652" y="-69"/>
      <point x="633" y="-87"/>
      <point x="600" y="-87" type="curve" smooth="yes"/>
      <point x="572" y="-87"/>
      <point x="556" y="-79"/>
      <point x="532" y="-67" type="curve"/>
      <point x="468" y="-182" type="line"/>
      <point x="504" y="-208"/>
      <point x="553" y="-227"/>
    </contour>
    <contour>
      <point x="410" y="727" type="move" name="top"/>
    </contour>
    <contour>
      <point x="414" y="-188" type="move" name="bottom"/>
    </contour>
    <contour>
      <point x="404" y="517" type="move" name="topleft"/>
    </contour>
  </outline>
</glyph>
<glyph name="uni02AE" format="1">
  <advance width="707"/>
  <unicode hex="02AE"/>
  <outline>
    <contour>
      <point x="316" y="-20" type="curve" smooth="yes"/>
      <point x="386" y="-20"/>
      <point x="437" y="8"/>
      <point x="491" y="75" type="curve"/>
      <point x="467" y="177" type="line"/>
      <point x="444" y="141"/>
      <point x="421" y="124"/>
      <point x="400" y="124" type="curve" smooth="yes"/>
      <point x="382" y="124"/>
      <point x="370" y="134"/>
      <point x="370" y="176" type="curve" smooth="yes"/>
      <point x="370" y="328" type="line"/>
      <point x="172" y="328" type="line"/>
      <point x="172" y="140" type="line" smooth="yes"/>
      <point x="172" y="38"/>
      <point x="227" y="-20"/>
    </contour>
    <contour>
      <point x="665" y="-227" type="line"/>
      <point x="665" y="534" type="line"/>
      <point x="467" y="534" type="line"/>
      <point x="467" y="-207" type="line"/>
    </contour>
    <contour>
      <point x="144" y="555" type="curve" smooth="yes"/>
      <point x="73" y="555"/>
      <point x="24" y="536"/>
      <point x="-12" y="510" type="curve"/>
      <point x="52" y="395" type="line"/>
      <point x="76" y="407"/>
      <point x="92" y="415"/>
      <point x="120" y="415" type="curve" smooth="yes"/>
      <point x="153" y="415"/>
      <point x="172" y="397"/>
      <point x="172" y="362" type="curve" smooth="yes"/>
      <point x="172" y="327" type="line"/>
      <point x="370" y="327" type="line"/>
      <point x="370" y="344" type="line" smooth="yes"/>
      <point x="370" y="485"/>
      <point x="279" y="555"/>
    </contour>
    <contour>
      <point x="347" y="517" type="move" name="top"/>
    </contour>
    <contour>
      <point x="336" y="-188" type="move" name="bottom"/>
    </contour>
  </outline>
</glyph>
<glyph name="uni02AF" format="1">
  <advance width="707"/>
  <unicode hex="02AF"/>
  <outline>
    <contour>
      <point x="316" y="-20" type="curve" smooth="yes"/>
      <point x="386" y="-20"/>
      <point x="437" y="8"/>
      <point x="491" y="75" type="curve"/>
      <point x="467" y="177" type="line"/>
      <point x="444" y="141"/>
      <point x="421" y="124"/>
      <point x="400" y="124" type="curve" smooth="yes"/>
      <point x="382" y="124"/>
      <point x="370" y="134"/>
      <point x="370" y="176" type="curve" smooth="yes"/>
      <point x="370" y="328" type="line"/>
      <point x="172" y="328" type="line"/>
      <point x="172" y="140" type="line" smooth="yes"/>
      <point x="172" y="38"/>
      <point x="227" y="-20"/>
    </contour>
    <contour>
      <point x="665" y="0" type="line"/>
      <point x="665" y="534" type="line"/>
      <point x="467" y="534" type="line"/>
      <point x="467" y="0" type="line"/>
    </contour>
    <contour>
      <point x="144" y="555" type="curve" smooth="yes"/>
      <point x="73" y="555"/>
      <point x="24" y="536"/>
      <point x="-12" y="510" type="curve"/>
      <point x="52" y="395" type="line"/>
      <point x="76" y="407"/>
      <point x="92" y="415"/>
      <point x="120" y="415" type="curve" smooth="yes"/>
      <point x="153" y="415"/>
      <point x="172" y="397"/>
      <point x="172" y="362" type="curve" smooth="yes"/>
      <point x="172" y="327" type="line"/>
      <point x="370" y="327" type="line"/>
      <point x="370" y="344" type="line" smooth="yes"/>
      <point x="370" y="485"/>
      <point x="279" y="555"/>
    </contour>
    <contour>
      <point x="693" y="-227" type="curve" smooth="yes"/>
      <point x="764" y="-227"/>
      <point x="813" y="-208"/>
      <point x="849" y="-182" type="curve"/>
      <point x="785" y="-67" type="line"/>
      <point x="761" y="-79"/>
      <point x="745" y="-87"/>
      <point x="717" y="-87" type="curve" smooth="yes"/>
      <point x="684" y="-87"/>
      <point x="665" y="-69"/>
      <point x="665" y="-34" type="curve" smooth="yes"/>
      <point x="665" y="1" type="line"/>
      <point x="467" y="1" type="line"/>
      <point x="467" y="-16" type="line" smooth="yes"/>
      <point x="467" y="-157"/>
      <point x="558" y="-227"/>
    </contour>
    <contour>
      <point x="347" y="517" type="move" name="top"/>
    </contour>
    <contour>
      <point x="336" y="-188" type="move" name="bottom"/>
    </contour>
  </outline>
</glyph>
<glyph name="uni0304" format="1">
  <advance width="385"/>
  <unicode hex="0304"/>
  <outline>
    <contour>
      <point x="355" y="782" type="line"/>
      <point x="30" y="782" type="line"/>
      <point x="30" y="648" type="line"/>
      <point x="355" y="648" type="line"/>
    </contour>
    <contour>
      <point x="127" y="691" type="move" name="top"/>
    </contour>
    <contour>
      <point x="125" y="517" type="move" name="_top"/>
    </contour>
  </outline>
</glyph>
<glyph name="uni0307" format="1">
  <advance width="282"/>
  <unicode hex="0307"/>
  <outline>
    <contour>
      <point x="141" y="829" type="curve" smooth="yes"/>
      <point x="76" y="829"/>
      <point x="30" y="783"/>
      <point x="30" y="723" type="curve" smooth="yes"/>
      <point x="30" y="663"/>
      <point x="76" y="617"/>
      <point x="141" y="617" type="curve"/>
      <point x="206" y="617"/>
      <point x="252" y="663"/>
      <point x="252" y="723" type="curve" smooth="yes"/>
      <point x="252" y="783"/>
      <point x="206" y="829"/>
    </contour>
    <contour>
      <point x="36" y="700" type="move" name="_center"/>
    </contour>
    <contour>
      <point x="36" y="706" type="move" name="top"/>
    </contour>
    <contour>
      <point x="36" y="517" type="move" name="_top"/>
    </contour>
  </outline>
</glyph>
<glyph name="uni0308" format="1">
  <advance width="499"/>
  <unicode hex="0308"/>
  <outline>
    <contour>
      <point x="372" y="818" type="curve" smooth="yes"/>
      <point x="320" y="818"/>
      <point x="277" y="777"/>
      <point x="277" y="726" type="curve" smooth="yes"/>
      <point x="277" y="674"/>
      <point x="320" y="633"/>
      <point x="372" y="633" type="curve" smooth="yes"/>
      <point x="426" y="633"/>
      <point x="467" y="674"/>
      <point x="467" y="726" type="curve" smooth="yes"/>
      <point x="467" y="777"/>
      <point x="426" y="818"/>
    </contour>
    <contour>
      <point x="127" y="818" type="curve" smooth="yes"/>
      <point x="75" y="818"/>
      <point x="32" y="777"/>
      <point x="32" y="726" type="curve" smooth="yes"/>
      <point x="32" y="674"/>
      <point x="75" y="633"/>
      <point x="127" y="633" type="curve" smooth="yes"/>
      <point x="181" y="633"/>
      <point x="222" y="674"/>
      <point x="222" y="726" type="curve" smooth="yes"/>
      <point x="222" y="777"/>
      <point x="181" y="818"/>
    </contour>
    <contour>
      <point x="113" y="691" type="move" name="top"/>
    </contour>
    <contour>
      <point x="111" y="517" type="move" name="_top"/>
    </contour>
  </outline>
</glyph>
<glyph name="uni030A" format="1">
  <advance width="368"/>
  <unicode hex="030A"/>
  <outline>
    <contour>
      <point x="184" y="886" type="curve"/>
      <point x="87" y="886"/>
      <point x="30" y="818"/>
      <point x="30" y="740" type="curve" smooth="yes"/>
      <point x="30" y="662"/>
      <point x="87" y="593"/>
      <point x="184" y="593" type="curve"/>
      <point x="281" y="593"/>
      <point x="338" y="662"/>
      <point x="338" y="740" type="curve" smooth="yes"/>
      <point x="338" y="818"/>
      <point x="281" y="886"/>
    </contour>
    <contour>
      <point x="184" y="786" type="curve"/>
      <point x="207" y="786"/>
      <point x="224" y="772"/>
      <point x="224" y="740" type="curve" smooth="yes"/>
      <point x="224" y="708"/>
      <point x="207" y="694"/>
      <point x="184" y="694" type="curve"/>
      <point x="161" y="694"/>
      <point x="144" y="708"/>
      <point x="144" y="740" type="curve" smooth="yes"/>
      <point x="144" y="772"/>
      <point x="161" y="786"/>
    </contour>
    <contour>
      <point x="95" y="782" type="move" name="top"/>
    </contour>
    <contour>
      <point x="93" y="517" type="move" name="_top"/>
    </contour>
  </outline>
</glyph>
<glyph name="uni031A" format="1">
  <advance width="287"/>
  <unicode hex="031A"/>
  <outline>
    <contour>
      <point x="30" y="715" type="line"/>
      <point x="144" y="715" type="line"/>
      <point x="144" y="596" type="line"/>
      <point x="257" y="596" type="line"/>
      <point x="257" y="815" type="line"/>
      <point x="30" y="815" type="line"/>
    </contour>
    <contour>
      <point x="102" y="738" type="move" name="top"/>
    </contour>
    <contour>
      <point x="100" y="517" type="move" name="_top"/>
    </contour>
  </outline>
</glyph>
<glyph name="uni0372" format="1">
  <advance width="694"/>
  <unicode hex="0372"/>
  <outline>
    <contour>
      <point x="450" y="0" type="line"/>
      <point x="450" y="546" type="line"/>
      <point x="513" y="546" type="line"/>
      <point x="513" y="367" type="line"/>
      <point x="689" y="367" type="line"/>
      <point x="689" y="696" type="line"/>
      <point x="5" y="696" type="line"/>
      <point x="5" y="367" type="line"/>
      <point x="181" y="367" type="line"/>
      <point x="181" y="546" type="line"/>
      <point x="244" y="546" type="line"/>
      <point x="244" y="0" type="line"/>
    </contour>
    <contour>
      <point x="247" y="680" type="move" name="top"/>
    </contour>
    <contour>
      <point x="247" y="0" type="move" name="bottom"/>
    </contour>
  </outline>
</glyph>
<glyph name="eta" format="1">
  <advance width="572"/>
  <unicode hex="03B7"/>
  <outline>
    <contour>
      <point x="391" y="554" type="curve" smooth="yes"/>
      <point x="328" y="554"/>
      <point x="280" y="532"/>
      <point x="232" y="482" type="curve"/>
      <point x="226" y="514"/>
      <point x="220" y="533"/>
      <point x="210" y="548" type="curve"/>
      <point x="27" y="524" type="line"/>
      <point x="40" y="486"/>
      <point x="46" y="442"/>
      <point x="46" y="397" type="curve" smooth="yes"/>
      <point x="46" y="0" type="line"/>
      <point x="244" y="0" type="line"/>
      <point x="244" y="362" type="line"/>
      <point x="265" y="395"/>
      <point x="287" y="410"/>
      <point x="307" y="410" type="curve" smooth="yes"/>
      <point x="325" y="410"/>
      <point x="337" y="400"/>
      <point x="337" y="358" type="curve" smooth="yes"/>
      <point x="337" y="-207" type="line"/>
      <point x="535" y="-227" type="line"/>
      <point x="535" y="391" type="line" smooth="yes"/>
      <point x="535" y="496"/>
      <point x="480" y="554"/>
    </contour>
    <contour>
      <point x="295" y="517" type="move" name="top"/>
    </contour>
    <contour>
      <point x="125" y="0" type="move" name="bottom"/>
    </contour>
  </outline>
</glyph>
<glyph name="theta" format="1">
  <advance width="556"/>
  <unicode hex="03B8"/>
  <outline>
    <contour>
      <point x="278" y="764" type="curve" smooth="yes"/>
      <point x="110" y="764"/>
      <point x="17" y="635"/>
      <point x="17" y="373" type="curve" smooth="yes"/>
      <point x="17" y="107"/>
      <point x="110" y="-20"/>
      <point x="278" y="-20" type="curve" smooth="yes"/>
      <point x="446" y="-20"/>
      <point x="539" y="107"/>
      <point x="539" y="373" type="curve" smooth="yes"/>
      <point x="539" y="636"/>
      <point x="446" y="764"/>
    </contour>
    <contour>
      <point x="278" y="626" type="curve" smooth="yes"/>
      <point x="328" y="626"/>
      <point x="352" y="597"/>
      <point x="356" y="427" type="curve"/>
      <point x="198" y="427" type="line"/>
      <point x="202" y="597"/>
      <point x="228" y="626"/>
    </contour>
    <contour>
      <point x="278" y="118" type="curve" smooth="yes"/>
      <point x="230" y="118"/>
      <point x="203" y="150"/>
      <point x="198" y="321" type="curve"/>
      <point x="356" y="321" type="line"/>
      <point x="352" y="150"/>
      <point x="325" y="118"/>
    </contour>
    <contour>
      <point x="275" y="727" type="move" name="top"/>
    </contour>
    <contour>
      <point x="275" y="0" type="move" name="bottom"/>
    </contour>
  </outline>
</glyph>
<glyph name="uni03CF" format="1">
  <advance width="689"/>
  <unicode hex="03CF"/>
  <outline>
    <contour>
      <point x="483" y="0" type="line"/>
      <point x="689" y="0" type="line"/>
      <point x="689" y="154" type="line"/>
      <point x="483" y="154" type="line"/>
    </contour>
    <contour>
      <point x="449" y="696" type="line"/>
      <point x="255" y="371" type="line"/>
      <point x="445" y="0" type="line"/>
      <point x="679" y="0" type="line"/>
      <point x="464" y="387" type="line"/>
      <point x="661" y="696" type="line"/>
    </contour>
    <contour>
      <point x="43" y="696" type="line"/>
      <point x="43" y="0" type="line"/>
      <point x="249" y="0" type="line"/>
      <point x="249" y="696" type="line"/>
    </contour>
    <contour>
      <point x="458" y="-227" type="curve" smooth="yes"/>
      <point x="596" y="-227"/>
      <point x="689" y="-157"/>
      <point x="689" y="-16" type="curve" smooth="yes"/>
      <point x="689" y="1" type="line"/>
      <point x="483" y="1" type="line"/>
      <point x="483" y="-29" type="line" smooth="yes"/>
      <point x="483" y="-64"/>
      <point x="464" y="-82"/>
      <point x="433" y="-82" type="curve" smooth="yes"/>
      <point x="405" y="-82"/>
      <point x="389" y="-74"/>
      <point x="365" y="-62" type="curve"/>
      <point x="301" y="-182" type="line"/>
      <point x="337" y="-208"/>
      <point x="386" y="-227"/>
    </contour>
    <contour>
      <point x="284" y="680" type="move" name="top"/>
    </contour>
    <contour>
      <point x="275" y="-188" type="move" name="bottom"/>
    </contour>
  </outline>
</glyph>
<glyph name="uni03D8" format="1">
  <advance width="690"/>
  <unicode hex="03D8"/>
  <outline>
    <contour>
      <point x="670" y="349" type="curve" smooth="yes"/>
      <point x="670" y="580"/>
      <point x="554" y="716"/>
      <point x="345" y="716" type="curve" smooth="yes"/>
      <point x="136" y="716"/>
      <point x="20" y="575"/>
      <point x="20" y="349" type="curve" smooth="yes"/>
      <point x="20" y="155"/>
      <point x="102" y="27"/>
      <point x="251" y="-9" type="curve"/>
      <point x="251" y="-215" type="line"/>
      <point x="440" y="-215" type="line"/>
      <point x="440" y="-9" type="line"/>
      <point x="589" y="29"/>
      <point x="670" y="160"/>
    </contour>
    <contour>
      <point x="345" y="126" type="curve" smooth="yes"/>
      <point x="267" y="126"/>
      <point x="234" y="188"/>
      <point x="234" y="349" type="curve" smooth="yes"/>
      <point x="234" y="510"/>
      <point x="267" y="570"/>
      <point x="345" y="570" type="curve" smooth="yes"/>
      <point x="423" y="570"/>
      <point x="456" y="510"/>
      <point x="456" y="349" type="curve" smooth="yes"/>
      <point x="456" y="188"/>
      <point x="425" y="126"/>
    </contour>
    <contour>
      <point x="422" y="0" type="move" name="ogonek"/>
    </contour>
    <contour>
      <point x="344" y="680" type="move" name="top"/>
    </contour>
    <contour>
      <point x="517" y="680" type="move" name="topright"/>
    </contour>
    <contour>
      <point x="102" y="680" type="move" name="topleft"/>
    </contour>
    <contour>
      <point x="344" y="-188" type="move" name="bottom"/>
    </contour>
  </outline>
</glyph>
<glyph name="uni03DC" format="1">
  <advance width="516"/>
  <unicode hex="03DC"/>
  <outline>
    <contour>
      <point x="516" y="696" type="line"/>
      <point x="43" y="696" type="line"/>
      <point x="43" y="0" type="line"/>
      <point x="249" y="0" type="line"/>
      <point x="249" y="258" type="line"/>
      <point x="335" y="258" type="line" smooth="yes"/>
      <point x="376" y="258"/>
      <point x="401" y="252"/>
      <point x="429" y="242" type="curve"/>
      <point x="474" y="370" type="line"/>
      <point x="441" y="392"/>
      <point x="401" y="402"/>
      <point x="345" y="402" type="curve" smooth="yes"/>
      <point x="249" y="402" type="line"/>
      <point x="249" y="538" type="line"/>
      <point x="496" y="538" type="line"/>
    </contour>
    <contour>
      <point x="330" y="680" type="move" name="top"/>
    </contour>
    <contour>
      <point x="131" y="0" type="move" name="bottom"/>
    </contour>
    <contour>
      <point x="142" y="0" type="move" name="bottomright"/>
    </contour>
  </outline>
</glyph>
<glyph name="uni03DE" format="1">
  <advance width="518"/>
  <unicode hex="03DE"/>
  <outline>
    <contour>
      <point x="231" y="426" type="line"/>
      <point x="418" y="696" type="line"/>
      <point x="189" y="696" type="line"/>
      <point x="10" y="426" type="line"/>
      <point x="40" y="271" type="line"/>
      <point x="290" y="271" type="line"/>
      <point x="100" y="0" type="line"/>
      <point x="329" y="0" type="line"/>
      <point x="508" y="271" type="line"/>
      <point x="478" y="426" type="line"/>
    </contour>
    <contour>
      <point x="220" y="680" type="move" name="top"/>
    </contour>
    <contour>
      <point x="220" y="0" type="move" name="bottom"/>
    </contour>
  </outline>
</glyph>
<glyph name="uni03FC" format="1">
  <advance width="594"/>
  <unicode hex="03FC"/>
  <outline>
    <contour>
      <point x="-15" y="-152" type="line"/>
      <point x="37" y="-152" type="line"/>
      <point x="359" y="-152" type="line"/>
      <point x="359" y="-46" type="line"/>
      <point x="-15" y="-46" type="line"/>
    </contour>
    <contour>
      <point x="301" y="554" type="curve" smooth="yes"/>
      <point x="121" y="554"/>
      <point x="37" y="452"/>
      <point x="37" y="277" type="curve" smooth="yes"/>
      <point x="37" y="-227" type="line"/>
      <point x="235" y="-207" type="line"/>
      <point x="235" y="263" type="line" smooth="yes"/>
      <point x="235" y="373"/>
      <point x="253" y="413"/>
      <point x="301" y="413" type="curve" smooth="yes"/>
      <point x="339" y="413"/>
      <point x="369" y="391"/>
      <point x="369" y="266" type="curve" smooth="yes"/>
      <point x="369" y="158"/>
      <point x="339" y="121"/>
      <point x="298" y="121" type="curve"/>
      <point x="266" y="121"/>
      <point x="246" y="136"/>
      <point x="223" y="188" type="curve"/>
      <point x="214" y="71" type="line"/>
      <point x="255" y="2"/>
      <point x="303" y="-20"/>
      <point x="359" y="-20" type="curve"/>
      <point x="487" y="-20"/>
      <point x="572" y="103"/>
      <point x="572" y="269" type="curve" smooth="yes"/>
      <point x="572" y="458"/>
      <point x="474" y="554"/>
    </contour>
    <contour>
      <point x="294" y="517" type="move" name="top"/>
    </contour>
    <contour>
      <point x="278" y="-188" type="move" name="bottom"/>
    </contour>
  </outline>
</glyph>
<glyph name="uni0402" format="1">
  <advance width="770"/>
  <unicode hex="0402"/>
  <outline>
    <contour>
      <point x="523" y="481" type="curve" smooth="yes"/>
      <point x="465" y="481"/>
      <point x="420" y="465"/>
      <point x="380" y="434" type="curve"/>
      <point x="380" y="546" type="line"/>
      <point x="538" y="546" type="line"/>
      <point x="559" y="696" type="line"/>
      <point x="5" y="696" type="line"/>
      <point x="5" y="546" type="line"/>
      <point x="174" y="546" type="line"/>
      <point x="174" y="0" type="line"/>
      <point x="380" y="0" type="line"/>
      <point x="380" y="308" type="line"/>
      <point x="401" y="324"/>
      <point x="427" y="335"/>
      <point x="465" y="335" type="curve" smooth="yes"/>
      <point x="521" y="335"/>
      <point x="544" y="302"/>
      <point x="544" y="225" type="curve" smooth="yes"/>
      <point x="544" y="118" type="line" smooth="yes"/>
      <point x="544" y="41"/>
      <point x="535" y="-10"/>
      <point x="446" y="-44" type="curve"/>
      <point x="501" y="-189" type="line"/>
      <point x="622" y="-149"/>
      <point x="750" y="-83"/>
      <point x="750" y="111" type="curve" smooth="yes"/>
      <point x="750" y="225" type="line" smooth="yes"/>
      <point x="750" y="383"/>
      <point x="671" y="481"/>
    </contour>
    <contour>
      <point x="346" y="680" type="move" name="top"/>
    </contour>
    <contour>
      <point x="346" y="-188" type="move" name="bottom"/>
    </contour>
  </outline>
</glyph>
<glyph name="uni040B" format="1">
  <advance width="770"/>
  <unicode hex="040B"/>
  <outline>
    <contour>
      <point x="5" y="696" type="line"/>
      <point x="5" y="546" type="line"/>
      <point x="538" y="546" type="line"/>
      <point x="559" y="696" type="line"/>
    </contour>
    <contour>
      <point x="523" y="481" type="curve" smooth="yes"/>
      <point x="459" y="481"/>
      <point x="411" y="461"/>
      <point x="368" y="424" type="curve"/>
      <point x="369" y="298" type="line"/>
      <point x="392" y="320"/>
      <point x="420" y="335"/>
      <point x="465" y="335" type="curve" smooth="yes"/>
      <point x="521" y="335"/>
      <point x="544" y="302"/>
      <point x="544" y="225" type="curve" smooth="yes"/>
      <point x="544" y="0" type="line"/>
      <point x="750" y="0" type="line"/>
      <point x="750" y="225" type="line" smooth="yes"/>
      <point x="750" y="383"/>
      <point x="671" y="481"/>
    </contour>
    <contour>
      <point x="174" y="696" type="line"/>
      <point x="174" y="0" type="line"/>
      <point x="380" y="0" type="line"/>
      <point x="380" y="696" type="line"/>
    </contour>
    <contour>
      <point x="399" y="680" type="move" name="top"/>
    </contour>
    <contour>
      <point x="399" y="0" type="move" name="bottom"/>
    </contour>
    <contour>
      <point x="622" y="0" type="move" name="bottomright"/>
    </contour>
  </outline>
</glyph>
<glyph name="uni0414" format="1">
  <advance width="642"/>
  <unicode hex="0414"/>
  <outline>
    <contour>
      <point x="583" y="696" type="line"/>
      <point x="146" y="696" type="line"/>
      <point x="118" y="467" type="line" smooth="yes"/>
      <point x="93" y="271"/>
      <point x="71" y="198"/>
      <point x="38" y="154" type="curve"/>
      <point x="-15" y="154" type="line"/>
      <point x="-15" y="-175" type="line"/>
      <point x="122" y="-175" type="line"/>
      <point x="142" y="0" type="line"/>
      <point x="490" y="0" type="line"/>
      <point x="510" y="-175" type="line"/>
      <point x="647" y="-175" type="line"/>
      <point x="647" y="154" type="line"/>
      <point x="583" y="154" type="line"/>
    </contour>
    <contour>
      <point x="198" y="154" type="line"/>
      <point x="259" y="205"/>
      <point x="294" y="293"/>
      <point x="313" y="492" type="curve" smooth="yes"/>
      <point x="318" y="549" type="line"/>
      <point x="385" y="549" type="line"/>
      <point x="385" y="154" type="line"/>
    </contour>
    <contour>
      <point x="501" y="0" type="move" name="_bottom"/>
    </contour>
    <contour>
      <point x="294" y="-188" type="move" name="bottom"/>
    </contour>
    <contour>
      <point x="294" y="680" type="move" name="top"/>
    </contour>
  </outline>
</glyph>
<glyph name="uni0418" format="1">
  <advance width="651"/>
  <unicode hex="0418"/>
  <outline>
    <contour>
      <point x="369" y="696" type="line"/>
      <point x="214" y="200" type="line"/>
      <point x="228" y="272"/>
      <point x="244" y="348"/>
      <point x="244" y="475" type="curve"/>
      <point x="244" y="696" type="line"/>
      <point x="43" y="696" type="line"/>
      <point x="43" y="0" type="line"/>
      <point x="287" y="0" type="line"/>
      <point x="437" y="501" type="line"/>
      <point x="422" y="432"/>
      <point x="407" y="342"/>
      <point x="407" y="213" type="curve"/>
      <point x="407" y="0" type="line"/>
      <point x="608" y="0" type="line"/>
      <point x="608" y="696" type="line"/>
    </contour>
    <contour>
      <point x="334" y="680" type="move" name="top"/>
    </contour>
    <contour>
      <point x="327" y="0" type="move" name="bottom"/>
    </contour>
    <contour>
      <point x="533" y="0" type="move" name="bottomright"/>
    </contour>
  </outline>
</glyph>
<glyph name="uni0427" format="1">
  <advance width="623"/>
  <unicode hex="0427"/>
  <outline>
    <contour>
      <point x="374" y="368" type="line"/>
      <point x="354" y="351"/>
      <point x="331" y="341"/>
      <point x="293" y="341" type="curve" smooth="yes"/>
      <point x="234" y="341"/>
      <point x="212" y="374"/>
      <point x="212" y="451" type="curve" smooth="yes"/>
      <point x="212" y="696" type="line"/>
      <point x="10" y="696" type="line"/>
      <point x="10" y="451" type="line" smooth="yes"/>
      <point x="10" y="293"/>
      <point x="89" y="195"/>
      <point x="232" y="195" type="curve" smooth="yes"/>
      <point x="290" y="195"/>
      <point x="335" y="211"/>
      <point x="374" y="244" type="curve"/>
      <point x="374" y="0" type="line"/>
      <point x="580" y="0" type="line"/>
      <point x="580" y="696" type="line"/>
      <point x="374" y="696" type="line"/>
    </contour>
    <contour>
      <point x="248" y="680" type="move" name="top"/>
    </contour>
    <contour>
      <point x="414" y="0" type="move" name="bottomleft"/>
    </contour>
    <contour>
      <point x="446" y="0" type="move" name="bottomright"/>
    </contour>
    <contour>
      <point x="283" y="0" type="move" name="bottom"/>
    </contour>
  </outline>
</glyph>
<glyph name="uni042A" format="1">
  <advance width="732"/>
  <unicode hex="042A"/>
  <outline>
    <contour>
      <point x="375" y="469" type="line"/>
      <point x="375" y="696" type="line"/>
      <point x="0" y="696" type="line"/>
      <point x="0" y="546" type="line"/>
      <point x="169" y="546" type="line"/>
      <point x="169" y="0" type="line"/>
      <point x="447" y="0" type="line" smooth="yes"/>
      <point x="606" y="0"/>
      <point x="722" y="80"/>
      <point x="722" y="242" type="curve" smooth="yes"/>
      <point x="722" y="395"/>
      <point x="619" y="469"/>
      <point x="439" y="469" type="curve" smooth="yes"/>
    </contour>
    <contour>
      <point x="375" y="145" type="line"/>
      <point x="375" y="331" type="line"/>
      <point x="416" y="331" type="line" smooth="yes"/>
      <point x="484" y="331"/>
      <point x="508" y="295"/>
      <point x="508" y="240" type="curve" smooth="yes"/>
      <point x="508" y="181"/>
      <point x="481" y="145"/>
      <point x="420" y="145" type="curve" smooth="yes"/>
    </contour>
    <contour>
      <point x="303" y="680" type="move" name="top"/>
    </contour>
    <contour>
      <point x="303" y="0" type="move" name="bottom"/>
    </contour>
  </outline>
</glyph>
<glyph name="uni042E" format="1">
  <advance width="951"/>
  <unicode hex="042E"/>
  <outline>
    <contour>
      <point x="616" y="716" type="curve" smooth="yes"/>
      <point x="442" y="716"/>
      <point x="348" y="614"/>
      <point x="318" y="439" type="curve"/>
      <point x="249" y="439" type="line"/>
      <point x="249" y="696" type="line"/>
      <point x="43" y="696" type="line"/>
      <point x="43" y="0" type="line"/>
      <point x="249" y="0" type="line"/>
      <point x="249" y="281" type="line"/>
      <point x="314" y="281" type="line"/>
      <point x="333" y="94"/>
      <point x="430" y="-20"/>
      <point x="616" y="-20" type="curve" smooth="yes"/>
      <point x="820" y="-20"/>
      <point x="931" y="123"/>
      <point x="931" y="349" type="curve" smooth="yes"/>
      <point x="931" y="580"/>
      <point x="820" y="716"/>
    </contour>
    <contour>
      <point x="616" y="126" type="curve" smooth="yes"/>
      <point x="545" y="126"/>
      <point x="515" y="188"/>
      <point x="515" y="349" type="curve" smooth="yes"/>
      <point x="515" y="510"/>
      <point x="545" y="570"/>
      <point x="616" y="570" type="curve" smooth="yes"/>
      <point x="687" y="570"/>
      <point x="717" y="510"/>
      <point x="717" y="349" type="curve" smooth="yes"/>
      <point x="717" y="188"/>
      <point x="689" y="126"/>
    </contour>
    <contour>
      <point x="423" y="680" type="move" name="top"/>
    </contour>
    <contour>
      <point x="423" y="0" type="move" name="bottom"/>
    </contour>
  </outline>
</glyph>
<glyph name="uni0434" format="1">
  <advance width="553"/>
  <unicode hex="0434"/>
  <outline>
    <contour>
      <point x="155" y="135" type="line"/>
      <point x="223" y="158"/>
      <point x="253" y="221"/>
      <point x="268" y="379" type="curve" smooth="yes"/>
      <point x="271" y="410" type="line"/>
      <point x="324" y="410" type="line"/>
      <point x="324" y="142" type="line"/>
      <point x="31" y="142" type="line"/>
      <point x="31" y="0" type="line"/>
      <point x="506" y="0" type="line"/>
      <point x="506" y="534" type="line"/>
      <point x="104" y="534" type="line"/>
      <point x="89" y="363" type="line" smooth="yes"/>
      <point x="74" y="196"/>
      <point x="57" y="162"/>
      <point x="31" y="142" type="curve"/>
    </contour>
    <contour>
      <point x="351" y="142" type="line"/>
      <point x="373" y="0" type="line"/>
      <point x="413" y="0" type="line"/>
      <point x="433" y="-175" type="line"/>
      <point x="563" y="-175" type="line"/>
      <point x="563" y="142" type="line"/>
    </contour>
    <contour>
      <point x="0" y="-175" type="line"/>
      <point x="130" y="-175" type="line"/>
      <point x="150" y="0" type="line"/>
      <point x="190" y="0" type="line"/>
      <point x="212" y="142" type="line"/>
      <point x="0" y="142" type="line"/>
    </contour>
    <contour>
      <point x="457" y="0" type="move" name="_bottom"/>
    </contour>
    <contour>
      <point x="269" y="-188" type="move" name="bottom"/>
    </contour>
    <contour>
      <point x="269" y="517" type="move" name="top"/>
    </contour>
  </outline>
</glyph>
<glyph name="uni043A" format="1">
  <advance width="566"/>
  <unicode hex="043A"/>
  <outline>
    <contour>
      <point x="385" y="534" type="line"/>
      <point x="282" y="329" type="line"/>
      <point x="240" y="329" type="line"/>
      <point x="240" y="534" type="line"/>
      <point x="42" y="534" type="line"/>
      <point x="42" y="0" type="line"/>
      <point x="240" y="0" type="line"/>
      <point x="240" y="219" type="line"/>
      <point x="277" y="219" type="line"/>
      <point x="374" y="0" type="line"/>
      <point x="576" y="0" type="line"/>
      <point x="439" y="286" type="line"/>
      <point x="568" y="534" type="line"/>
    </contour>
    <contour>
      <point x="265" y="517" type="move" name="top"/>
    </contour>
    <contour>
      <point x="234" y="0" type="move" name="bottom"/>
    </contour>
    <contour>
      <point x="435" y="0" type="move" name="bottomright"/>
    </contour>
  </outline>
</glyph>
<glyph name="uni0442" format="1">
  <advance width="485"/>
  <unicode hex="0442"/>
  <outline>
    <contour>
      <point x="0" y="534" type="line"/>
      <point x="0" y="391" type="line"/>
      <point x="144" y="391" type="line"/>
      <point x="144" y="0" type="line"/>
      <point x="342" y="0" type="line"/>
      <point x="342" y="391" type="line"/>
      <point x="470" y="391" type="line"/>
      <point x="495" y="534" type="line"/>
    </contour>
    <contour>
      <point x="205" y="517" type="move" name="top"/>
    </contour>
    <contour>
      <point x="205" y="0" type="move" name="bottom"/>
    </contour>
    <contour>
      <point x="216" y="0" type="move" name="bottomright"/>
    </contour>
  </outline>
</glyph>
<glyph name="uni0448" format="1">
  <advance width="773"/>
  <unicode hex="0448"/>
  <outline>
    <contour>
      <point x="543" y="534" type="line"/>
      <point x="543" y="142" type="line"/>
      <point x="468" y="142" type="line"/>
      <point x="468" y="534" type="line"/>
      <point x="305" y="534" type="line"/>
      <point x="305" y="142" type="line"/>
      <point x="230" y="142" type="line"/>
      <point x="230" y="534" type="line"/>
      <point x="42" y="534" type="line"/>
      <point x="42" y="0" type="line"/>
      <point x="731" y="0" type="line"/>
      <point x="731" y="534" type="line"/>
    </contour>
    <contour>
      <point x="401" y="517" type="move" name="top"/>
    </contour>
    <contour>
      <point x="401" y="0" type="move" name="bottom"/>
    </contour>
    <contour>
      <point x="687" y="0" type="move" name="bottomright"/>
    </contour>
  </outline>
</glyph>
<glyph name="uni044A" format="1">
  <advance width="623"/>
  <unicode hex="044A"/>
  <outline>
    <contour>
      <point x="327" y="534" type="line"/>
      <point x="-5" y="534" type="line"/>
      <point x="-5" y="395" type="line"/>
      <point x="139" y="395" type="line"/>
    </contour>
    <contour>
      <point x="321" y="251" type="line"/>
      <point x="352" y="251" type="line" smooth="yes"/>
      <point x="401" y="251"/>
      <point x="419" y="229"/>
      <point x="419" y="188" type="curve" smooth="yes"/>
      <point x="419" y="149"/>
      <point x="401" y="123"/>
      <point x="360" y="123" type="curve" smooth="yes"/>
      <point x="337" y="123" type="line"/>
      <point x="337" y="534" type="line"/>
      <point x="139" y="534" type="line"/>
      <point x="139" y="0" type="line"/>
      <point x="382" y="0" type="line" smooth="yes"/>
      <point x="525" y="0"/>
      <point x="618" y="64"/>
      <point x="618" y="184" type="curve" smooth="yes"/>
      <point x="618" y="309"/>
      <point x="537" y="371"/>
      <point x="355" y="371" type="curve" smooth="yes"/>
      <point x="321" y="371" type="line"/>
    </contour>
    <contour>
      <point x="281" y="517" type="move" name="top"/>
    </contour>
    <contour>
      <point x="281" y="0" type="move" name="bottom"/>
    </contour>
  </outline>
</glyph>
<glyph name="uni0464" format="1">
  <advance width="869"/>
  <unicode hex="0464"/>
  <outline>
    <contour>
      <point x="788" y="189" type="line"/>
      <point x="748" y="156"/>
      <point x="706" y="129"/>
      <point x="649" y="129" type="curve" smooth="yes"/>
      <point x="580" y="129"/>
      <point x="525" y="185"/>
      <point x="518" y="286" type="curve"/>
      <point x="741" y="286" type="line"/>
      <point x="741" y="424" type="line"/>
      <point x="518" y="424" type="line"/>
      <point x="528" y="519"/>
      <point x="579" y="571"/>
      <point x="647" y="571" type="curve" smooth="yes"/>
      <point x="693" y="571"/>
      <point x="731" y="554"/>
      <point x="770" y="521" type="curve"/>
      <point x="866" y="633" type="line"/>
      <point x="806" y="685"/>
      <point x="733" y="716"/>
      <point x="638" y="716" type="curve" smooth="yes"/>
      <point x="469" y="716"/>
      <point x="343" y="612"/>
      <point x="316" y="428" type="curve"/>
      <point x="249" y="428" type="line"/>
      <point x="249" y="696" type="line"/>
      <point x="43" y="696" type="line"/>
      <point x="43" y="0" type="line"/>
      <point x="249" y="0" type="line"/>
      <point x="249" y="280" type="line"/>
      <point x="314" y="280" type="line"/>
      <point x="337" y="84"/>
      <point x="459" y="-20"/>
      <point x="633" y="-20" type="curve" smooth="yes"/>
      <point x="740" y="-20"/>
      <point x="822" y="26"/>
      <point x="874" y="78" type="curve"/>
    </contour>
    <contour>
      <point x="363" y="680" type="move" name="top"/>
    </contour>
    <contour>
      <point x="363" y="0" type="move" name="bottom"/>
    </contour>
  </outline>
</glyph>
<glyph name="uni0465" format="1">
  <advance width="761"/>
  <unicode hex="0465"/>
  <outline>
    <contour>
      <point x="42" y="534" type="line"/>
      <point x="42" y="0" type="line"/>
      <point x="240" y="0" type="line"/>
      <point x="240" y="207" type="line"/>
      <point x="307" y="207" type="line"/>
      <point x="308" y="333" type="line"/>
      <point x="240" y="333" type="line"/>
      <point x="240" y="534" type="line"/>
    </contour>
    <contour>
      <point x="567" y="554" type="curve" smooth="yes"/>
      <point x="398" y="554"/>
      <point x="289" y="432"/>
      <point x="289" y="263" type="curve" smooth="yes"/>
      <point x="289" y="96"/>
      <point x="396" y="-20"/>
      <point x="575" y="-20" type="curve" smooth="yes"/>
      <point x="652" y="-20"/>
      <point x="710" y="6"/>
      <point x="761" y="46" type="curve"/>
      <point x="679" y="157" type="line"/>
      <point x="645" y="131"/>
      <point x="617" y="120"/>
      <point x="582" y="120" type="curve" smooth="yes"/>
      <point x="527" y="120"/>
      <point x="481" y="149"/>
      <point x="487" y="244" type="curve"/>
      <point x="487" y="300" type="line"/>
      <point x="484" y="383"/>
      <point x="518" y="414"/>
      <point x="580" y="414" type="curve" smooth="yes"/>
      <point x="615" y="414"/>
      <point x="647" y="403"/>
      <point x="679" y="377" type="curve"/>
      <point x="761" y="483" type="line"/>
      <point x="710" y="528"/>
      <point x="649" y="554"/>
    </contour>
    <contour>
      <point x="471" y="323" type="line"/>
      <point x="471" y="219" type="line"/>
      <point x="662" y="219" type="line"/>
      <point x="662" y="323" type="line"/>
    </contour>
    <contour>
      <point x="334" y="517" type="move" name="top"/>
    </contour>
    <contour>
      <point x="334" y="0" type="move" name="bottom"/>
    </contour>
  </outline>
</glyph>
<glyph name="uni0466" format="1">
  <advance width="679"/>
  <unicode hex="0466"/>
  <outline>
    <contour>
      <point x="704" y="0" type="line"/>
      <point x="461" y="696" type="line"/>
      <point x="222" y="696" type="line"/>
      <point x="-25" y="0" type="line"/>
      <point x="179" y="0" type="line"/>
      <point x="246" y="243" type="line"/>
      <point x="269" y="243" type="line"/>
      <point x="269" y="-1" type="line"/>
      <point x="410" y="-1" type="line"/>
      <point x="410" y="243" type="line"/>
      <point x="432" y="243" type="line"/>
      <point x="500" y="0" type="line"/>
    </contour>
    <contour>
      <point x="338" y="578" type="line"/>
      <point x="393" y="382" type="line"/>
      <point x="284" y="382" type="line"/>
    </contour>
    <contour>
      <point x="278" y="680" type="move" name="top"/>
    </contour>
    <contour>
      <point x="278" y="0" type="move" name="bottom"/>
    </contour>
  </outline>
</glyph>
<glyph name="uni046A" format="1">
  <advance width="842"/>
  <unicode hex="046A"/>
  <outline>
    <contour>
      <point x="605" y="387" type="line"/>
      <point x="747" y="576" type="line"/>
      <point x="747" y="696" type="line"/>
      <point x="97" y="696" type="line"/>
      <point x="97" y="576" type="line"/>
      <point x="234" y="387" type="line"/>
      <point x="156" y="387" type="line"/>
      <point x="-15" y="0" type="line"/>
      <point x="194" y="0" type="line"/>
      <point x="299" y="248" type="line"/>
      <point x="330" y="248" type="line"/>
      <point x="330" y="0" type="line"/>
      <point x="516" y="0" type="line"/>
      <point x="516" y="248" type="line"/>
      <point x="547" y="248" type="line"/>
      <point x="648" y="0" type="line"/>
      <point x="857" y="0" type="line"/>
      <point x="688" y="387" type="line"/>
    </contour>
    <contour>
      <point x="527" y="563" type="line"/>
      <point x="423" y="387" type="line"/>
      <point x="318" y="563" type="line"/>
    </contour>
    <contour>
      <point x="338" y="680" type="move" name="top"/>
    </contour>
    <contour>
      <point x="338" y="0" type="move" name="bottom"/>
    </contour>
  </outline>
</glyph>
<glyph name="uni046C" format="1">
  <advance width="1031"/>
  <unicode hex="046C"/>
  <outline>
    <contour>
      <point x="249" y="0" type="line"/>
      <point x="249" y="244" type="line"/>
      <point x="348" y="244" type="line"/>
      <point x="272" y="0" type="line"/>
      <point x="481" y="0" type="line"/>
      <point x="532" y="248" type="line"/>
      <point x="567" y="248" type="line"/>
      <point x="567" y="0" type="line"/>
      <point x="753" y="0" type="line"/>
      <point x="753" y="248" type="line"/>
      <point x="788" y="248" type="line"/>
      <point x="839" y="0" type="line"/>
      <point x="1046" y="0" type="line"/>
      <point x="925" y="387" type="line"/>
      <point x="844" y="387" type="line"/>
      <point x="964" y="576" type="line"/>
      <point x="964" y="696" type="line"/>
      <point x="354" y="696" type="line"/>
      <point x="354" y="576" type="line"/>
      <point x="469" y="387" type="line"/>
      <point x="249" y="387" type="line"/>
      <point x="249" y="696" type="line"/>
      <point x="43" y="696" type="line"/>
      <point x="43" y="0" type="line"/>
    </contour>
    <contour>
      <point x="560" y="563" type="line"/>
      <point x="759" y="563" type="line"/>
      <point x="660" y="387" type="line"/>
    </contour>
    <contour>
      <point x="386" y="680" type="move" name="top"/>
    </contour>
    <contour>
      <point x="386" y="0" type="move" name="bottom"/>
    </contour>
  </outline>
</glyph>
<glyph name="uni0490" format="1">
  <advance width="511"/>
  <unicode hex="0490"/>
  <outline>
    <contour>
      <point x="516" y="696" type="line"/>
      <point x="516" y="854" type="line"/>
      <point x="328" y="854" type="line"/>
      <point x="328" y="686" type="line"/>
    </contour>
    <contour>
      <point x="43" y="0" type="line"/>
      <point x="249" y="0" type="line"/>
      <point x="249" y="584" type="line"/>
      <point x="43" y="696" type="line"/>
    </contour>
    <contour>
      <point x="43" y="696" type="line"/>
      <point x="233" y="538" type="line"/>
      <point x="496" y="538" type="line"/>
      <point x="516" y="696" type="line"/>
    </contour>
    <contour>
      <point x="330" y="680" type="move" name="top"/>
    </contour>
    <contour>
      <point x="131" y="0" type="move" name="bottom"/>
    </contour>
    <contour>
      <point x="142" y="0" type="move" name="bottomright"/>
    </contour>
  </outline>
</glyph>
<glyph name="uni0492" format="1">
  <advance width="521"/>
  <unicode hex="0492"/>
  <outline>
    <contour>
      <point x="526" y="696" type="line"/>
      <point x="53" y="696" type="line"/>
      <point x="53" y="433" type="line"/>
      <point x="-13" y="433" type="line"/>
      <point x="-13" y="317" type="line"/>
      <point x="53" y="317" type="line"/>
      <point x="53" y="0" type="line"/>
      <point x="259" y="0" type="line"/>
      <point x="259" y="317" type="line"/>
      <point x="392" y="317" type="line"/>
      <point x="392" y="433" type="line"/>
      <point x="259" y="433" type="line"/>
      <point x="259" y="538" type="line"/>
      <point x="506" y="538" type="line"/>
    </contour>
    <contour>
      <point x="333" y="680" type="move" name="top"/>
    </contour>
    <contour>
      <point x="134" y="0" type="move" name="bottom"/>
    </contour>
    <contour>
      <point x="145" y="0" type="move" name="bottomright"/>
    </contour>
  </outline>
</glyph>
<glyph name="uni0493" format="1">
  <advance width="446"/>
  <unicode hex="0493"/>
  <outline>
    <contour>
      <point x="52" y="309" type="line"/>
      <point x="0" y="309" type="line"/>
      <point x="0" y="209" type="line"/>
      <point x="355" y="209" type="line"/>
      <point x="355" y="309" type="line"/>
    </contour>
    <contour>
      <point x="250" y="387" type="line"/>
      <point x="433" y="387" type="line"/>
      <point x="456" y="534" type="line"/>
      <point x="52" y="534" type="line"/>
      <point x="52" y="0" type="line"/>
      <point x="250" y="0" type="line"/>
    </contour>
    <contour>
      <point x="263" y="517" type="move" name="top"/>
    </contour>
    <contour>
      <point x="126" y="0" type="move" name="bottom"/>
    </contour>
    <contour>
      <point x="137" y="0" type="move" name="bottomright"/>
    </contour>
  </outline>
</glyph>
<glyph name="uni0494" format="1">
  <advance width="639"/>
  <unicode hex="0494"/>
  <outline>
    <contour>
      <point x="392" y="461" type="curve" smooth="yes"/>
      <point x="334" y="461"/>
      <point x="289" y="445"/>
      <point x="249" y="414" type="curve"/>
      <point x="249" y="543" type="line"/>
      <point x="491" y="543" type="line"/>
      <point x="511" y="696" type="line"/>
      <point x="43" y="696" type="line"/>
      <point x="43" y="0" type="line"/>
      <point x="249" y="0" type="line"/>
      <point x="249" y="288" type="line"/>
      <point x="270" y="304"/>
      <point x="296" y="315"/>
      <point x="334" y="315" type="curve" smooth="yes"/>
      <point x="390" y="315"/>
      <point x="413" y="282"/>
      <point x="413" y="205" type="curve" smooth="yes"/>
      <point x="413" y="-29" type="line" smooth="yes"/>
      <point x="413" y="-64"/>
      <point x="394" y="-82"/>
      <point x="363" y="-82" type="curve" smooth="yes"/>
      <point x="335" y="-82"/>
      <point x="319" y="-74"/>
      <point x="295" y="-62" type="curve"/>
      <point x="231" y="-182" type="line"/>
      <point x="267" y="-208"/>
      <point x="316" y="-227"/>
      <point x="388" y="-227" type="curve" smooth="yes"/>
      <point x="526" y="-227"/>
      <point x="619" y="-157"/>
      <point x="619" y="-16" type="curve" smooth="yes"/>
      <point x="619" y="205" type="line" smooth="yes"/>
      <point x="619" y="363"/>
      <point x="540" y="461"/>
    </contour>
    <contour>
      <point x="294" y="680" type="move" name="top"/>
    </contour>
    <contour>
      <point x="294" y="-188" type="move" name="bottom"/>
    </contour>
  </outline>
</glyph>
<glyph name="uni0495" format="1">
  <advance width="555"/>
  <unicode hex="0495"/>
  <outline>
    <contour>
      <point x="535" y="0" type="line"/>
      <point x="535" y="194" type="line" smooth="yes"/>
      <point x="535" y="296"/>
      <point x="480" y="354"/>
      <point x="391" y="354" type="curve" smooth="yes"/>
      <point x="321" y="354"/>
      <point x="270" y="327"/>
      <point x="216" y="274" type="curve"/>
      <point x="240" y="172" type="line"/>
      <point x="263" y="196"/>
      <point x="286" y="210"/>
      <point x="307" y="210" type="curve" smooth="yes"/>
      <point x="325" y="210"/>
      <point x="337" y="200"/>
      <point x="337" y="158" type="curve" smooth="yes"/>
      <point x="337" y="0" type="line"/>
    </contour>
    <contour>
      <point x="240" y="0" type="line"/>
      <point x="240" y="534" type="line"/>
      <point x="42" y="534" type="line"/>
      <point x="42" y="0" type="line"/>
    </contour>
    <contour>
      <point x="423" y="397" type="line"/>
      <point x="446" y="534" type="line"/>
      <point x="42" y="534" type="line"/>
      <point x="240" y="397" type="line"/>
    </contour>
    <contour>
      <point x="309" y="-227" type="curve" smooth="yes"/>
      <point x="444" y="-227"/>
      <point x="535" y="-157"/>
      <point x="535" y="-16" type="curve" smooth="yes"/>
      <point x="535" y="1" type="line"/>
      <point x="337" y="1" type="line"/>
      <point x="337" y="-34" type="line" smooth="yes"/>
      <point x="337" y="-69"/>
      <point x="318" y="-87"/>
      <point x="285" y="-87" type="curve" smooth="yes"/>
      <point x="257" y="-87"/>
      <point x="241" y="-79"/>
      <point x="217" y="-67" type="curve"/>
      <point x="153" y="-182" type="line"/>
      <point x="189" y="-208"/>
      <point x="238" y="-227"/>
    </contour>
    <contour>
      <point x="275" y="517" type="move" name="top"/>
    </contour>
    <contour>
      <point x="275" y="-188" type="move" name="bottom"/>
    </contour>
  </outline>
</glyph>
<glyph name="uni04A5" format="1">
  <advance width="689"/>
  <unicode hex="04A5"/>
  <outline>
    <contour>
      <point x="670" y="395" type="line"/>
      <point x="694" y="534" type="line"/>
      <point x="342" y="534" type="line"/>
      <point x="540" y="395" type="line"/>
    </contour>
    <contour>
      <point x="540" y="0" type="line"/>
      <point x="540" y="534" type="line"/>
      <point x="342" y="534" type="line"/>
      <point x="342" y="341" type="line"/>
      <point x="240" y="341" type="line"/>
      <point x="240" y="534" type="line"/>
      <point x="42" y="534" type="line"/>
      <point x="42" y="0" type="line"/>
      <point x="240" y="0" type="line"/>
      <point x="240" y="199" type="line"/>
      <point x="342" y="199" type="line"/>
      <point x="342" y="0" type="line"/>
    </contour>
    <contour>
      <point x="284" y="517" type="move" name="top"/>
    </contour>
    <contour>
      <point x="289" y="0" type="move" name="bottom"/>
    </contour>
    <contour>
      <point x="463" y="0" type="move" name="bottomright"/>
    </contour>
  </outline>
</glyph>
<glyph name="uni04A6" format="1">
  <advance width="1004"/>
  <unicode hex="04A6"/>
  <outline>
    <contour>
      <point x="757" y="481" type="curve" smooth="yes"/>
      <point x="699" y="481"/>
      <point x="654" y="465"/>
      <point x="614" y="434" type="curve"/>
      <point x="614" y="696" type="line"/>
      <point x="43" y="696" type="line"/>
      <point x="43" y="0" type="line"/>
      <point x="249" y="0" type="line"/>
      <point x="249" y="542" type="line"/>
      <point x="408" y="542" type="line"/>
      <point x="408" y="0" type="line"/>
      <point x="614" y="0" type="line"/>
      <point x="614" y="308" type="line"/>
      <point x="635" y="324"/>
      <point x="661" y="335"/>
      <point x="699" y="335" type="curve" smooth="yes"/>
      <point x="755" y="335"/>
      <point x="778" y="302"/>
      <point x="778" y="225" type="curve" smooth="yes"/>
      <point x="778" y="-29" type="line" smooth="yes"/>
      <point x="778" y="-64"/>
      <point x="759" y="-82"/>
      <point x="728" y="-82" type="curve" smooth="yes"/>
      <point x="700" y="-82"/>
      <point x="684" y="-74"/>
      <point x="660" y="-62" type="curve"/>
      <point x="596" y="-182" type="line"/>
      <point x="632" y="-208"/>
      <point x="681" y="-227"/>
      <point x="753" y="-227" type="curve" smooth="yes"/>
      <point x="891" y="-227"/>
      <point x="984" y="-157"/>
      <point x="984" y="-16" type="curve" smooth="yes"/>
      <point x="984" y="225" type="line" smooth="yes"/>
      <point x="984" y="383"/>
      <point x="905" y="481"/>
    </contour>
    <contour>
      <point x="490" y="680" type="move" name="top"/>
    </contour>
    <contour>
      <point x="490" y="-188" type="move" name="bottom"/>
    </contour>
    <contour>
      <point x="534" y="0" type="move" name="bottomright"/>
    </contour>
  </outline>
</glyph>
<glyph name="uni04A7" format="1">
  <advance width="850"/>
  <unicode hex="04A7"/>
  <outline>
    <contour>
      <point x="830" y="0" type="line"/>
      <point x="830" y="194" type="line" smooth="yes"/>
      <point x="830" y="296"/>
      <point x="775" y="354"/>
      <point x="686" y="354" type="curve" smooth="yes"/>
      <point x="616" y="354"/>
      <point x="565" y="327"/>
      <point x="511" y="274" type="curve"/>
      <point x="535" y="172" type="line"/>
      <point x="558" y="196"/>
      <point x="581" y="210"/>
      <point x="602" y="210" type="curve" smooth="yes"/>
      <point x="620" y="210"/>
      <point x="632" y="200"/>
      <point x="632" y="158" type="curve" smooth="yes"/>
      <point x="632" y="0" type="line"/>
    </contour>
    <contour>
      <point x="536" y="0" type="line"/>
      <point x="536" y="534" type="line"/>
      <point x="42" y="534" type="line"/>
      <point x="42" y="0" type="line"/>
      <point x="240" y="0" type="line"/>
      <point x="240" y="391" type="line"/>
      <point x="338" y="391" type="line"/>
      <point x="338" y="0" type="line"/>
    </contour>
    <contour>
      <point x="604" y="-227" type="curve" smooth="yes"/>
      <point x="739" y="-227"/>
      <point x="830" y="-157"/>
      <point x="830" y="-16" type="curve" smooth="yes"/>
      <point x="830" y="1" type="line"/>
      <point x="632" y="1" type="line"/>
      <point x="632" y="-34" type="line" smooth="yes"/>
      <point x="632" y="-69"/>
      <point x="613" y="-87"/>
      <point x="580" y="-87" type="curve" smooth="yes"/>
      <point x="552" y="-87"/>
      <point x="536" y="-79"/>
      <point x="512" y="-67" type="curve"/>
      <point x="448" y="-182" type="line"/>
      <point x="484" y="-208"/>
      <point x="533" y="-227"/>
    </contour>
    <contour>
      <point x="436" y="517" type="move" name="top"/>
    </contour>
    <contour>
      <point x="436" y="-188" type="move" name="bottom"/>
    </contour>
    <contour>
      <point x="458" y="0" type="move" name="bottomright"/>
    </contour>
  </outline>
</glyph>
<glyph name="uni04B4" format="1">
  <advance width="830"/>
  <unicode hex="04B4"/>
  <outline>
    <contour>
      <point x="740" y="696" type="line"/>
      <point x="534" y="696" type="line"/>
      <point x="534" y="158" type="line"/>
      <point x="380" y="158" type="line"/>
      <point x="380" y="546" type="line"/>
      <point x="469" y="546" type="line"/>
      <point x="490" y="696" type="line"/>
      <point x="5" y="696" type="line"/>
      <point x="5" y="546" type="line"/>
      <point x="174" y="546" type="line"/>
      <point x="174" y="0" type="line"/>
      <point x="663" y="0" type="line"/>
      <point x="683" y="-175" type="line"/>
      <point x="820" y="-175" type="line"/>
      <point x="820" y="154" type="line"/>
      <point x="740" y="154" type="line"/>
    </contour>
    <contour>
      <point x="383" y="680" type="move" name="top"/>
    </contour>
    <contour>
      <point x="383" y="-188" type="move" name="bottom"/>
    </contour>
    <contour>
      <point x="635" y="0" type="move" name="bottomright"/>
    </contour>
  </outline>
</glyph>
<glyph name="uni04B5" format="1">
  <advance width="717"/>
  <unicode hex="04B5"/>
  <outline>
    <contour>
      <point x="0" y="534" type="line"/>
      <point x="0" y="395" type="line"/>
      <point x="144" y="395" type="line"/>
      <point x="342" y="395" type="line"/>
      <point x="380" y="395" type="line"/>
      <point x="405" y="534" type="line"/>
    </contour>
    <contour>
      <point x="434" y="142" type="line"/>
      <point x="342" y="142" type="line"/>
      <point x="342" y="534" type="line"/>
      <point x="144" y="534" type="line"/>
      <point x="144" y="0" type="line"/>
      <point x="632" y="0" type="line"/>
      <point x="632" y="534" type="line"/>
      <point x="434" y="534" type="line"/>
    </contour>
    <contour>
      <point x="500" y="142" type="line"/>
      <point x="522" y="0" type="line"/>
      <point x="562" y="0" type="line"/>
      <point x="582" y="-175" type="line"/>
      <point x="712" y="-175" type="line"/>
      <point x="712" y="142" type="line"/>
    </contour>
    <contour>
      <point x="323" y="517" type="move" name="top"/>
    </contour>
    <contour>
      <point x="323" y="-188" type="move" name="bottom"/>
    </contour>
    <contour>
      <point x="531" y="0" type="move" name="bottomright"/>
    </contour>
  </outline>
</glyph>
<glyph name="uni04B8" format="1">
  <advance width="623"/>
  <unicode hex="04B8"/>
  <outline>
    <contour>
      <point x="268" y="555" type="line"/>
      <point x="268" y="125" type="line"/>
      <point x="334" y="125" type="line"/>
      <point x="334" y="555" type="line"/>
    </contour>
    <contour>
      <point x="10" y="696" type="line"/>
      <point x="10" y="451" type="line" smooth="yes"/>
      <point x="10" y="293"/>
      <point x="89" y="195"/>
      <point x="232" y="195" type="curve" smooth="yes"/>
      <point x="296" y="195"/>
      <point x="344" y="215"/>
      <point x="386" y="254" type="curve"/>
      <point x="385" y="379" type="line"/>
      <point x="363" y="355"/>
      <point x="338" y="341"/>
      <point x="293" y="341" type="curve" smooth="yes"/>
      <point x="234" y="341"/>
      <point x="212" y="374"/>
      <point x="212" y="451" type="curve" smooth="yes"/>
      <point x="212" y="696" type="line"/>
    </contour>
    <contour>
      <point x="374" y="696" type="line"/>
      <point x="374" y="0" type="line"/>
      <point x="580" y="0" type="line"/>
      <point x="580" y="696" type="line"/>
    </contour>
    <contour>
      <point x="248" y="680" type="move" name="top"/>
    </contour>
    <contour>
      <point x="414" y="0" type="move" name="bottomleft"/>
    </contour>
    <contour>
      <point x="446" y="0" type="move" name="bottomright"/>
    </contour>
    <contour>
      <point x="283" y="0" type="move" name="bottom"/>
    </contour>
  </outline>
</glyph>
<glyph name="uni04B9" format="1">
  <advance width="550"/>
  <unicode hex="04B9"/>
  <outline>
    <contour>
      <point x="237" y="402" type="line"/>
      <point x="237" y="82" type="line"/>
      <point x="284" y="82" type="line"/>
      <point x="284" y="402" type="line"/>
    </contour>
    <contour>
      <point x="321" y="314" type="line"/>
      <point x="305" y="298"/>
      <point x="278" y="284"/>
      <point x="249" y="284" type="curve" smooth="yes"/>
      <point x="228" y="284"/>
      <point x="213" y="294"/>
      <point x="213" y="336" type="curve" smooth="yes"/>
      <point x="213" y="534" type="line"/>
      <point x="15" y="534" type="line"/>
      <point x="15" y="310" type="line" smooth="yes"/>
      <point x="15" y="208"/>
      <point x="61" y="140"/>
      <point x="167" y="140" type="curve" smooth="yes"/>
      <point x="229" y="140"/>
      <point x="283" y="162"/>
      <point x="321" y="194" type="curve"/>
    </contour>
    <contour>
      <point x="310" y="0" type="line"/>
      <point x="508" y="0" type="line"/>
      <point x="508" y="534" type="line"/>
      <point x="310" y="534" type="line"/>
    </contour>
    <contour>
      <point x="235" y="517" type="move" name="top"/>
    </contour>
    <contour>
      <point x="373" y="0" type="move" name="bottomleft"/>
    </contour>
    <contour>
      <point x="405" y="0" type="move" name="bottomright"/>
    </contour>
    <contour>
      <point x="260" y="0" type="move" name="bottom"/>
    </contour>
  </outline>
</glyph>
